<?xml version="1.0" encoding="utf-8"?>
<!-- Generator: Adobe Illustrator 19.0.0, SVG Export Plug-In . SVG Version: 6.00 Build 0)  -->
<svg version="1.1" id="Forma_1_1_" xmlns="http://www.w3.org/2000/svg" xmlns:xlink="http://www.w3.org/1999/xlink" x="0px" y="0px"
	 viewBox="-30 40 422 422" style="enable-background:new -30 40 422 422;" xml:space="preserve">
<style type="text/css">
	.st0{fill:#F19F11;}
</style>
<path class="st0" d="M-30,40v422h422V40H-30z M221,142.2c0-13.3,11.1-25.5,25.5-25.5c13.3,0,25.5,11.1,25.5,25.5
	c0,13.3-11.1,25.5-25.5,25.5c-2.2,0-4.4,0-6.7-1.1l-22.2,37.8c-3.3-2.2-6.7-4.4-11.1-6.7l22.2-37.8C224.3,155.5,221,149.9,221,142.2
	z M92.2,288.8c0,13.3-11.1,25.5-25.5,25.5c-13.3,0-25.5-11.1-25.5-25.5c0-13.3,11.1-25.5,25.5-25.5c8.9,0,16.7,4.4,21.1,11.1
	l38.9-13.3c1.1,4.4,2.2,7.8,4.4,12.2l-38.9,13.3C92.2,287.6,92.2,287.6,92.2,288.8z M119.9,199.9c-3.3,2.2-8.9,3.3-13.3,3.3
	c-13.3,0-25.5-11.1-25.5-25.5c0-13.3,11.1-25.5,25.5-25.5c13.3,0,25.5,11.1,25.5,25.5c0,4.4-1.1,8.9-3.3,12.2l16.7,15.5
	c-3.3,2.2-5.6,5.6-8.9,8.9L119.9,199.9z M139.9,249.9c0-23.3,18.9-43.3,43.3-43.3c23.3,0,43.3,18.9,43.3,43.3
	c0,23.3-18.9,43.3-43.3,43.3S139.9,273.2,139.9,249.9z M207.7,384.3c-13.3,0-25.5-11.1-25.5-25.5c0-10,5.6-17.8,13.3-22.2l-6.7-30
	c4.4,0,8.9-1.1,12.2-3.3l6.7,30c13.3,0,24.4,11.1,24.4,24.4C232.1,373.2,221,384.3,207.7,384.3z M294.3,286.5
	c-12.2,0-23.3-8.9-24.4-21.1l-31.1-3.3c1.1-3.3,1.1-7.8,1.1-12.2c0,0,0,0,0-1.1l31.1,3.3c3.3-10,12.2-16.7,23.3-16.7
	c13.3,0,25.5,11.1,25.5,25.5C319.8,274.3,307.6,286.5,294.3,286.5z"/>
</svg>
