<svg id="Layer_1" data-name="Layer 1" xmlns="http://www.w3.org/2000/svg" viewBox="0 0 122.88 122.88"><defs><style>.cls-1{fill:#00e673;}.cls-1,.cls-2{fill-rule:evenodd;}.cls-2{fill:#fff;}</style></defs><title>20</title><path class="cls-1" d="M837.29,686.63H960.17V809.51H837.29V686.63" transform="translate(-837.29 -686.63)"/><path class="cls-2" d="M883.59,721.37h20.47a10.76,10.76,0,0,0-20.47,0m20.06,20.33a5.78,5.78,0,0,0-4.71-2.51c-1.84-.15-3.75,1.16-4.78,1.13a8.64,8.64,0,0,1-2.38-.77,5.78,5.78,0,0,0-6.39,1.76c-1.45,1.92-1.66,4.85-1.31,7.33,0.67,4.74,3.12,10,6.23,9.89,1.62-.06,2.21-1.07,4.16-1.06s2.49,1,4.19,1,2.82-1.62,3.9-3.17a17.05,17.05,0,0,0,1.65-3.25h0l0.12-.35c-3.27-.93-4.43-6.14-2.26-8.66A15.68,15.68,0,0,1,903.65,741.7ZM897.71,737A5.73,5.73,0,0,0,899,733a5.63,5.63,0,0,0-3.76,1.94,5.26,5.26,0,0,0-1.34,3.94A4.77,4.77,0,0,0,897.71,737Zm21,32.31A4.66,4.66,0,1,1,914,774,4.66,4.66,0,0,1,918.7,769.35Zm0-6.77h0a2.58,2.58,0,0,1,2.57,2.57v0.35a8.86,8.86,0,0,1,1.62.67l0.25-.25a2.57,2.57,0,0,1,3.64,3.64l-0.25.25a8.88,8.88,0,0,1,.67,1.62h0.35a2.57,2.57,0,1,1,0,5.15h-0.35a8.86,8.86,0,0,1-.67,1.62l0.24,0.25a2.57,2.57,0,1,1-3.64,3.64l-0.25-.24a8.85,8.85,0,0,1-1.62.67v0.35a2.57,2.57,0,1,1-5.15,0v-0.35a8.85,8.85,0,0,1-1.62-.67l-0.25.24a2.57,2.57,0,0,1-3.64-3.64l0.25-.25a8.85,8.85,0,0,1-.67-1.62h-0.35a2.57,2.57,0,0,1,0-5.15h0.35a8.86,8.86,0,0,1,.67-1.62l-0.25-.25a2.57,2.57,0,0,1,3.64-3.64l0.25,0.25a8.86,8.86,0,0,1,1.62-.67v-0.35A2.58,2.58,0,0,1,918.7,762.58Zm-47.65-41.21h9.2a14,14,0,0,1,27.15,0h9.54a3.74,3.74,0,0,1,3.72,3.72v35.57A37.23,37.23,0,0,1,909,764.28a14.51,14.51,0,0,1-4,9.73q0,0.1,0,.19h-33.9a3.74,3.74,0,0,1-3.72-3.72V725.09A3.74,3.74,0,0,1,871.05,721.37Z" transform="translate(-837.29 -686.63)"/></svg>