<?xml version="1.0" encoding="utf-8"?>
<!-- Generator: Adobe Illustrator 18.0.0, SVG Export Plug-In . SVG Version: 6.00 Build 0)  -->
<!DOCTYPE svg PUBLIC "-//W3C//DTD SVG 1.1//EN" "http://www.w3.org/Graphics/SVG/1.1/DTD/svg11.dtd">
<svg version="1.1" id="Layer_1" xmlns="http://www.w3.org/2000/svg" xmlns:xlink="http://www.w3.org/1999/xlink" x="0px" y="0px"
	 viewBox="80 0 480 480" enable-background="new 80 0 480 480" xml:space="preserve">
<title>2</title>
<path fill="#F3BC3B" d="M80,0h480v480H80V0"/>
<g id="XMLID_4_">
	<path id="XMLID_6_" fill="#FFFFFF" d="M462.4,215.2c0-3.3-2.6-6.7-5.7-7.7L289,156.2c-3.1-1-4.6,0.7-3.2,3.6l31.2,67.7
		c1.4,3,4.9,6.5,7.9,7.8l42.8,19.4c3,1.3,3,3.7,0.2,5.2l-182.5,96c-2.9,1.5-3.3,1-0.8-1.2l70.1-62.5c2.4-2.2,4.4-6.6,4.4-9.9V93
		c0-3.3-2.6-6.7-5.7-7.7L183.3,64c-3.1-1-5.7,0.9-5.7,4.2v287.2c0,3.3,2.2,7.5,4.9,9.3l71.3,50c2.7,1.9,7.1,2,10,0.4l193.5-115.3
		c2.8-1.7,5.1-5.7,5.1-9V215.2z"/>
</g>
</svg>
