<svg id="Layer_1" data-name="Layer 1" xmlns="http://www.w3.org/2000/svg" viewBox="0 0 122.88 122.88"><defs><style>.cls-1{fill:#8be307;}.cls-1,.cls-2{fill-rule:evenodd;}.cls-2{fill:#fff;}</style></defs><title>36</title><path class="cls-1" d="M159.74,1392.13H282.62V1515H159.74V1392.13" transform="translate(-159.74 -1392.13)"/><path class="cls-2" d="M190.77,1429.66h60.82v40H190.77v-40Zm18.4,22.78h36.13v8.75H209.17v-8.75Zm-12.12,0h8.53v8.75h-8.53v-8.75Zm12.12-14.36h36.13v8.75H209.17v-8.75Zm-12.12,0h8.53v8.75h-8.53v-8.75Zm-9.65-15.37H255a3.6,3.6,0,0,1,3.59,3.59V1473a3.6,3.6,0,0,1-3.59,3.59h-19.3v7.86h-29v-7.86H187.4a3.6,3.6,0,0,1-3.59-3.59V1426.3A3.6,3.6,0,0,1,187.4,1422.71Z" transform="translate(-159.74 -1392.13)"/></svg>