<?xml version="1.0" encoding="utf-8"?>
<!-- Generator: Adobe Illustrator 19.0.0, SVG Export Plug-In . SVG Version: 6.00 Build 0)  -->
<svg version="1.1" id="Shape_1_1_" xmlns="http://www.w3.org/2000/svg" xmlns:xlink="http://www.w3.org/1999/xlink" x="0px" y="0px"
	 viewBox="0 0 673.6 672.2" style="enable-background:new 0 0 673.6 672.2;" xml:space="preserve">
<style type="text/css">
	.st0{fill:#6E6CC0;}
</style>
<g>
	<rect x="167.9" y="166.8" class="st0" width="338.6" height="51.8"/>
	<path class="st0" d="M1.5,0v672.2h672.2V0H1.5z M541,522.6c-0.8,8.6-8.6,16.4-18.1,16.4H151.4c-9.5,0-17.3-7.8-17.3-17.3V150.4
		c0-9.5,7.8-17.3,17.3-17.3h372.4c9.5,0,17.3,7.7,17.2,17.2V522.6z"/>
	<path class="st0" d="M167.9,505.3h338.6V253.1H167.9V505.3z M307.8,297.2h135.6c9.5,0,17.3,7.8,17.3,17.3
		c-0.8,9.5-8.6,17.3-18.1,17.3H307.8c-9.5,0-17.3-7.8-17.3-17.3C290.5,305,298.3,297.2,307.8,297.2z M307.8,366.3h135.6
		c9.5,0,17.3,7.8,17.3,17.3c-0.8,9.5-8.6,17.3-18.1,17.3H307.8c-9.5,0-17.3-7.8-17.3-17.3C290.5,374.1,298.3,366.3,307.8,366.3z
		 M307.8,435.4h135.6c9.5,0,17.3,7.8,17.3,17.3s-8.6,17.3-18.1,17.3H307.8c-9.5,0-17.3-7.8-17.3-17.3S298.3,435.4,307.8,435.4z
		 M232.7,297.4c9.4,0,17,7.6,17,17c0,9.4-7.6,17-17,17s-17-7.6-17-17C215.6,305,223.3,297.4,232.7,297.4z M232.7,366.5
		c9.4,0,17,7.6,17,17c0,9.4-7.6,17-17,17s-17-7.6-17-17C215.6,374.1,223.3,366.5,232.7,366.5z M232.7,435.6c9.4,0,17,7.6,17,17
		s-7.6,17-17,17s-17-7.6-17-17S223.3,435.6,232.7,435.6z"/>
</g>
</svg>
