<svg id="Layer_1" data-name="Layer 1" xmlns="http://www.w3.org/2000/svg" viewBox="0 0 122.88 122.88"><defs><style>.cls-1{fill:#ffb6c1;}.cls-1,.cls-2{fill-rule:evenodd;}.cls-2{fill:#fff;}</style></defs><title>49</title><path class="cls-1" d="M667.9,1744.88H790.78v122.88H667.9V1744.88" transform="translate(-667.9 -1744.88)"/><path class="cls-2" d="M713,1777.07H745.7a2.15,2.15,0,0,1,2.15,2.15v13.61a2.15,2.15,0,0,1-2.15,2.15H713a2.16,2.16,0,0,1-2.15-2.15v-13.61a2.15,2.15,0,0,1,2.15-2.15m2.27,51.55a3.79,3.79,0,1,1-3.79,3.79A3.79,3.79,0,0,1,715.25,1828.61Zm0-14a3.79,3.79,0,1,1-3.79,3.79A3.79,3.79,0,0,1,715.25,1814.57Zm28.18,14a3.79,3.79,0,1,1-3.79,3.79A3.79,3.79,0,0,1,743.43,1828.61Zm0-14a3.79,3.79,0,1,1-3.79,3.79A3.79,3.79,0,0,1,743.43,1814.57Zm0-14a3.79,3.79,0,1,1-3.79,3.79A3.79,3.79,0,0,1,743.43,1800.53Zm-14.09,28.09a3.79,3.79,0,1,1-3.79,3.79A3.79,3.79,0,0,1,729.34,1828.61Zm0-14a3.79,3.79,0,1,1-3.79,3.79A3.79,3.79,0,0,1,729.34,1814.57Zm0-14a3.79,3.79,0,1,1-3.79,3.79A3.79,3.79,0,0,1,729.34,1800.53Zm-14.09,0a3.79,3.79,0,1,1-3.79,3.79A3.79,3.79,0,0,1,715.25,1800.53Zm-6.09-31.58h40.35a5.75,5.75,0,0,1,5.73,5.73V1838a5.75,5.75,0,0,1-5.73,5.73H709.17a5.75,5.75,0,0,1-5.73-5.73v-63.28A5.75,5.75,0,0,1,709.17,1768.95Z" transform="translate(-667.9 -1744.88)"/></svg>