<svg id="Layer_1" data-name="Layer 1" xmlns="http://www.w3.org/2000/svg" viewBox="0 0 122.88 122.88"><defs><style>.cls-1{fill:#c9c966;}.cls-1,.cls-2{fill-rule:evenodd;}.cls-2{fill:#fff;}</style></defs><title>43</title><path class="cls-1" d="M498.51,1568.5H621.39v122.88H498.51V1568.5" transform="translate(-498.51 -1568.5)"/><path class="cls-2" d="M558.32,1627.65a9.49,9.49,0,1,1,.56,13.42,9.49,9.49,0,0,1-.56-13.42m-2.7-32a2.37,2.37,0,1,1-2.37,2.37A2.37,2.37,0,0,1,555.62,1595.61Zm30,51.1,7.94,7.31a2.3,2.3,0,0,1,.13,3.24l-2.92,3.18a2.3,2.3,0,0,1-3.24.13l-1.91-1.76v5.26a3.26,3.26,0,0,1-3.25,3.25H528.89a3.26,3.26,0,0,1-3.25-3.25v-61a3.26,3.26,0,0,1,3.25-3.25H540a60.76,60.76,0,0,1,10.19-1.49c0-.13,0-0.26,0-0.4a5.41,5.41,0,1,1,10.82,0c0,0.13,0,.27,0,0.4a60.76,60.76,0,0,1,10.19,1.49h11.14a3.26,3.26,0,0,1,3.25,3.25v43.6Zm-48.91-.72h5.68v5.55h-5.68V1646Zm23.1-13.9h13.56v3.72H559.77v-3.72Zm-23.1-.91h5.68v5.55h-5.68v-5.55Zm40.64,10.18,2.51,2.31,0.7-.76a0.64,0.64,0,0,1,.58-0.2v-38.36h-4.62l1,4.54H533.79l1-4.54h-4.62v58.47h51v-8.15l-5.71-5.25a0.64,0.64,0,0,1,0-.9l0.7-.76-2.51-2.31a13.94,13.94,0,0,1-2.5,1.45h2.29v3.72H547.23v-3.72h12.33a14.06,14.06,0,0,1-8.19-11.09h-4.13v-3.72h4.17a14.06,14.06,0,0,1,8.78-11.09H547.23v-3.72h26.11V1621h-2.91A14.06,14.06,0,0,1,577.32,1641.36Zm-40.64-25h5.68v5.55h-5.68v-5.55Z" transform="translate(-498.51 -1568.5)"/></svg>