<svg id="Layer_1" data-name="Layer 1" xmlns="http://www.w3.org/2000/svg" viewBox="0 0 122.88 122.88"><defs><style>.cls-1{fill:#7fcfcf;}.cls-1,.cls-2{fill-rule:evenodd;}.cls-2{fill:#fff;}</style></defs><title>25</title><path class="cls-1" d="M837.29,863H960.17V985.88H837.29V863" transform="translate(-837.29 -863)"/><path class="cls-2" d="M898.49,928.16a7.76,7.76,0,0,1,7.76,7.76,36.38,36.38,0,0,1-15.52,0,7.76,7.76,0,0,1,7.76-7.76m0-11.52a12.4,12.4,0,1,1-12.4,12.4A12.4,12.4,0,0,1,898.49,916.64Zm0.24-27.46,10.64,24.45,26.72,2.49L916,933.72l5.87,26-23.1-13.57-23.1,13.57,5.87-26-20.15-17.6,26.72-2.49Zm-0.24,31a3.57,3.57,0,1,1-3.57,3.57A3.57,3.57,0,0,1,898.49,920.17Z" transform="translate(-837.29 -863)"/></svg>