<svg id="Layer_1" data-name="Layer 1" xmlns="http://www.w3.org/2000/svg" viewBox="0 0 122.88 122.88"><defs><style>.cls-1{fill:#7b68ee;}.cls-1,.cls-2{fill-rule:evenodd;}.cls-2{fill:#fff;}</style></defs><title>76</title><path class="cls-1" d="M159.74,2803.12H282.62V2926H159.74V2803.12" transform="translate(-159.74 -2803.12)"/><path class="cls-2" d="M189.49,2881.75h6.67V2888h-6.67v-6.29Zm0-9.21h6.67v6.29h-6.67v-6.29Zm-5.68-6.67h16.91v2.25H183.8v-2.25Zm69.07,15.88H246.2V2888h6.67v-6.29Zm0-9.21H246.2v6.29h6.67v-6.29Zm5.68-6.67H241.65v2.25h16.91v-2.25Zm-1.13,3.76H241.65v25.74h15.78v-25.74Zm-29.85-15.35h6.13v6.13h-6.13v-6.13Zm-9.47,0h6.13v6.13h-6.13v-6.13Zm9.47,18.64h6.13v6.13h-6.13v-6.13Zm-9.47,0h6.13v6.13h-6.13v-6.13Zm-9.47,0h6.13v6.13h-6.13v-6.13Zm18.94-9.32h6.13v6.13h-6.13v-6.13Zm-9.47,0h6.13v6.13h-6.13v-6.13Zm-9.47,0h6.13v6.13h-6.13v-6.13Zm0-9.32h6.13v6.13h-6.13v-6.13Zm29.82-2.65v43.74h-12.3v-13.55h-10v13.55h-12.3v-43.63l17.37-11.37Zm7.46-1.73H240l-18.78-12.29-18.78,12.29H196.6l24.67-16.14,2.94,1.93,2.12,1.38Zm-61,19.72h15.78v25.74H184.93v-25.74Z" transform="translate(-159.74 -2803.12)"/></svg>