<svg id="Layer_1" data-name="Layer 1" xmlns="http://www.w3.org/2000/svg" viewBox="0 0 122.88 122.88"><defs><style>.cls-1{fill:peru;}.cls-1,.cls-2{fill-rule:evenodd;}.cls-2{fill:#fff;}</style></defs><title>82</title><path class="cls-1" d="M329.13,2979.5H452v122.88H329.13V2979.5" transform="translate(-329.13 -2979.5)"/><path class="cls-2" d="M424,3030.12H357.18v33a1.56,1.56,0,0,0,1.56,1.56H422.4a1.56,1.56,0,0,0,1.56-1.56v-33Zm-11.37-4.84v-6.48a1.66,1.66,0,0,0-1.65-1.65h-52.2a1.56,1.56,0,0,0-1.56,1.56v6.57h55.41Zm7.34-8a4.19,4.19,0,1,1-4.19,4.19A4.19,4.19,0,0,1,419.93,3017.29Zm-15.09,35.79-3.54-11.21h2.88l2.1,7.35,1.93-7.35h2.86l1.86,7.35,2.14-7.35H418l-3.6,11.21h-2.84l-1.93-7.21-1.9,7.21h-2.88Zm-19.08,0-3.54-11.21h2.88l2.1,7.35,1.93-7.35H392l1.86,7.35,2.14-7.35h2.92l-3.6,11.21h-2.84l-1.93-7.21-1.9,7.21h-2.88Zm-19.08,0-3.54-11.21H366l2.1,7.35,1.93-7.35h2.86l1.86,7.35,2.14-7.35h2.92l-3.6,11.21h-2.84l-1.93-7.21-1.9,7.21h-2.88Zm-8-39.9H422.4a5.55,5.55,0,0,1,5.54,5.54v44.46a5.55,5.55,0,0,1-5.54,5.54H358.73a5.55,5.55,0,0,1-5.54-5.54v-44.46A5.55,5.55,0,0,1,358.73,3013.17Z" transform="translate(-329.13 -2979.5)"/></svg>