<svg id="Layer_1" data-name="Layer 1" xmlns="http://www.w3.org/2000/svg" viewBox="0 0 122.88 122.88"><defs><style>.cls-1{fill:violet;}.cls-1,.cls-2{fill-rule:evenodd;}.cls-2{fill:#fff;}</style></defs><title>22</title><path class="cls-1" d="M329.13,863H452V985.88H329.13V863" transform="translate(-329.13 -863)"/><path class="cls-2" d="M401.72,893.5a12.08,12.08,0,1,1-12.08,12.08,12.08,12.08,0,0,1,12.08-12.08m-27.45,16.87a9.7,9.7,0,1,1-9.7,9.7A9.7,9.7,0,0,1,374.27,910.37Zm0,21.68a21.07,21.07,0,0,1,21.07,21.07c-14,2.84-28.09,3.22-42.14,0A21.07,21.07,0,0,1,374.27,932Zm27.45-11.57a26.22,26.22,0,0,1,26.22,26.22,133.43,133.43,0,0,1-31.24,2.76,22.76,22.76,0,0,0-16.18-18.2A26.18,26.18,0,0,1,401.72,920.48Z" transform="translate(-329.13 -863)"/></svg>