<svg id="Layer_1" data-name="Layer 1" xmlns="http://www.w3.org/2000/svg" viewBox="0 0 122.88 122.88"><defs><style>.cls-1{fill:#6b8e23;}.cls-1,.cls-2{fill-rule:evenodd;}.cls-2{fill:#fff;}</style></defs><title>35</title><path class="cls-1" d="M837.29,1215.75H960.17v122.88H837.29V1215.75" transform="translate(-837.29 -1215.75)"/><path class="cls-2" d="M928.59,1261.74l-27.85,26.72-13.81-14.39,27.85-26.72Zm0.29-19.67,5.57,5.8a6,6,0,0,1-.17,8.41l-1.86,1.78-13.81-14.39,1.86-1.78A6,6,0,0,1,928.88,1242.07Zm-49,52.55,9.1-1.82,9.1-1.82-6.9-7.19-6.9-7.19-2.2,9Zm-15-41.92h39.43l-8.55,8.2H869.56v45h44.06v-25.15l8.2-7.87v37.69a3.55,3.55,0,0,1-3.54,3.54H864.9a3.55,3.55,0,0,1-3.54-3.54v-54.35A3.55,3.55,0,0,1,864.9,1252.71Z" transform="translate(-837.29 -1215.75)"/></svg>