<svg id="Layer_1" data-name="Layer 1" xmlns="http://www.w3.org/2000/svg" viewBox="0 0 122.88 122.88"><defs><style>.cls-1{fill:#ff69b4;}.cls-1,.cls-2{fill-rule:evenodd;}.cls-2{fill:#fff;}</style></defs><title>26</title><path class="cls-1" d="M159.74,1039.38H282.62v122.88H159.74V1039.38" transform="translate(-159.74 -1039.38)"/><path class="cls-2" d="M198.34,1103.66h45.08a3.92,3.92,0,0,1,3.91,3.91h0a3.92,3.92,0,0,1-3.91,3.91H198.34a3.92,3.92,0,0,1-3.91-3.91h0a3.92,3.92,0,0,1,3.91-3.91M229,1116.95h14.43a3.92,3.92,0,0,1,3.91,3.91h0a3.92,3.92,0,0,1-3.91,3.91H229a3.92,3.92,0,0,1-3.91-3.91h0A3.92,3.92,0,0,1,229,1116.95Zm-30.66-39.87h22.54a3.92,3.92,0,0,1,3.91,3.91h0a3.92,3.92,0,0,1-3.91,3.91H198.34a3.92,3.92,0,0,1-3.91-3.91h0A3.92,3.92,0,0,1,198.34,1077.07Zm0,13.29h45.08a3.92,3.92,0,0,1,3.91,3.91h0a3.92,3.92,0,0,1-3.91,3.91H198.34a3.92,3.92,0,0,1-3.91-3.91h0A3.92,3.92,0,0,1,198.34,1090.37Zm-7.51-26.52h60.71a7,7,0,0,1,7,7v59.91a7,7,0,0,1-7,7H190.82a7,7,0,0,1-7-7v-59.91A7,7,0,0,1,190.82,1063.85Z" transform="translate(-159.74 -1039.38)"/></svg>