<svg id="Layer_1" data-name="Layer 1" xmlns="http://www.w3.org/2000/svg" viewBox="0 0 122.88 122.88"><defs><style>.cls-1{fill:#b2d1c1;}.cls-1,.cls-2{fill-rule:evenodd;}.cls-2{fill:#fff;}</style></defs><title>29</title><path class="cls-1" d="M667.9,1039.38H790.78v122.88H667.9V1039.38" transform="translate(-667.9 -1039.38)"/><path class="cls-2" d="M722.33,1080.44l9.92,9.92h-9.92v-9.92Zm-4.42,0H720v12.21h14.42V1097q-0.32.31-.67,0.61A11.71,11.71,0,0,1,717.91,1080.44Zm-1.1-2.9a14.59,14.59,0,1,1-1.72,20.56A14.59,14.59,0,0,1,716.81,1077.54Zm26.35,24.54,3.38,4,1.21-1a1,1,0,0,1,1.38.11l16.33,19.31a3.53,3.53,0,0,1-.41,5l-5.06,4.28a3.53,3.53,0,0,1-5-.41L738.69,1114a1,1,0,0,1,.12-1.38l1.21-1-3.38-4A21.59,21.59,0,1,1,743.16,1102.07Zm-49.44-21.64h9.47a24.47,24.47,0,0,0,31.27,31.29v15.71a1.33,1.33,0,0,1-1.33,1.33H693.72a1.33,1.33,0,0,1-1.33-1.33v-45.67A1.33,1.33,0,0,1,693.72,1080.44Z" transform="translate(-667.9 -1039.38)"/></svg>