<svg id="Layer_1" data-name="Layer 1" xmlns="http://www.w3.org/2000/svg" viewBox="0 0 122.88 122.88"><defs><style>.cls-1{fill:#20b2aa;}.cls-1,.cls-2{fill-rule:evenodd;}.cls-2{fill:#fff;}</style></defs><title>27</title><path class="cls-1" d="M329.13,1039.38H452v122.88H329.13V1039.38" transform="translate(-329.13 -1039.38)"/><path class="cls-2" d="M404.67,1062.57l15.7,15.7h-15.7v-15.7Zm-17.82,57.11,7.82-2,0,0.06A4.27,4.27,0,1,1,386.84,1119.67Zm5.29-31.28h0a3.49,3.49,0,0,1,4.81,1l13.47,21a3.49,3.49,0,0,1-1,4.81h0a3.49,3.49,0,0,1-4.17-.31l-8.73,2.27a6.06,6.06,0,1,1-11.42,3l-3.48.91a3,3,0,0,1-5.28,2.67l-5.64-8.78a3,3,0,0,1,4.63-3.69l2.31-2.83,13.11-16.1A3.49,3.49,0,0,1,392.14,1088.39Zm-32.77-25.82H401v19.33h22.83V1137a2.11,2.11,0,0,1-2.1,2.1h-62.4a2.11,2.11,0,0,1-2.1-2.1v-72.3A2.11,2.11,0,0,1,359.37,1062.57Z" transform="translate(-329.13 -1039.38)"/></svg>