<svg id="Layer_1" data-name="Layer 1" xmlns="http://www.w3.org/2000/svg" viewBox="0 0 122.88 122.88"><defs><style>.cls-1{fill:#cc3;}.cls-1,.cls-2{fill-rule:evenodd;}.cls-2{fill:#fff;}</style></defs><title>67</title><path class="cls-1" d="M329.13,2450.37H452v122.88H329.13V2450.37" transform="translate(-329.13 -2450.37)"/><path class="cls-2" d="M402.07,2545.08c0.51,0.42,1,.91,1.57,1.32a11,11,0,0,0,3.93,1.54,24.13,24.13,0,0,0,4.58.55c1.15,0,1.59-.2,2.86-2.12a68.82,68.82,0,0,0,5.2-9.79,65.76,65.76,0,0,0,4.18-13,26.19,26.19,0,0,0,.4-8.49c-0.25-1.59-.65-1.79-2.47-2.07s-5.05-.62-7-0.72a11.62,11.62,0,0,0-3.46.2l-0.41.08c-0.78,14.23-6.31,26.62-9.35,32.46m-24-47.81a9.7,9.7,0,0,1,.54,5,4.3,4.3,0,0,1-3.25,3.49,22,22,0,0,1-7.47.35c-2.24-.22-3.54-0.62-5.25-0.42a10.47,10.47,0,0,0-5.08,2,4,4,0,0,0-1.44,3.46,5.2,5.2,0,0,0,1,2.76c0.52,0.7,1.12,1.15,1.42,1.54a1.12,1.12,0,0,1-.15,1.47,10.2,10.2,0,0,0-1.64,3.14,5.53,5.53,0,0,0,.72,4c0.72,1.15,1.87,1.89,2.14,2.84s-0.32,2.09-.37,3.41a6.67,6.67,0,0,0,1.29,4c0.85,1.17,2,2,2.64,3.11s0.6,2.44,1,3.93a5.81,5.81,0,0,0,3.16,4.13c2,1,5.38,1.34,8.69,1.42a53,53,0,0,0,10-.7c3.44-.57,7-1.52,9.59-2a20.69,20.69,0,0,1,2.3-.29c2.82-5.24,8.87-18.09,9.36-32.79a8.41,8.41,0,0,1-1.63-1.76c-1-1.47-1.49-3.36-2.84-5.35s-3.54-4.08-6.95-7-8-6.8-11.16-9.86a29.76,29.76,0,0,1-5.73-7.27c-1-1.92-1.47-3.46-2.07-4.21s-1.34-.7-2.19,0a7.83,7.83,0,0,0-2.22,4.18,15.24,15.24,0,0,0,.3,6.82,24,24,0,0,0,2.78,6A26.62,26.62,0,0,1,378.11,2497.27Z" transform="translate(-329.13 -2450.37)"/></svg>