<?xml version="1.0" encoding="utf-8"?>
<!-- Generator: Adobe Illustrator 19.0.0, SVG Export Plug-In . SVG Version: 6.00 Build 0)  -->
<svg version="1.1" id="Shape_1_1_" xmlns="http://www.w3.org/2000/svg" xmlns:xlink="http://www.w3.org/1999/xlink" x="0px" y="0px"
	 viewBox="150 -150 653.1 653" style="enable-background:new 150 -150 653.1 653;" xml:space="preserve">
<style type="text/css">
	.st0{fill:#2ECC71;}
</style>
<g>
	<path class="st0" d="M150.1-150v653h653v-653H150.1z M476.6,348.3c-94.5,0-171.8-77.3-171.8-171.8S382.1,4.7,476.6,4.7
		S648.4,82,648.4,176.5S571.1,348.3,476.6,348.3z"/>
	<path class="st0" d="M476.6,35.6c-77.3,0-140.9,63.6-140.9,140.9s63.6,140.9,140.9,140.9s140.9-63.6,140.9-140.9
		C617.5,99.2,553.9,35.6,476.6,35.6z M507.5,284.8h-61.9c-8.6,0-15.5-6.9-15.5-15.5c0-8.6,6.9-15.5,15.5-15.5h61.9
		c8.6,0,15.5,6.9,15.5,15.5C523,277.9,516.1,284.8,507.5,284.8z M547.1,159.3l-60.1,60.1c-3.4,3.4-6.9,5.2-10.3,5.2
		s-8.6-1.7-10.3-5.2l-60.1-60.1c-6.9-6.9-6.9-15.5,0-22.3c6.9-6.9,15.5-6.9,22.3,0l32.6,32.6V82c0-8.6,6.9-15.5,15.5-15.5
		s15.5,6.9,15.5,15.5v87.6l32.6-32.6c6.9-6.9,15.5-6.9,22.3,0C553.9,142.1,553.9,152.4,547.1,159.3z"/>
</g>
</svg>
