<svg id="Layer_1" data-name="Layer 1" xmlns="http://www.w3.org/2000/svg" viewBox="0 0 122.88 122.88"><defs><style>.cls-1{fill:#b8860b;}.cls-1,.cls-2{fill-rule:evenodd;}.cls-2{fill:#fff;}</style></defs><title>41</title><path class="cls-1" d="M159.74,1568.5H282.62v122.88H159.74V1568.5" transform="translate(-159.74 -1568.5)"/><path class="cls-2" d="M221.18,1656.5a3.42,3.42,0,1,1-3.42,3.42,3.42,3.42,0,0,1,3.42-3.42m-17.49-26.7h35v5.47h-35v-5.47Zm0,11.79h35v5.47h-35v-5.47Zm0-35.37h17.79v5.47H203.69v-5.47Zm0,11.79h26.86v5.47H203.69V1618Zm22.78-25.44h12.2V1618l-7.82-10.6-4.38,4.28v-19.12Zm-30.81,0h25.83v7.08H198.71v54h44.94v-61.06h3.05a4.16,4.16,0,0,1,4.15,4.15v66.43a4.16,4.16,0,0,1-4.15,4.15h-51a4.16,4.16,0,0,1-4.15-4.15v-66.43A4.16,4.16,0,0,1,195.65,1592.57Z" transform="translate(-159.74 -1568.5)"/></svg>