<svg id="Layer_1" data-name="Layer 1" xmlns="http://www.w3.org/2000/svg" viewBox="0 0 122.88 122.88"><defs><style>.cls-1{fill:orange;}.cls-1,.cls-2{fill-rule:evenodd;}.cls-2{fill:#fff;}</style></defs><title>44</title><path class="cls-1" d="M667.9,1568.5H790.78v122.88H667.9V1568.5" transform="translate(-667.9 -1568.5)"/><path class="cls-2" d="M729.77,1625.89c1.86,0,2.36,1.65,2.36,3.15,0,1.93-1,4.87-3.58,4.87-1.86,0-2.29-1.61-2.29-2.76,0-2.29,1.25-5.27,3.51-5.27m-37.1,26.57a3.72,3.72,0,0,1-.32-1.52v-38.42l23.51,17.81Zm70.19,2.22h-67l21-20.09c1.73,5.25,6.51,8.67,13,8.67a15,15,0,0,0,11.14-4.33l-2-2.15a12.08,12.08,0,0,1-8.85,3.51c-6.16,0-10.53-4-10.53-10.28,0-5.95,4.08-10.49,10.14-10.49,5.55,0,9.56,3.12,9.56,8.88,0,3.37-1.36,5.55-3.22,5.55-0.9,0-1.15-.61-1.15-1.43a14.89,14.89,0,0,1,.32-2.26l1.4-6.77H733.5l-0.29,1.43h0c-0.36-1.11-1.68-2-3.51-2-4.19,0-7,4.08-7,8.13,0,3.44,1.86,5.8,5.09,5.8a5.16,5.16,0,0,0,4.37-2.4h0.18c0,1.36,1.25,2.4,3.15,2.4a6.6,6.6,0,0,0,5.57-3.06Zm3.49-42.17v38.42a3.72,3.72,0,0,1-.32,1.52l-23.18-22.14Zm-70.24-7.33h66.49a3.77,3.77,0,0,1,3.6,2.69l-23.84,18.06c-1.05-6.24-6.63-9.32-12.5-9.32a13.47,13.47,0,0,0-13.15,9.59l-24.19-18.33A3.77,3.77,0,0,1,696.1,1605.19Z" transform="translate(-667.9 -1568.5)"/></svg>