<svg id="Layer_1" data-name="Layer 1" xmlns="http://www.w3.org/2000/svg" viewBox="0 0 122.88 122.88"><defs><style>.cls-1{fill:#948b67;}.cls-1,.cls-2{fill-rule:evenodd;}.cls-2{fill:#fff;}</style></defs><title>47</title><path class="cls-1" d="M329.13,1744.88H452v122.88H329.13V1744.88" transform="translate(-329.13 -1744.88)"/><path class="cls-2" d="M383.09,1812.63l6.56,2.16v0.06a3.65,3.65,0,1,1-6.56-2.22m7.47-29.78a23.46,23.46,0,1,1-23.46,23.46A23.46,23.46,0,0,1,390.57,1782.86Zm-37.37,27.65v-8.38a3.15,3.15,0,0,1,3.14-3.14h3.3a31.6,31.6,0,0,1,3.88-9.35l-2.33-2.33a3.15,3.15,0,0,1,0-4.45l5.93-5.93a3.15,3.15,0,0,1,4.45,0l2.33,2.33a31.61,31.61,0,0,1,9.35-3.88v-3.3a3.15,3.15,0,0,1,3.14-3.14h8.38a3.15,3.15,0,0,1,3.14,3.14v3.3a31.6,31.6,0,0,1,9.35,3.88l2.33-2.33a3.15,3.15,0,0,1,4.45,0l5.93,5.93a3.15,3.15,0,0,1,0,4.45l-2.33,2.33a31.61,31.61,0,0,1,3.88,9.35h3.3a3.15,3.15,0,0,1,3.14,3.14v8.38a3.15,3.15,0,0,1-3.14,3.14h-3.3a31.6,31.6,0,0,1-3.88,9.35l2.33,2.33a3.15,3.15,0,0,1,0,4.45L414,1835.7a3.15,3.15,0,0,1-4.45,0l-2.33-2.33a31.61,31.61,0,0,1-9.35,3.88v3.3a3.15,3.15,0,0,1-3.14,3.14h-8.38a3.15,3.15,0,0,1-3.14-3.14v-3.3a31.6,31.6,0,0,1-9.35-3.88l-2.33,2.33a3.15,3.15,0,0,1-4.45,0l-5.93-5.93a3.15,3.15,0,0,1,0-4.45l2.33-2.33a31.61,31.61,0,0,1-3.88-9.35h-3.3A3.15,3.15,0,0,1,353.2,1810.51Zm48.2-17.9h0a3,3,0,0,1,3,3l0,21.31a3,3,0,0,1-5.84.81l-7.33-2.41a5.18,5.18,0,1,1-9.58-3.15l-2.92-1a2.54,2.54,0,0,1-5-.52v-8.93a2.54,2.54,0,0,1,5-.51l3-1,16.89-5.5A3,3,0,0,1,401.39,1792.6Z" transform="translate(-329.13 -1744.88)"/></svg>