<svg id="Layer_1" data-name="Layer 1" xmlns="http://www.w3.org/2000/svg" viewBox="0 0 122.88 122.88"><defs><style>.cls-1{fill:#00ced1;}.cls-1,.cls-2{fill-rule:evenodd;}.cls-2{fill:#fff;}</style></defs><title>52</title><path class="cls-1" d="M329.13,1921.25H452v122.88H329.13V1921.25" transform="translate(-329.13 -1921.25)"/><path class="cls-2" d="M360,1971.73h61.18v40.69H360v-40.69Zm9,22.94h10.53v10.68H369v-10.68Zm32.61,0h10.53v10.68H401.6v-10.68Zm0-15.87h10.53v10.68H401.6v-10.68Zm-16.3,15.87h10.53v10.68H385.3v-10.68Zm0-15.87h10.53v10.68H385.3v-10.68Zm-16.3,0h10.53v10.68H369v-10.68Zm43.79-32.61h0a3.47,3.47,0,0,1,3.46,3.46v8.08a3.46,3.46,0,1,1-6.93,0v-8.08A3.47,3.47,0,0,1,412.79,1946.19Zm-44.44,0h0a3.47,3.47,0,0,1,3.46,3.46v8.08a3.46,3.46,0,1,1-6.93,0v-8.08A3.47,3.47,0,0,1,368.35,1946.19Zm-15.15,8.37h9.09v3.17a6.06,6.06,0,0,0,12.12,0v-3.17h32.32v3.17a6.06,6.06,0,0,0,12.12,0v-3.17h9.09v64.64H353.2v-64.64Z" transform="translate(-329.13 -1921.25)"/></svg>