<svg id="Layer_1" data-name="Layer 1" xmlns="http://www.w3.org/2000/svg" viewBox="0 0 122.88 122.88"><defs><style>.cls-1{fill:salmon;}.cls-1,.cls-2{fill-rule:evenodd;}.cls-2{fill:#fff;}</style></defs><title>32</title><path class="cls-1" d="M329.13,1215.75H452v122.88H329.13V1215.75" transform="translate(-329.13 -1215.75)"/><path class="cls-2" d="M387.79,1247.87H425a2.83,2.83,0,0,1,2.82,2.82v24.08a2.83,2.83,0,0,1-2.82,2.82H413.22v8.06l-8.74-8.06H387.79a2.83,2.83,0,0,1-2.82-2.82V1250.7a2.83,2.83,0,0,1,2.82-2.82M382,1261.72H356.66a3.36,3.36,0,0,0-3.35,3.35v28.55a3.36,3.36,0,0,0,3.35,3.35h14v9.55L381,1297h19.78a3.36,3.36,0,0,0,3.35-3.35v-12.33l-0.78-.72H387.79a5.79,5.79,0,0,1-5.78-5.78v-13.07Z" transform="translate(-329.13 -1215.75)"/></svg>