<svg id="Layer_1" data-name="Layer 1" xmlns="http://www.w3.org/2000/svg" viewBox="0 0 122.88 122.88"><defs><style>.cls-1{fill:#da4b42;}.cls-1,.cls-2{fill-rule:evenodd;}.cls-2{fill:#fff;}</style></defs><title>71</title><path class="cls-1" d="M159.74,2626.75H282.62v122.88H159.74V2626.75" transform="translate(-159.74 -2626.75)"/><path class="cls-2" d="M236.37,2684.17h8.35v-8.35h5.65v8.35h8.35v5.65h-8.35v8.35h-5.65v-8.35h-8.35v-5.65Zm-28.87-19.83a23.76,23.76,0,0,1,16,6.19l-6.48,7-0.21.32a13.93,13.93,0,1,0,3.77,15.12H208v-9.49h22.88a24,24,0,0,1,0,9.43V2693h0A23.85,23.85,0,1,1,207.5,2664.34Z" transform="translate(-159.74 -2626.75)"/></svg>