<svg id="Layer_1" data-name="Layer 1" xmlns="http://www.w3.org/2000/svg" viewBox="0 0 122.88 122.88"><defs><style>.cls-1{fill:#b22222;}.cls-1,.cls-2{fill-rule:evenodd;}.cls-2{fill:#fff;}</style></defs><title>37</title><path class="cls-1" d="M329.13,1392.13H452V1515H329.13V1392.13" transform="translate(-329.13 -1392.13)"/><path class="cls-2" d="M357.56,1432.23h57.16v42.52H357.56v-42.52Zm11.37-4.36h37.6l0.24-2.39-37.22-3.75ZM419.09,1443v36.13H369.87l0.48,6.4,52.91-3.93-2.88-38.7ZM375,1444.05a11.6,11.6,0,0,1,2.17.2l-1,10.57,9.3-4A11.55,11.55,0,1,1,375,1444.05Zm6-4.58a11.17,11.17,0,0,1,8,6.31l-9,3.89Zm13.95,23h12.11a1.52,1.52,0,0,1,1.51,1.51h0a1.52,1.52,0,0,1-1.51,1.51H395a1.52,1.52,0,0,1-1.51-1.51h0A1.52,1.52,0,0,1,395,1462.5Zm0-8.91h12.11a1.52,1.52,0,0,1,1.51,1.51h0a1.52,1.52,0,0,1-1.51,1.51H395a1.52,1.52,0,0,1-1.51-1.51h0A1.52,1.52,0,0,1,395,1453.59Zm0-8.9h12.11a1.52,1.52,0,0,1,1.51,1.51h0a1.52,1.52,0,0,1-1.51,1.51H395a1.52,1.52,0,0,1-1.51-1.51h0A1.52,1.52,0,0,1,395,1444.69Zm-41.78-16.82h11.35l1.1-10.92,45.9,4.63-0.63,6.29h8.17v10.74l5.32-.4,3.52,47.4-61.62,4.58-0.82-11.08H353.2v-51.25Z" transform="translate(-329.13 -1392.13)"/></svg>