<svg id="Layer_1" data-name="Layer 1" xmlns="http://www.w3.org/2000/svg" viewBox="0 0 122.88 122.88"><defs><style>.cls-1{fill:#dbdbab;}.cls-1,.cls-2{fill-rule:evenodd;}.cls-2{fill:#fff;}</style></defs><title>21</title><path class="cls-1" d="M159.74,863H282.62V985.88H159.74V863" transform="translate(-159.74 -863)"/><path class="cls-2" d="M220.69,956.25a1.81,1.81,0,1,1-1.81,1.81,1.81,1.81,0,0,1,1.81-1.81m-22.46-63.08h45.9V954.3h-45.9V893.17Zm30.09,28.19a0.7,0.7,0,0,0-.79-0.79h-2.38v6.35h2.38a0.7,0.7,0,0,0,.79-0.79v-4.76Zm-0.79-3.17q3.17,0,3.17,3.17v4.76q0,3.17-3.17,3.17h-4.76V918.18h4.76Zm-12,6.35h2.63l-1.32-4Zm6.47,4.76h-2.38l-0.74-2.38h-4.08L214,929.29h-2.38L215,918.18h3.65Zm-16-20.54h25.61a4.65,4.65,0,0,0,4.52,5.7h0.31v24.29H206v-30Zm28.34-.12,0.61-.61,1.18,1.18,1.18-1.18,0.61,0.61-1.18,1.18,1.18,1.18-0.61.61-1.18-1.18-1.18,1.18L234.3,911l1.18-1.18Zm1.78-2.13a3.31,3.31,0,1,1-3.31,3.31A3.31,3.31,0,0,1,236.09,906.5Zm-37.35-19.42h44.88a3.26,3.26,0,0,1,3.25,3.25v68.24a3.26,3.26,0,0,1-3.25,3.25H198.74a3.26,3.26,0,0,1-3.25-3.25V890.32A3.26,3.26,0,0,1,198.74,887.07Z" transform="translate(-159.74 -863)"/></svg>