<svg id="Layer_1" data-name="Layer 1" xmlns="http://www.w3.org/2000/svg" viewBox="0 0 122.88 122.88"><defs><style>.cls-1{fill:#0000ad;}.cls-1,.cls-2{fill-rule:evenodd;}.cls-2{fill:#fff;}</style></defs><title>18</title><path class="cls-1" d="M498.51,686.63H621.39V809.51H498.51V686.63" transform="translate(-498.51 -686.63)"/><path class="cls-2" d="M551.94,715.12h16a1.25,1.25,0,0,1,0,2.5h-16a1.25,1.25,0,1,1,0-2.5m8,61.08a3.43,3.43,0,1,1-3.43,3.43A3.43,3.43,0,0,1,560,776.2Zm-18.71-54.47h37.41V774.4H541.25V721.74Zm13.13,22.67h3.37v9.39h-3.37v-9.39Zm7.78-.58h3.37v10h-3.37v-10Zm7.78-1.49h3.37V753.8h-3.37V742.34Zm-23.35,1.2H550V753.8h-3.37V743.54Zm-5.34-32.77h37.41a4.48,4.48,0,0,1,4.47,4.47V780.9a4.48,4.48,0,0,1-4.47,4.47H541.25a4.48,4.48,0,0,1-4.47-4.47V715.24A4.48,4.48,0,0,1,541.25,710.78Z" transform="translate(-498.51 -686.63)"/></svg>