<svg id="Layer_1" data-name="Layer 1" xmlns="http://www.w3.org/2000/svg" viewBox="0 0 122.88 122.88"><defs><style>.cls-1{fill:#ffa07a;}.cls-1,.cls-2{fill-rule:evenodd;}.cls-2{fill:#fff;}</style></defs><title>75</title><path class="cls-1" d="M837.29,2626.75H960.17v122.88H837.29V2626.75" transform="translate(-837.29 -2626.75)"/><path class="cls-2" d="M882.41,2705h0ZM917,2727.86h0Zm0-37.41a18.7,18.7,0,0,1,13.46,31.69v-0.95a6.11,6.11,0,0,0-6.09-6.09h-2.32l-2.2,2.25-2.86,2.93-2.86-2.93-2.2-2.25h-2.32a6.11,6.11,0,0,0-6.09,6.09v0.95a18.73,18.73,0,0,1-4.13-19.34l-2.37-1.63v-3.39a6.66,6.66,0,0,0-6.64-6.64h-2.52l-2.39,2.46-3.11,3.2-3.11-3.2-2.39-2.46h-2.52a6.66,6.66,0,0,0-6.64,6.64v1.15A20.66,20.66,0,1,1,899,2672.1l5-3.4a15.93,15.93,0,1,1,26.24,7.38V2675a4.94,4.94,0,0,0-4.93-4.93h-1.87l-1.78,1.82-2.31,2.37-2.31-2.37-1.78-1.82h-1.87a4.94,4.94,0,0,0-4.93,4.93v1.09a16,16,0,0,1-3-3.73l-4.55,3.07a20.68,20.68,0,0,1-2.58,22l2.71,1.87A18.69,18.69,0,0,1,917,2690.45Zm0,10.81a6.67,6.67,0,1,1-6.67,6.67A6.67,6.67,0,0,1,917,2701.26Zm2.36-42.39a5.39,5.39,0,1,1-5.39,5.39A5.39,5.39,0,0,1,919.39,2658.87Zm-37,17.19a7.27,7.27,0,1,1-7.27,7.27A7.27,7.27,0,0,1,882.39,2676.06Z" transform="translate(-837.29 -2626.75)"/></svg>