<svg id="Layer_1" data-name="Layer 1" xmlns="http://www.w3.org/2000/svg" viewBox="0 0 122.88 122.88"><defs><style>.cls-1{fill:#a7755c;}.cls-1,.cls-2{fill-rule:evenodd;}.cls-2{fill:#fff;}</style></defs><title>70</title><path class="cls-1" d="M837.29,2450.37H960.17v122.88H837.29V2450.37" transform="translate(-837.29 -2450.37)"/><path class="cls-2" d="M929.29,2503.8v30.06a8.54,8.54,0,0,1-8.52,8.52H876.68a8.54,8.54,0,0,1-8.52-8.52V2503.8h12.36a19.79,19.79,0,1,0,36.42,0h12.35ZM914,2483.25h13.28v12.53H914v-12.53Zm-15.28,15.28a13,13,0,1,1-13,13A13,13,0,0,1,898.73,2498.54Zm-22-24.09h44.09a15.37,15.37,0,0,1,15.32,15.32v44.09a15.37,15.37,0,0,1-15.32,15.32H876.68a15.37,15.37,0,0,1-15.32-15.32v-44.09A15.37,15.37,0,0,1,876.68,2474.44Z" transform="translate(-837.29 -2450.37)"/></svg>