<?xml version="1.0" encoding="utf-8"?>
<!-- Generator: Adobe Illustrator 19.0.0, SVG Export Plug-In . SVG Version: 6.00 Build 0)  -->
<svg version="1.1" id="Forma_1_1_" xmlns="http://www.w3.org/2000/svg" xmlns:xlink="http://www.w3.org/1999/xlink" x="0px" y="0px"
	 viewBox="48 -56 472.6 472.5" style="enable-background:new 48 -56 472.6 472.5;" xml:space="preserve">
<style type="text/css">
	.st0{fill:#8560A8;}
</style>
<g>
	<path class="st0" d="M337.1,111.2c0,3.6-3.6,7.3-7.3,7.3h-89c-3.6,0-7.3-3.6-7.3-7.3V98.5H208v181.7h152.7V98.5h-23.6V111.2z
		 M286.2,245.7h-54.5c-3.6,0-7.3-3.6-7.3-7.3s3.6-7.3,7.3-7.3h54.5c3.6,0,7.3,3.6,7.3,7.3S289.8,245.7,286.2,245.7z M338.9,209.3
		H231.6c-3.6,0-7.3-3.6-7.3-7.3c0-3.6,3.6-7.3,7.3-7.3h107.2c3.6,0,7.3,3.6,7.3,7.3C346.1,205.7,344.3,209.3,338.9,209.3z
		 M346.1,165.7c0,3.6-3.6,7.3-7.3,7.3H231.6c-3.6,0-7.3-3.6-7.3-7.3c0-3.6,3.6-7.3,7.3-7.3h107.2
		C344.3,158.4,346.1,162.1,346.1,165.7z"/>
	<polygon class="st0" points="322.5,91.2 322.5,80.3 248,80.3 248,91.2 248,103.9 322.5,103.9 	"/>
	<path class="st0" d="M48.1-56v472.5h472.5V-56H48.1z M375.2,287.5c0,3.6-3.6,7.3-7.3,7.3H200.8c-3.6,0-7.3-3.6-7.3-7.3V91.2
		c0-3.6,3.6-7.3,7.3-7.3h32.7V73c0-3.6,3.6-7.3,7.3-7.3h89c3.6,0,7.3,3.6,7.3,7.3v10.9h29.1c3.6,0,7.3,3.6,7.3,7.3v196.3H375.2z"/>
</g>
</svg>
