<svg id="Layer_1" data-name="Layer 1" xmlns="http://www.w3.org/2000/svg" viewBox="0 0 122.88 122.88"><defs><style>.cls-1{fill:navy;}.cls-1,.cls-2{fill-rule:evenodd;}.cls-2{fill:#fff;}</style></defs><title>12</title><path class="cls-1" d="M329.13,510.26H452V633.14H329.13V510.26" transform="translate(-329.13 -510.26)"/><path class="cls-2" d="M387.79,562.3a56.92,56.92,0,0,0,4.58,10.33,41.65,41.65,0,0,0,6.77-8.91,71.09,71.09,0,0,1-11.35-1.42m-3.19-23.25c-0.43,2.68-.36,9.93,1.82,18.55a66.78,66.78,0,0,0,14.86,1.88A61.4,61.4,0,0,0,405.82,543a31.59,31.59,0,0,0-16.07-4.36A31.94,31.94,0,0,0,384.6,539.06ZM362.36,556a6.73,6.73,0,0,1-.66-0.42,31.78,31.78,0,0,0-.16,29.4,44.61,44.61,0,0,0,6.69-.53A68.37,68.37,0,0,1,362.36,556Zm6.75-.29a6.47,6.47,0,0,1-2.47,1,63.37,63.37,0,0,0,5.92,26.89,42.91,42.91,0,0,0,16.54-8,61.66,61.66,0,0,1-5.81-13.21q-0.19-.62-0.37-1.23A72.64,72.64,0,0,1,369.11,555.66ZM370,545.55a6.51,6.51,0,0,1,1.73,6.63,67.65,67.65,0,0,0,10,4.11,64,64,0,0,1-1.42-16.22A31.65,31.65,0,0,0,370,545.55Zm44.46,12.81a6.49,6.49,0,0,1,2.24-4.79,31.9,31.9,0,0,0-6.92-7.83A66.57,66.57,0,0,1,406,559.38,67.83,67.83,0,0,0,414.43,558.36Zm2.22,5a6.63,6.63,0,0,1-.85-0.9,71.86,71.86,0,0,1-11.74,1.28,45.76,45.76,0,0,1-9.3,12.65,44.9,44.9,0,0,0,8.93,9.53A68.81,68.81,0,0,0,416.66,563.38ZM421,565h-0.39a73.07,73.07,0,0,1-13.46,23.46,44.84,44.84,0,0,0,6.07,3.27h0A31.79,31.79,0,0,0,421,565ZM377.81,599.8l0.12-.24a62.37,62.37,0,0,1-7.71-11.13,53,53,0,0,1-6.07.72A31.84,31.84,0,0,0,377.81,599.8Zm12.31,1.8c0,0.17,0,.35.06,0.53a31.61,31.61,0,0,0,19.74-7.23,48.92,48.92,0,0,1-5.73-3.27A52.26,52.26,0,0,1,390.12,601.59Zm-6.43-5.53a6.48,6.48,0,0,1,4.44,1.76,47.31,47.31,0,0,0,12.56-8.76,49,49,0,0,1-9.21-9.83,47.11,47.11,0,0,1-16.89,8.23,58.21,58.21,0,0,0,6.47,9.15A6.47,6.47,0,0,1,383.69,596.06Zm6.06-61.74a36,36,0,0,1,31,17.66h0.17a6.5,6.5,0,0,1,4.2,11.46,36.07,36.07,0,0,1-35.38,43h-0.83a6.5,6.5,0,0,1-11.51-2.16,36.07,36.07,0,0,1-18.32-52.86,6.51,6.51,0,0,1,6.35-7.65A35.92,35.92,0,0,1,389.75,534.33Z" transform="translate(-329.13 -510.26)"/></svg>