<svg id="Layer_1" data-name="Layer 1" xmlns="http://www.w3.org/2000/svg" viewBox="0 0 122.88 122.88"><defs><style>.cls-1{fill:#708090;}.cls-1,.cls-2{fill-rule:evenodd;}.cls-2{fill:#fff;}</style></defs><title>83</title><path class="cls-1" d="M498.51,2979.5H621.39v122.88H498.51V2979.5" transform="translate(-498.51 -2979.5)"/><path class="cls-2" d="M533.45,3021.82h53.44v35.78H533.45v-35.78Zm22.09,38.63h8.83a0.5,0.5,0,0,1,0,1h-8.83A0.5,0.5,0,0,1,555.54,3060.45Zm-4.2-20H569v3H551.34v-3Zm0-6H569v3H551.34v-3Zm0-6H569v3H551.34v-3ZM569,3047.59H557.82v3H569v-3Zm-19.68-23.37H571v31H549.33v-31Zm-16.88-4.86H587.9a1.46,1.46,0,0,1,1.45,1.45v37.79a1.44,1.44,0,0,1-.23.78h6.83a1.57,1.57,0,0,1,0,3.13H524a1.57,1.57,0,1,1,0-3.13h7.26a1.44,1.44,0,0,1-.23-0.78v-37.79A1.46,1.46,0,0,1,532.44,3019.36Z" transform="translate(-498.51 -2979.5)"/></svg>