<svg id="Layer_1" data-name="Layer 1" xmlns="http://www.w3.org/2000/svg" viewBox="0 0 122.88 122.88"><defs><style>.cls-1{fill:#0083be;fill-rule:evenodd;}.cls-2{fill:#fff;}</style></defs><title>73</title><path class="cls-1" d="M498.51,2626.75H621.39v122.88H498.51V2626.75" transform="translate(-498.51 -2626.75)"/><path class="cls-2" d="M523.34,2723.87v-51.73h14.43v51.73H523.34Zm7.21-72.32a7.61,7.61,0,1,1-8,7.59A7.82,7.82,0,0,1,530.55,2651.55Zm66.82,72.32H582.95v-26.36q0-8.37-.93-10.81a7.69,7.69,0,0,0-3-3.82,9.06,9.06,0,0,0-5.06-1.36,12.23,12.23,0,0,0-6.79,1.94,9.83,9.83,0,0,0-4.12,5.15q-1.13,3.21-1.12,11.88v23.39H547.46v-51.73h13.38v7.59a22.49,22.49,0,0,1,18.1-8.69,23.08,23.08,0,0,1,8.78,1.63,13.67,13.67,0,0,1,8.86,9.9,39.57,39.57,0,0,1,.81,9.19v32.11Z" transform="translate(-498.51 -2626.75)"/></svg>