<svg id="Layer_1" data-name="Layer 1" xmlns="http://www.w3.org/2000/svg" viewBox="0 0 122.88 122.88"><defs><style>.cls-1{fill:#096894;}.cls-1,.cls-2{fill-rule:evenodd;}.cls-2{fill:#fff;}</style></defs><title>74</title><path class="cls-1" d="M667.9,2626.75H790.78v122.88H667.9V2626.75" transform="translate(-667.9 -2626.75)"/><path class="cls-2" d="M715.95,2658.05h26.79a16.66,16.66,0,0,1,16.61,16.61v17.14a16.66,16.66,0,0,1-16.61,16.61H715.95a16.66,16.66,0,0,1-16.61-16.61v-17.14a16.66,16.66,0,0,1,16.61-16.61m1.81,43.66h-1.81a9.94,9.94,0,0,1-9.91-9.91V2687h11.72v14.73Zm17,0H723.92v-22.64h10.85v22.64Zm17.88-17.55v7.63a9.94,9.94,0,0,1-9.91,9.91h-1.81v-17.55h11.72Zm-23.31-21a6,6,0,1,1-6,6A6,6,0,0,1,729.34,2663.14Zm-17.45,8.71a6,6,0,1,1-6,6A6,6,0,0,1,711.9,2671.85Zm34.89-3.62a6,6,0,1,1-6,6A6,6,0,0,1,746.79,2668.23Zm-30.84-17.41h26.79a23.91,23.91,0,0,1,23.84,23.84v17.14a23.91,23.91,0,0,1-23.84,23.84H724l-12.77,9.91v-10.38a23.93,23.93,0,0,1-19.15-23.37v-17.14A23.91,23.91,0,0,1,715.95,2650.82Z" transform="translate(-667.9 -2626.75)"/></svg>