<?xml version="1.0" encoding="utf-8"?>
<!-- Generator: Adobe Illustrator 19.0.0, SVG Export Plug-In . SVG Version: 6.00 Build 0)  -->
<svg version="1.1" id="Forma_1_1_" xmlns="http://www.w3.org/2000/svg" xmlns:xlink="http://www.w3.org/1999/xlink" x="0px" y="0px"
	 viewBox="0 0 96.2 82.6" style="enable-background:new 0 0 96.2 82.6;" xml:space="preserve">
<style type="text/css">
	.st0{fill-rule:evenodd;clip-rule:evenodd;}
</style>
<g id="Forma_1">
	<g>
		<path fill="#273142" class="st0" d="M47,64.3H12.7c-1.3,0-2.3,1-2.3,2.3c0,1.3,1,2.3,2.3,2.3H47c1.3,0,2.3-1,2.3-2.3C49.2,65.3,48.2,64.3,47,64.3
			z M12.7,27h12c1.3,0,2.3-1,2.3-2.3v-12c0-1.3-1-2.3-2.3-2.3h-12c-1.3,0-2.3,1-2.3,2.3v12C10.4,26,11.4,27,12.7,27z M15,15h7.4v7.4
			H15V15z M12.7,48h28.9c1.3,0,2.3-1,2.3-2.3s-1-2.3-2.3-2.3H12.7c-1.3,0-2.3,1-2.3,2.3S11.4,48,12.7,48z M53.3,54.7H12.7
			c-1.3,0-2.3,1-2.3,2.3c0,1.3,1,2.3,2.3,2.3h40.6c1.3,0,2.3-1,2.3-2.3C55.6,55.7,54.6,54.7,53.3,54.7z M93.9,20.3h-8.5
			c-1.3,0-2.3,1-2.3,2.3c0,1.3,1,2.3,2.3,2.3h6.2v46.2c0,3.8-3.1,7-7,7c-3.8,0-7-3.1-7-7V14.5c0-8-6.5-14.5-14.5-14.5H2.3
			C1,0,0,1,0,2.3v65.8c0,8,6.5,14.5,14.5,14.5h49.4c0,0,0,0,0,0h20.8c6.4,0,11.6-5.2,11.6-11.6V22.6C96.2,21.3,95.2,20.3,93.9,20.3z
			 M62.8,78C62.8,78,62.8,78,62.8,78l-48.3,0c-5.5,0-9.9-4.4-9.9-9.9V4.6h58.6c5.5,0,9.9,4.4,9.9,9.9v56.6c0,2.6,0.9,5,2.3,7H62.8z
			 M59.7,11.6H39.6c-1.3,0-2.3,1-2.3,2.3s1,2.3,2.3,2.3h20.1c1.3,0,2.3-1,2.3-2.3S61,11.6,59.7,11.6z M50.1,25.8
			c1.3,0,2.3-1,2.3-2.3c0-1.3-1-2.3-2.3-2.3H39.6c-1.3,0-2.3,1-2.3,2.3c0,1.3,1,2.3,2.3,2.3H50.1z M59.7,33.7h-47
			c-1.3,0-2.3,1-2.3,2.3c0,1.3,1,2.3,2.3,2.3h47c1.3,0,2.3-1,2.3-2.3C62,34.7,61,33.7,59.7,33.7z"/>
	</g>
</g>
</svg>
