<svg id="Layer_1" data-name="Layer 1" xmlns="http://www.w3.org/2000/svg" viewBox="0 0 122.88 122.88"><defs><style>.cls-1{fill:#48d1cc;}.cls-1,.cls-2{fill-rule:evenodd;}.cls-2{fill:#fff;}</style></defs><title>45</title><path class="cls-1" d="M837.29,1568.5H960.17v122.88H837.29V1568.5" transform="translate(-837.29 -1568.5)"/><path class="cls-2" d="M897.86,1624.71l7.11-3.53,0,0a4.2,4.2,0,1,1-7.15,3.49m23.21,38.62-22.34-17.15-22.34,17.15h44.68Zm3.6-29-16.45,13.63,16.45,12.63v-26.25Zm-51.89,26.25,16.45-12.63-16.45-13.63v26.25Zm55.87-30.75v37.49H868.81v-37.49l8-8a6.57,6.57,0,0,0,1.66,4l-4.13,4.13,18.47,15.3,4.59-3.52,1.33-1,1.33,1,4.59,3.52,18.47-15.3-9.12-9.12,0.81-.4a7.13,7.13,0,0,0,4-.36Zm-32-36.27h0a3.43,3.43,0,0,1,4.84,0L918.66,1611a3.42,3.42,0,0,1-4.11,5.38l-7.94,3.95a6,6,0,1,1-10.38,5.16l-3.17,1.57a2.92,2.92,0,0,1-4.54,3.64l-7.2-7.31a2.92,2.92,0,0,1,3.71-4.48l1.65-3.19,9.36-18.14A3.43,3.43,0,0,1,896.64,1593.55Z" transform="translate(-837.29 -1568.5)"/></svg>