<svg id="Layer_1" data-name="Layer 1" xmlns="http://www.w3.org/2000/svg" viewBox="0 0 122.88 122.88"><defs><style>.cls-1{fill:silver;}.cls-1,.cls-2{fill-rule:evenodd;}.cls-2{fill:#fff;}</style></defs><title>63</title><path class="cls-1" d="M498.51,2274H621.39v122.88H498.51V2274" transform="translate(-498.51 -2274)"/><path class="cls-2" d="M541.77,2310.39h36.36v49.69H541.77v-49.69Zm2.22,5.76h31.91v11.72H544v-11.72Zm22.83,15.76h9.09v22.83h-9.09V2331.9Zm-2.32,20v2.78h-8.79V2352h8.79Zm0-6.92v3.48h-8.79V2345h8.79Zm0-6.92v3.48h-8.79v-3.48h8.79Zm-8.79-6.21h8.79v2.78h-8.79v-2.78Zm-2.32,20v2.78H544V2352h9.39Zm0-6.92v3.48H544V2345h9.39Zm0-6.92v3.48H544v-3.48h9.39ZM544,2331.9h9.39v2.78H544v-2.78Zm16,31a3.28,3.28,0,1,1-3.28,3.28A3.28,3.28,0,0,1,560,2362.93Zm-14-64.86H574a6.48,6.48,0,0,1,6.46,6.46v61.81a6.48,6.48,0,0,1-6.46,6.46H545.92a6.48,6.48,0,0,1-6.46-6.46v-61.81A6.48,6.48,0,0,1,545.92,2298.07Z" transform="translate(-498.51 -2274)"/></svg>