<svg id="Layer_1" data-name="Layer 1" xmlns="http://www.w3.org/2000/svg" viewBox="0 0 122.88 122.88"><defs><style>.cls-1{fill:#ebeb07;}.cls-1,.cls-2{fill-rule:evenodd;}.cls-2{fill:#fff;}</style></defs><title>17</title><path class="cls-1" d="M329.13,686.63H452V809.51H329.13V686.63" transform="translate(-329.13 -686.63)"/><path class="cls-2" d="M375.53,723.1H405.6v46.54H375.53V723.1Zm10.19-7.3h9.68v1.87h-9.68V715.8Zm4.84,58.94a3.4,3.4,0,1,1-3.4,3.4A3.4,3.4,0,0,1,390.57,774.74Zm-15.8-64h31.59a3.07,3.07,0,0,1,3.06,3.06v68.62a3.07,3.07,0,0,1-3.06,3.06H374.77a3.07,3.07,0,0,1-3.06-3.06V713.76A3.07,3.07,0,0,1,374.77,710.7Z" transform="translate(-329.13 -686.63)"/></svg>