<svg id="Layer_1" data-name="Layer 1" xmlns="http://www.w3.org/2000/svg" viewBox="0 0 122.88 122.88"><defs><style>.cls-1{fill:pink;}.cls-1,.cls-2{fill-rule:evenodd;}.cls-2{fill:#fff;}</style></defs><title>62</title><path class="cls-1" d="M329.13,2274H452v122.88H329.13V2274" transform="translate(-329.13 -2274)"/><path class="cls-2" d="M371.17,2302.92H410v59h-38.8v-59Zm19.4,14.71,5.28,14.82,5.28,14.82h-1.28a7.82,7.82,0,0,1-7-4.13l-2.28-4.12-2.28,4.13a7.82,7.82,0,0,1-7,4.13H380l5.28-14.82ZM388.32,2366h4.5a1.78,1.78,0,0,1,0,3.56h-4.5A1.78,1.78,0,1,1,388.32,2366ZM368,2298.07H413.1a1.72,1.72,0,0,1,1.71,1.71v71.32a1.72,1.72,0,0,1-1.71,1.71H368a1.72,1.72,0,0,1-1.71-1.71v-71.32A1.72,1.72,0,0,1,368,2298.07Z" transform="translate(-329.13 -2274)"/></svg>