<svg id="Layer_1" data-name="Layer 1" xmlns="http://www.w3.org/2000/svg" viewBox="0 0 122.88 122.88"><defs><style>.cls-1{fill:#999;}.cls-1,.cls-2{fill-rule:evenodd;}.cls-2{fill:#fff;}</style></defs><title>11</title><path class="cls-1" d="M159.74,510.26H282.62V633.14H159.74V510.26" transform="translate(-159.74 -510.26)"/><path class="cls-2" d="M238.19,572.65a12.64,12.64,0,0,0-1.15,1,7.23,7.23,0,0,1-1.45,1.38,8,8,0,0,1-2.29.81c-0.78.18-1.46,0.31-2.13,0.51a6.34,6.34,0,0,1-1.83.45,1.06,1.06,0,0,1-1-.78,1.47,1.47,0,0,1,.32-1.3,9.49,9.49,0,0,1,1.32-1.18,9.12,9.12,0,0,1,1.38-1.11,16.65,16.65,0,0,0,2.14-1.27,5.9,5.9,0,0,0,1.22-1.66,2.85,2.85,0,0,1,1-1.09,2.29,2.29,0,0,1,1.22-.17,2.38,2.38,0,0,1,1.39.39,2.73,2.73,0,0,1,1,1.53,2.22,2.22,0,0,1-.28,1.51,3.36,3.36,0,0,1-.84,1m-18.72,26.25a6.84,6.84,0,0,1,.13,1.47c0,0.52-.23,1.1-0.23,1.59a0.92,0.92,0,0,0,.7,1,2.68,2.68,0,0,0,2-.5,3.2,3.2,0,0,0,1.27-2.15,3.25,3.25,0,0,0-.67-2.34,2.54,2.54,0,0,0-1.73-.94,1.41,1.41,0,0,0-1.32.49A2,2,0,0,0,219.48,598.91ZM192.63,587a32.23,32.23,0,0,1-3.83-15.29q0-.79,0-1.57a16,16,0,0,0,1.38-2.62,2.09,2.09,0,0,1,1.55-1.21c0.71-.14,1.7-0.05,2.7-0.14a13.9,13.9,0,0,1,3.05-.2,8,8,0,0,1,3.31,1.53c1.26,0.85,2.75,2,3.84,2.66a3.7,3.7,0,0,0,2.44.64c0.67-.07,1.33-0.31,1.9-0.37a1.74,1.74,0,0,1,1.46.43,2.43,2.43,0,0,1,.81,1.57,1.15,1.15,0,0,1-.87,1.07,10.62,10.62,0,0,0-1.48.31,1,1,0,0,0-.51,1c0.07,0.32.42,0.47,1.06,0.38s1.58-.41,2.18-0.49a2,2,0,0,1,1.19.18c0.34,0.12.77,0.2,1.24,0.33a2.39,2.39,0,0,1,1.27.66,1.12,1.12,0,0,1,.11,1.27,2.14,2.14,0,0,1-1.34.61,9.36,9.36,0,0,0-1.8.45c-0.73.28-1.64,0.77-2.36,1.09a3.86,3.86,0,0,1-1.77.45,14.89,14.89,0,0,0-1.63-.17,1.31,1.31,0,0,0-1.15.8,2.59,2.59,0,0,0,.12,1.79,3,3,0,0,0,1.29,1.55,3.82,3.82,0,0,0,2.46.29,9.72,9.72,0,0,0,3.18-1.11,11.93,11.93,0,0,0,2-1.72,6.37,6.37,0,0,1,2.28-1.39,4.19,4.19,0,0,1,2.58,0,3.05,3.05,0,0,1,1.55,1.42,9.81,9.81,0,0,0,.93,1.59,1.47,1.47,0,0,0,1.38.33,18.13,18.13,0,0,1,2-.34,2,2,0,0,1,1.62.63,11.48,11.48,0,0,1,1.13,1.88,6,6,0,0,0,1.53,1.8,3.88,3.88,0,0,0,2,.74,4.13,4.13,0,0,0,1.73-.23c0.42-.16.61-0.35,0.92-0.45a1.6,1.6,0,0,1,1,0,9.24,9.24,0,0,1,.77.59,4.69,4.69,0,0,1,1.14.68,1.62,1.62,0,0,1,.31,1.32,1.75,1.75,0,0,1-.85,1.27c-0.54.34-1.4,0.58-2,.86a4.9,4.9,0,0,1-1.59.77c-0.75.14-2,.07-3.21,0.28s-2.53.67-3.68,0.74a4.18,4.18,0,0,1-3-1,9.77,9.77,0,0,1-2-2.63c-0.51-.9-0.92-1.64-1.27-2.27a8,8,0,0,0-.9-1.4,0.65,0.65,0,0,0-.75-0.18,2,2,0,0,0-1.23.93,15.54,15.54,0,0,0-1.42,3,4.61,4.61,0,0,1-1.07,2.09,2.35,2.35,0,0,1-2,.18,6.33,6.33,0,0,1-1.73-1,3.94,3.94,0,0,1-1.1-.93,4.73,4.73,0,0,0-1.3-1.56c-0.75-.5-2-0.86-2.77-1.33s-1.13-1-1.61-1.3a1.37,1.37,0,0,0-1.56.21,5.26,5.26,0,0,0-1.11,2.15,14.42,14.42,0,0,1-1.27,3,1.57,1.57,0,0,1-2.07.65,8.69,8.69,0,0,1-3.19-2.35A26.54,26.54,0,0,1,192.63,587Zm28.55-47.67a32.38,32.38,0,0,1,32.28,29.84,8,8,0,0,0-1.12.95,2,2,0,0,1-.64.7,9.25,9.25,0,0,1-1.12.08,0.78,0.78,0,0,0-.68.78,15.74,15.74,0,0,1-.14,1.78,1.57,1.57,0,0,1-.78.66,3.13,3.13,0,0,1-.86.84,0.88,0.88,0,0,1-1.06-.62,7.42,7.42,0,0,1,.2-1.68c0-.42-0.32-0.5-0.84,0s-1.24,1.46-1.64,1.76-0.48-.1-0.5-0.92,0-2.06,0-3a6.08,6.08,0,0,1,.06-2.24,11.76,11.76,0,0,1,1.1-1.42,3,3,0,0,0,.28-2c-0.12-.82-0.44-1.78-0.52-2.64a20.46,20.46,0,0,0-.08-2.3,4.86,4.86,0,0,0-1.1-1.84,2.88,2.88,0,0,0-1.62-1.22,8,8,0,0,0-2.4.2,1.19,1.19,0,0,1-1.26-.24c-0.22-.3-0.3-0.86-0.52-1.22a3.46,3.46,0,0,0-1.06-.86,7.29,7.29,0,0,0-1.78-1.1,2.8,2.8,0,0,0-2.42.34c-0.92.54-2,1.58-2.7,2a3.36,3.36,0,0,1-1.52.26c-0.34.1-.58,0.54-1,0.7a3.16,3.16,0,0,1-1.64-.1,3.1,3.1,0,0,0-1.74-.1,6.82,6.82,0,0,1-1.36.86c-0.56.1-1.36-.26-2-0.2a2.24,2.24,0,0,0-1.42.9c-0.3.36-.42,0.6-0.82,0.4s-1.08-.84-1.72-1.22a3.63,3.63,0,0,0-1.76-.52,9.22,9.22,0,0,0-1.48.12,6.45,6.45,0,0,1-1.5,0,2.4,2.4,0,0,1-1-.5,11.12,11.12,0,0,0-1.68-.88,1.36,1.36,0,0,1-1-.58,6.27,6.27,0,0,1-.18-1.74,2.24,2.24,0,0,1,.18-1.38c0.24-.34.76-0.58,1.26-1.18a4.39,4.39,0,0,0,1-2.18,2.86,2.86,0,0,0-.7-1.44,1.74,1.74,0,0,1,.38-2.14c0.78-.8,2.46-1.6,3.58-2.74a5,5,0,0,0,1.34-2.38A32.57,32.57,0,0,1,221.18,539.31Zm0-4.18a36.56,36.56,0,1,1-36.56,36.56A36.56,36.56,0,0,1,221.18,535.13Z" transform="translate(-159.74 -510.26)"/></svg>