<svg id="Layer_1" data-name="Layer 1" xmlns="http://www.w3.org/2000/svg" viewBox="0 0 122.88 122.88"><defs><style>.cls-1{fill:purple;}.cls-1,.cls-2{fill-rule:evenodd;}.cls-2{fill:#fff;}</style></defs><title>19</title><path class="cls-1" d="M667.9,686.63H790.78V809.51H667.9V686.63" transform="translate(-667.9 -686.63)"/><path class="cls-2" d="M721.33,715.12h16a1.25,1.25,0,0,1,0,2.5h-16a1.25,1.25,0,0,1,0-2.5m8,61.08a3.43,3.43,0,1,1-3.43,3.43A3.43,3.43,0,0,1,729.34,776.2Zm-18.71-54.47H748V774.4H710.63V721.74Zm13.13,29.13h3.37v2.94h-3.37v-2.94Zm7.78-.82h3.37v3.76h-3.37V750Zm7.78,2.6h3.37v1.16h-3.37v-1.16ZM716,748.89h3.37v4.91H716v-4.91Zm-5.35-38.11H748a4.48,4.48,0,0,1,4.47,4.47V780.9a4.48,4.48,0,0,1-4.47,4.47H710.63a4.48,4.48,0,0,1-4.47-4.47V715.24A4.48,4.48,0,0,1,710.63,710.78Z" transform="translate(-667.9 -686.63)"/></svg>