<svg id="Layer_1" data-name="Layer 1" xmlns="http://www.w3.org/2000/svg" viewBox="0 0 122.88 122.88"><defs><style>.cls-1{fill:#00e6e6;}.cls-1,.cls-2{fill-rule:evenodd;}.cls-2{fill:#fff;}</style></defs><title>8</title><path class="cls-1" d="M498.51,333.88H621.39V456.76H498.51V333.88" transform="translate(-498.51 -333.88)"/><path class="cls-2" d="M537.95,362.93h44v64.77h-44V362.93Zm4.43,4.84h35.15v10.38H542.38V367.78Zm0,33.08h35.15v4.29H542.38v-4.29Zm0-8.58h35.15v4.29H542.38v-4.29Zm0-8.58h35.15V388H542.38V383.7Zm20.21,34.6h14.95v4.29H562.58V418.3Zm0-8.58h14.95V414H562.58v-4.29Zm-3.88,0H542.38v12.87h16.33V409.72ZM533,358h54v74.74H533V358Z" transform="translate(-498.51 -333.88)"/></svg>