<svg id="Layer_1" data-name="Layer 1" xmlns="http://www.w3.org/2000/svg" viewBox="0 0 122.88 122.88"><defs><style>.cls-1{fill:teal;}.cls-1,.cls-2{fill-rule:evenodd;}.cls-2{fill:#fff;}</style></defs><title>53</title><path class="cls-1" d="M498.51,1921.25H621.39v122.88H498.51V1921.25" transform="translate(-498.51 -1921.25)"/><path class="cls-2" d="M529.37,1971.72h61.18v40.69H529.37v-40.69Zm52.81-25.54h0a3.47,3.47,0,0,1,3.46,3.46v8.08a3.46,3.46,0,1,1-6.93,0v-8.08A3.47,3.47,0,0,1,582.17,1946.19Zm-44.44,0h0a3.47,3.47,0,0,1,3.46,3.46v8.08a3.46,3.46,0,1,1-6.93,0v-8.08A3.47,3.47,0,0,1,537.73,1946.19Zm-15.15,8.37h9.09v3.17a6.06,6.06,0,0,0,12.12,0v-3.17h32.32v3.17a6.06,6.06,0,0,0,12.12,0v-3.17h9.09v64.64H522.59v-64.64Z" transform="translate(-498.51 -1921.25)"/><polygon class="cls-2" points="61.44 54.2 66.46 65.72 79.06 66.89 69.56 75.19 72.33 87.44 61.44 81.04 50.55 87.44 53.32 75.19 43.82 66.89 56.42 65.72 61.44 54.2"/></svg>