<svg id="Layer_1" data-name="Layer 1" xmlns="http://www.w3.org/2000/svg" viewBox="0 0 122.88 122.88"><defs><style>.cls-1{fill:#ffa07a;}.cls-1,.cls-2{fill-rule:evenodd;}.cls-2{fill:#fff;}</style></defs><title>58</title><path class="cls-1" d="M498.51,2097.62H621.39V2220.5H498.51V2097.62" transform="translate(-498.51 -2097.62)"/><path class="cls-2" d="M526.9,2131.56H593V2176H526.9v-44.4Zm14.94,19.12,4.67,2.45,4.67,2.45-1.63,1.34,2.93,3.56-3.08,2.53-2.93-3.56-1.63,1.34-1.5-5.05Zm4.05-11.78,5.21,9.25,10.41,2.09-7.19,7.81,1.23,10.55-9.65-4.43-9.65,4.43,1.23-10.55-7.19-7.81,10.41-2.09Zm18.3,25.07h24.59v2.71H564.19V2164Zm0-11.58h24.59v2.71H564.19v-2.71Zm0-11.58h24.59v2.71H564.19v-2.71Zm-38.09-13.57h67.71a3.52,3.52,0,0,1,3.51,3.51v46a3.52,3.52,0,0,1-3.51,3.51H565.62v2.23a18.35,18.35,0,0,1,11.6,8.39H542.69a18.35,18.35,0,0,1,11.6-8.39v-2.23H526.1a3.52,3.52,0,0,1-3.51-3.51v-46A3.52,3.52,0,0,1,526.1,2127.25Z" transform="translate(-498.51 -2097.62)"/></svg>