<svg id="Layer_1" data-name="Layer 1" xmlns="http://www.w3.org/2000/svg" viewBox="0 0 122.88 122.88"><defs><style>.cls-1{fill:#f28520;}.cls-1,.cls-2{fill-rule:evenodd;}.cls-2{fill:#fff;}</style></defs><title>30</title><path class="cls-1" d="M837.29,1039.38H960.17v122.88H837.29V1039.38" transform="translate(-837.29 -1039.38)"/><path class="cls-2" d="M889,1103a5.32,5.32,0,1,1-5.32,5.32A5.32,5.32,0,0,1,889,1103m19.44,0a5.32,5.32,0,1,1-5.32,5.32A5.32,5.32,0,0,1,908.45,1103Zm-10.62,6.5a8.89,8.89,0,0,1-17.69-.6H874v0.29c0,13,11.06,23.46,24.69,23.46s24.69-10.5,24.69-23.46v-0.29h-6.1a8.89,8.89,0,0,1-17.69.6h-1.81ZM889,1099.41a8.89,8.89,0,0,1,8.57,6.52h2.29a8.89,8.89,0,0,1,16.76-1.11H923a22.7,22.7,0,0,0-3.71-8.66,31.77,31.77,0,0,1-20.56-8.78,31.77,31.77,0,0,1-20.56,8.78,22.7,22.7,0,0,0-3.71,8.66h6.37A8.89,8.89,0,0,1,889,1099.41Zm9.72-35.16a36.56,36.56,0,1,1-36.56,36.56A36.56,36.56,0,0,1,898.73,1064.26Z" transform="translate(-837.29 -1039.38)"/></svg>