<?xml version="1.0" encoding="utf-8"?>
<!-- Generator: Adobe Illustrator 19.0.0, SVG Export Plug-In . SVG Version: 6.00 Build 0)  -->
<svg version="1.1" id="Forma_1_1_" xmlns="http://www.w3.org/2000/svg" xmlns:xlink="http://www.w3.org/1999/xlink" x="0px" y="0px"
	 viewBox="0 0 473 598" style="enable-background:new 0 0 473 598;" xml:space="preserve">
<style type="text/css">
	.st0{fill-rule:evenodd;clip-rule:evenodd;}
</style>
<g id="Forma_1">
	<g>
		<path fill="#ffffff" class="st0" d="M453.6,46.5h-76.8V19.5c0-10.9-8.5-19.5-19.4-19.5H124.6c-10.9,0-19.4,8.5-19.4,19.5v27.1H19.4
			C8.5,46.5,0,55.1,0,66v512.6C0,589.5,8.5,598,19.4,598h434.1c10.9,0,19.4-8.5,19.4-19.5V66C473,55.1,464.5,46.5,453.6,46.5z
			 M144.1,66V38.9h193.8V66v34.2H144.1V66z M434.1,559.1H38.9V85.4h66.4v34.2c0,10.9,8.5,19.5,19.4,19.5h232.7
			c10.9,0,19.4-8.5,19.4-19.5V85.4h57.3V559.1z M381.1,337H101c-10.9,0-19.4,8.5-19.4,19.5c0,10.9,8.5,19.5,19.4,19.5h280.1
			c10.9,0,19.4-8.5,19.4-19.5S392,337,381.1,337z M241.2,430.9H101c-10.9,0-19.4,8.5-19.4,19.5s8.5,19.5,19.4,19.5h139.8
			c10.9,0,19.4-8.5,19.4-19.5S251.7,430.9,241.2,430.9z M81.5,262c0,10.9,8.5,19.5,19.4,19.5h280.1c10.9,0,19.4-8.5,19.4-19.5
			s-8.5-19.5-19.4-19.5H101C90,242.5,81.5,251.5,81.5,262z"/>
	</g>
</g>
</svg>
