<svg id="Layer_1" data-name="Layer 1" xmlns="http://www.w3.org/2000/svg" viewBox="0 0 122.88 122.88"><defs><style>.cls-1{fill:gray;}.cls-1,.cls-2{fill-rule:evenodd;}.cls-2{fill:#fff;}</style></defs><title>24</title><path class="cls-1" d="M667.9,863H790.78V985.88H667.9V863" transform="translate(-667.9 -863)"/><path class="cls-2" d="M714.29,944.46h27.86a1.78,1.78,0,1,1,0,3.56H714.29a1.78,1.78,0,1,1,0-3.56m-7.78-26a9,9,0,1,1-9,9A9,9,0,0,1,706.51,918.43ZM697,914.59h44.93a5.85,5.85,0,0,1,5.83,5.83v25.7a5.85,5.85,0,0,1-5.83,5.83H697a5.85,5.85,0,0,1-5.83-5.83v-25.7A5.85,5.85,0,0,1,697,914.59Zm10.13,13.73a1.77,1.77,0,0,1,1.51,1.68,1.56,1.56,0,0,1-1.51,1.68v-3.35Zm-0.88-2.15a1.64,1.64,0,0,1-1.45-1.56,1.47,1.47,0,0,1,1.45-1.5v3.06Zm0.88-5.8h-0.88v1.11a3.38,3.38,0,0,0-3.4,3.22c0,2.08,1.5,2.83,3.4,3.35v3.61a3.52,3.52,0,0,1-2.39-1.2l-1.43,1.37a5.68,5.68,0,0,0,3.83,1.51v1.17h0.88v-1.17a3.35,3.35,0,0,0,3.47-3.47c0-2.2-1.81-3-3.47-3.48v-3.29a2.88,2.88,0,0,1,2.07.86l1.32-1.37a5.43,5.43,0,0,0-3.39-1.16v-1.07Zm17.19-22.81,40,20.41a5.85,5.85,0,0,1,2.55,7.84l-11.68,22.9a5.85,5.85,0,0,1-6.74,3,8.62,8.62,0,0,0,1.42-2.32,3.33,3.33,0,0,0,3.08-1.8l3.44-6.77-5.89-3V924.53l11.24,5.79,2.88-5.64a3.32,3.32,0,0,0-1.45-4.45l-40-20.41a3.32,3.32,0,0,0-4.45,1.44l-2.79,5.47,9.94,5.11H710.49l6-11.73A5.85,5.85,0,0,1,724.31,897.56Z" transform="translate(-667.9 -863)"/></svg>