<svg id="Layer_1" data-name="Layer 1" xmlns="http://www.w3.org/2000/svg" viewBox="0 0 122.88 122.88"><defs><style>.cls-1{fill:tomato;}.cls-1,.cls-2{fill-rule:evenodd;}.cls-2{fill:#fff;}</style></defs><title>64</title><path class="cls-1" d="M667.9,2274H790.78v122.88H667.9V2274" transform="translate(-667.9 -2274)"/><path class="cls-2" d="M737.67,2302a14.39,14.39,0,0,1,1.63,28.69,18.33,18.33,0,0,0-12-24.25,14.35,14.35,0,0,1,10.39-4.44m-15.45,7.06a15,15,0,1,1-15,15A15,15,0,0,1,722.22,2309.09ZM692,2368.85h60.49v-15a13.73,13.73,0,0,0-13.69-13.69h-5.2l-4.93,5.06-6.42,6.59-6.42-6.59-4.93-5.06h-5.2A13.73,13.73,0,0,0,692,2353.86v15Zm63.82-9.43h10.91V2345a13.18,13.18,0,0,0-13.15-13.15h-5l-4.74,4.86-0.66.68a17.08,17.08,0,0,1,12.63,16.44v5.55Z" transform="translate(-667.9 -2274)"/></svg>