<svg id="Layer_1" data-name="Layer 1" xmlns="http://www.w3.org/2000/svg" viewBox="0 0 122.88 122.88"><defs><style>.cls-1{fill:#396;}.cls-1,.cls-2{fill-rule:evenodd;}.cls-2{fill:#fff;}</style></defs><title>60</title><path class="cls-1" d="M837.29,2097.62H960.17V2220.5H837.29V2097.62" transform="translate(-837.29 -2097.62)"/><path class="cls-2" d="M898.42,2144.79a7.88,7.88,0,1,1-7.88,7.88,7.88,7.88,0,0,1,7.88-7.88m0.31-23.1a34,34,0,0,1,9.53,66.56,54,54,0,0,0,1.32-6,28.73,28.73,0,1,0-22.35-.28,54.14,54.14,0,0,0,1.31,6A34,34,0,0,1,898.73,2121.7Zm0,11.47a22.49,22.49,0,0,1,11.64,41.73,25.89,25.89,0,0,0-.39-6.12q0.51-.43,1-0.9a17.28,17.28,0,1,0-24.44,0l0.47,0.45a24.22,24.22,0,0,0-.51,6.18A22.49,22.49,0,0,1,898.73,2133.17Zm-7,33.4c-1.62,2.37-1.91,6.64-.89,14,0.81,5.83,2.69,11.61,4.8,14.29,1.69,2.15,4,2.09,5.66-.05,2.09-2.7,4-8.45,4.76-14.24,1-7.14.74-11.37-.76-13.78C902.87,2162.91,894.22,2162.9,891.71,2166.57Z" transform="translate(-837.29 -2097.62)"/></svg>