<?xml version="1.0" encoding="utf-8"?>
<!-- Generator: Adobe Illustrator 19.0.0, SVG Export Plug-In . SVG Version: 6.00 Build 0)  -->
<svg version="1.1" id="Forma_1_1_" xmlns="http://www.w3.org/2000/svg" xmlns:xlink="http://www.w3.org/1999/xlink" x="0px" y="0px"
	 viewBox="108 -28 477 477" style="enable-background:new 108 -28 477 477;" xml:space="preserve">
<style type="text/css">
	.st0{fill:#1CBBB4;}
</style>
<g>
	<path class="st0" d="M277.5,210.5l13.8,23.8l8.8,15.1c59-21.3,104.2-26.4,125.5-27.6l-64-108C350.3,131.4,325.2,169.1,277.5,210.5z
		"/>
	<path class="st0" d="M108-28v477h477V-28H108z M444.4,231.8c-1.3,2.5-3.8,3.8-6.3,3.8c0,0,0,0-1.3,0c-8.8,0-47.7,1.3-104.2,17.6
		c3.8,13.8,10,46.4,6.3,75.3c0,3.8-3.8,6.3-7.5,6.3l0,0l-26.4-1.3c-3.8,0-6.3-2.5-6.3-6.3c0-2.5,0-5,0-7.5
		c-1.3-17.6-2.5-35.1-13.8-45.2l-13.8,8.8c-1.3,1.3-2.5,1.3-3.8,1.3c-2.5,0-5-1.3-6.3-3.8l-1.3-1.3c-2.5,1.3-5,1.3-7.5,1.3
		c-10,0-18.8-5-23.8-13.8c-3.8-6.3-5-13.8-2.5-21.3c1.3-5,3.8-8.8,7.5-12.6l-1.3-1.3c-2.5-3.8-1.3-7.5,2.5-10l31.4-18.8
		c1.3,0,1.3-1.3,2.5-1.3c62.8-55.2,87.9-104.2,87.9-105.4c1.3-2.5,3.8-3.8,6.3-3.8s5,1.3,6.3,3.8l76.6,129.3
		C445.7,226.8,445.7,229.3,444.4,231.8z M443.2,179.1c-1.3,1.3-3.8,2.5-5,2.5s-2.5,0-3.8-1.3c-2.5-2.5-3.8-6.3-1.3-10
		c6.3-7.5,6.3-17.6,1.3-26.4c-5-8.8-13.8-12.6-23.8-11.3c-3.8,1.3-7.5-1.3-7.5-5c-1.3-3.8,1.3-7.5,5-7.5
		c15.1-2.5,30.1,3.8,38.9,17.6C453.2,150.2,451.9,166.6,443.2,179.1z M473.3,190.4c-1.3,1.3-3.8,2.5-5,2.5s-2.5,0-3.8-1.3
		c-2.5-2.5-3.8-6.3-1.3-10c12.6-16.3,15.1-38.9,3.8-57.7c-11.3-17.6-31.4-27.6-52.7-23.8c-3.8,1.3-7.5-1.3-7.5-5
		c-1.3-3.8,1.3-7.5,5-7.5c26.4-5,52.7,7.5,66.5,30.1C492.1,140.2,489.6,170.3,473.3,190.4z"/>
</g>
</svg>
