<svg id="Layer_1" data-name="Layer 1" xmlns="http://www.w3.org/2000/svg" viewBox="0 0 122.88 122.88"><defs><style>.cls-1{fill:#9763c9;}.cls-1,.cls-2{fill-rule:evenodd;}.cls-2{fill:#fff;}</style></defs><title>38</title><path class="cls-1" d="M498.51,1392.13H621.39V1515H498.51V1392.13" transform="translate(-498.51 -1392.13)"/><path class="cls-2" d="M529.61,1427.5v32.56a1.74,1.74,0,0,0,1.73,1.73h57.23a1.74,1.74,0,0,0,1.73-1.73V1427.5H529.61Zm15.57,6.63a10.59,10.59,0,0,1,2,.19l-0.89,9.62,8.47-3.67A10.52,10.52,0,1,1,545.18,1434.13Zm20.13-.53h15.6c1.2,0,2.18.51,2.18,1.12h0c0,0.62-1,1.12-2.18,1.12h-15.6c-1.2,0-2.17-.51-2.17-1.12h0C563.14,1434.11,564.12,1433.6,565.31,1433.6Zm0,19.84h17.4c1.2,0,2.17.51,2.17,1.12s-1,1.12-2.17,1.12h-17.4c-1.2,0-2.17-.51-2.17-1.12S564.12,1453.44,565.31,1453.44Zm17.4-11H564.1l0,0h0l0,0h0l0,0,0,0,0,0h0l0,0h0l0,0h0l0,0,0,0,0,0,0,0h0l0,0,0,0,0,0,0,0,0,0,0,0h0l0,0,0,0h0l0,0,0,0h0l0,0,0,0,0,0,0,0,0,0,0,0,0,0,0,0v-0.31h0v0h0v0h0v-0.17h0V1441h0l0,0,0,0,0,0,0,0,0,0,0,0h0l0,0,0,0h0l0,0,0,0h0l0,0,0,0h0l0,0,0,0,0,0,0,0,0,0,0,0h0l0,0,0,0,0,0,0,0h0l0,0h0l0,0h0l0,0,0,0,0,0h0l0,0,0,0h19.83l0,0,0,0h0l0,0,0,0,0,0h0l0,0h0l0,0h0l0,0,0,0,0,0,0,0h0l0,0,0,0,0,0,0,0,0,0,0,0h0l0,0,0,0h0l0,0,0,0h0l0,0,0,0h0l0,0,0,0,0,0,0,0,0,0,0,0h0v0.08h0v0.17h0v0h0v0h0v0.31l0,0,0,0,0,0,0,0,0,0,0,0,0,0,0,0h0l0,0,0,0h0l0,0,0,0h0l0,0,0,0,0,0,0,0,0,0,0,0h0l0,0,0,0,0,0,0,0h0l0,0h0l0,0h0l0,0,0,0,0,0h0l0,0h0l0,0h-1.21Zm-7.07,4.37h1.21l0,0h0l0,0,0,0h0l0,0h0l0,0,0,0,0,0,0,0h0l0,0h0l0,0h0l0,0,0,0h0l0,0h0l0,0h0l0,0h0l0,0h0l0,0,0,0h0l0,0,0,0h0l0,0,0,0h0l0,0,0,0h0l0,0h0l0,0h0l0,0h0l0,0h0l0,0v0h0v0h0v0.05h0v0h0v0h0v0h0v0h0V1448h0c0,0.62-1,1.12-2.17,1.12H565.31c-1.2,0-2.17-.51-2.17-1.12h0v-0.09h0v0h0v0h0v0h0v0h0v-0.05h0v0h0v0l0,0h0l0,0h0l0,0h0l0,0h0l0,0h0l0,0,0,0h0l0,0,0,0h0l0,0,0,0h0l0,0,0,0h0l0,0h0l0,0h0l0,0h0l0,0h0l0,0,0,0h0l0,0h0l0,0h0l0,0,0,0,0,0,0,0h0l0,0h0l0,0,0,0h0l0,0h11.55Zm19.09-19.47v32.7a6.18,6.18,0,0,1-6.17,6.17h-24l13,13a2.18,2.18,0,1,1-3.09,3.09L562.14,1470v16.63a2.18,2.18,0,1,1-4.37,0V1470l-12.39,12.39a2.18,2.18,0,1,1-3.09-3.09l13-13h-24a6.18,6.18,0,0,1-6.17-6.17v-32.7a3.58,3.58,0,0,1,1-7h28c1-1.17,3.24-2,5.77-2s4.73,0.81,5.77,2h28A3.58,3.58,0,0,1,594.73,1427.36Z" transform="translate(-498.51 -1392.13)"/></svg>