<svg id="Layer_1" data-name="Layer 1" xmlns="http://www.w3.org/2000/svg" viewBox="0 0 122.88 122.88"><defs><style>.cls-1{fill:olive;}.cls-1,.cls-2{fill-rule:evenodd;}.cls-2{fill:#fff;}</style></defs><title>69</title><path class="cls-1" d="M667.9,2450.37H790.78v122.88H667.9V2450.37" transform="translate(-667.9 -2450.37)"/><path class="cls-2" d="M705.69,2486.72h27.45v16.07H705.69v-16.07Zm0,22.09h27.45v2.68H705.69v-2.68Zm27.87,22.37-3.18-2.84-12.5,15.1,2.09,1.86Zm5-16,7.18,6.41A10,10,0,1,0,738.51,2515.2ZM735.64,2533l-2.45,2.55h5.31v-2.09h0a1.56,1.56,0,0,1-2.2.12Zm2.86-31.45V2478H700.33v57.58h20.42l7.54-9.11,0,0H706.69v-2.68h20.76l0.06-.07,4.22-4.73h-25v-2.68h27.43l0.47-.53a13.94,13.94,0,0,1,3-13.22Q738,2502,738.5,2501.6Zm-38.39-27.15h38.61a3.36,3.36,0,0,1,3.35,3.35v21.4a14,14,0,1,1,3.51,26.38l-3.51,3.94v6.31a3.36,3.36,0,0,1-3.35,3.35h-9l-9.64,10-1.94-1.73-2.23-2-1.94-1.73,3.79-4.57H700.11a3.36,3.36,0,0,1-3.35-3.35v-58A3.36,3.36,0,0,1,700.11,2474.44Z" transform="translate(-667.9 -2450.37)"/></svg>