<svg id="Layer_1" data-name="Layer 1" xmlns="http://www.w3.org/2000/svg" viewBox="0 0 122.88 122.88"><defs><style>.cls-1{fill:#cd5533;}.cls-1,.cls-2{fill-rule:evenodd;}.cls-2{fill:#fff;}</style></defs><title>77</title><path class="cls-1" d="M329.13,2803.12H452V2926H329.13V2803.12" transform="translate(-329.13 -2803.12)"/><path class="cls-2" d="M386.09,2853.92v11.23h4.34a20.35,20.35,0,0,0,6.27-.62,5.15,5.15,0,0,0,2.48-1.95,5.34,5.34,0,0,0,.9-3.07,5.15,5.15,0,0,0-1.26-3.56,5.51,5.51,0,0,0-3.19-1.76,38.83,38.83,0,0,0-5.71-.27h-3.83Zm-8,32.75v-39.42h12.76q7.25,0,9.45.59a10.36,10.36,0,0,1,5.67,3.86,12.25,12.25,0,0,1,2.28,7.68,12.93,12.93,0,0,1-1.31,6.1,10.88,10.88,0,0,1-3.34,3.89,11.54,11.54,0,0,1-4.12,1.86,45.28,45.28,0,0,1-8.24.57h-5.17v14.86h-8Z" transform="translate(-329.13 -2803.12)"/><path class="cls-2" d="M390.57,2833.24a31.33,31.33,0,1,1-31.63,31.32,31.48,31.48,0,0,1,31.63-31.32m-20.72-6h41.44a16.62,16.62,0,0,1,16.65,16.49v41.77a16.62,16.62,0,0,1-16.65,16.49H369.85a16.62,16.62,0,0,1-16.65-16.49v-41.77A16.62,16.62,0,0,1,369.85,2827.19Z" transform="translate(-329.13 -2803.12)"/></svg>