<svg id="Layer_1" data-name="Layer 1" xmlns="http://www.w3.org/2000/svg" viewBox="0 0 122.88 122.88"><defs><style>.cls-1{fill:#609178;}.cls-1,.cls-2{fill-rule:evenodd;}.cls-2{fill:#fff;}</style></defs><title>48</title><path class="cls-1" d="M498.51,1744.88H621.39v122.88H498.51V1744.88" transform="translate(-498.51 -1744.88)"/><path class="cls-2" d="M590.49,1828.39a5.65,5.65,0,1,1-8,.11,5.65,5.65,0,0,1,8-.11M571.77,1806l22.51,20a9,9,0,0,1,.48,13.07l-1.37,1.41a9,9,0,0,1-13.07-.12l-19.87-21.17a5.82,5.82,0,0,0,0-1.5Zm-0.91-6.36a2.77,2.77,0,0,1-.08,3.77L557.56,1817a3.28,3.28,0,0,1-.51,3.86l-20.75,21.33a3.27,3.27,0,0,1-4.62.06l-6-5.87a3.27,3.27,0,0,1-.06-4.62l20.75-21.33a3.28,3.28,0,0,1,3.84-.62l13.23-13.6a2.77,2.77,0,0,1,3.77-.18l15.26-15.69a2.76,2.76,0,0,1,.74-2.38l8.32-8.55,5.31,5.17-8.32,8.55a2.76,2.76,0,0,1-2.36.81Zm-14.76-7.55,4.2,3.73L549.43,1807l-0.45,0-3.61-3.84a17.17,17.17,0,0,1-21.59-22.52L535,1791.47a1.17,1.17,0,0,0,1.66,0l7.59-7.8a1.18,1.18,0,0,0,0-1.66L533,1771.12A17.17,17.17,0,0,1,556.11,1792.09Z" transform="translate(-498.51 -1744.88)"/></svg>