<svg id="Layer_1" data-name="Layer 1" xmlns="http://www.w3.org/2000/svg" viewBox="0 0 122.88 122.88"><defs><style>.cls-1{fill:#96c;}.cls-1,.cls-2{fill-rule:evenodd;}.cls-2{fill:#fff;}</style></defs><title>23</title><path class="cls-1" d="M498.51,863H621.39V985.88H498.51V863" transform="translate(-498.51 -863)"/><path class="cls-2" d="M555.34,962a151.23,151.23,0,0,1-30.57-3.76,35.19,35.19,0,0,1,22.56-32.85Zm29.38-19.77a5.41,5.41,0,0,1-9.72,0h9.72Zm-12.15-16.84a35.19,35.19,0,0,1,22.56,32.85,186.71,186.71,0,0,1-30.55,3.7Zm-12.2-1.31h-4.83c-0.4,0-.92.38-0.72,0.72l2.78,5-1.36,24.49,3.72,6.45,3.72-6.45-1.36-24.49,2.78-5c0.19-.35-0.33-0.72-0.72-0.72h-4ZM560,886.87a16.2,16.2,0,1,1-16.2,16.2A16.2,16.2,0,0,1,560,886.87Z" transform="translate(-498.51 -863)"/></svg>