<svg id="Layer_1" data-name="Layer 1" xmlns="http://www.w3.org/2000/svg" viewBox="0 0 122.88 122.88"><defs><style>.cls-1{fill:#00bfff;}.cls-1,.cls-2{fill-rule:evenodd;}.cls-2{fill:#fff;}</style></defs><title>66</title><path class="cls-1" d="M159.74,2450.37H282.62v122.88H159.74V2450.37" transform="translate(-159.74 -2450.37)"/><path class="cls-2" d="M221.19,2474.32a7.72,7.72,0,1,1-7.72,7.72,7.72,7.72,0,0,1,7.72-7.72m-13.11,40.62h0a3.13,3.13,0,0,1,3.12,3.12v0.15h19.95v-0.15a3.12,3.12,0,0,1,6.25,0v0.15h4.14v-19H200.82v19H205v-0.15A3.13,3.13,0,0,1,208.08,2514.94Zm20.81-18.43a8.37,8.37,0,0,0-5.67-5l-0.32.32-1.71,1.73-1.71-1.73-0.32-.32a8.37,8.37,0,0,0-5.67,5H199.31a1.19,1.19,0,0,0-1.18,1.18v22a1.19,1.19,0,0,0,1.18,1.18h5.82a3.12,3.12,0,0,0,5.9,0h2v24.67a3.73,3.73,0,0,0,7.46,0V2520.9h1.31v24.67a3.73,3.73,0,0,0,7.46,0V2520.9h2a3.12,3.12,0,0,0,5.9,0H243a1.19,1.19,0,0,0,1.18-1.18v-22a1.19,1.19,0,0,0-1.18-1.18H228.89Z" transform="translate(-159.74 -2450.37)"/></svg>