<svg id="Layer_1" data-name="Layer 1" xmlns="http://www.w3.org/2000/svg" viewBox="0 0 122.88 122.88"><defs><style>.cls-1{fill:#7b68ee;}.cls-1,.cls-2{fill-rule:evenodd;}.cls-2{fill:#fff;}</style></defs><title>68</title><path class="cls-1" d="M498.51,2450.37H621.39v122.88H498.51V2450.37" transform="translate(-498.51 -2450.37)"/><path class="cls-2" d="M576.19,2474.44c9.16,9.14,14.94,22.49,14.94,37.37s-5.78,28.23-14.94,37.37a88.37,88.37,0,0,0,0-74.74m-13.72,21.81a20.84,20.84,0,0,1,0,31.12A33.21,33.21,0,0,0,562.46,2496.25Zm4-9.31c7.93,6.08,12.93,15,12.93,24.87s-5,18.79-12.93,24.87A46.68,46.68,0,0,0,566.49,2486.94Zm-35,15.39H544l3.11-3.63,11.24-13.11a309.51,309.51,0,0,1,0,52.43l-11.24-13.11-3.11-3.63H531.44a2.67,2.67,0,0,1-2.66-2.66V2505A2.67,2.67,0,0,1,531.44,2502.34Z" transform="translate(-498.51 -2450.37)"/></svg>