<svg id="Layer_1" data-name="Layer 1" xmlns="http://www.w3.org/2000/svg" viewBox="0 0 122.88 122.88"><defs><style>.cls-1{fill:#b92b27;}.cls-1,.cls-2{fill-rule:evenodd;}.cls-2{fill:#fff;}</style></defs><title>34</title><path class="cls-1" d="M667.9,1215.75H790.78v122.88H667.9V1215.75" transform="translate(-667.9 -1215.75)"/><path class="cls-2" d="M718.45,1287.05l-2-3.94c14.23-6.17,20.6-1.83,25.2,4.66a32.66,32.66,0,0,0,3.7-15.47c0-14-8-25.35-17.81-25.35s-17.81,11.35-17.81,25.35,8,25.35,17.81,25.35a12.9,12.9,0,0,0,4.53-.83c-3-6-5.95-10.5-13.65-9.77m9.12-47.23c18.3,0,33.14,14.54,33.14,32.48a32.19,32.19,0,0,1-12.78,25.63,23,23,0,0,0,4.5,5.26,4.29,4.29,0,0,0,6.71-3h4.93c2.06,11.9-15.79,23.62-28.3,3.63a33.83,33.83,0,0,1-8.2,1c-18.3,0-33.14-14.54-33.14-32.48S709.28,1239.82,727.58,1239.82Z" transform="translate(-667.9 -1215.75)"/></svg>