<svg id="Layer_1" data-name="Layer 1" xmlns="http://www.w3.org/2000/svg" viewBox="0 0 122.88 122.88"><defs><style>.cls-1{fill:sienna;}.cls-1,.cls-2{fill-rule:evenodd;}.cls-2{fill:#fff;}</style></defs><title>13</title><path class="cls-1" d="M498.51,510.26H621.39V633.14H498.51V510.26" transform="translate(-498.51 -510.26)"/><path class="cls-2" d="M535.78,582.26a4.36,4.36,0,1,1-4.36,4.36,4.36,4.36,0,0,1,4.36-4.36m0-14.54a4.36,4.36,0,1,1-4.36,4.36A4.36,4.36,0,0,1,535.78,567.72Zm43.64,25.8a12.08,12.08,0,0,1-12.85,0h12.85Zm4.8-5.76a12.06,12.06,0,0,1-1.63,2.87H563.41a12.07,12.07,0,0,1-1.63-2.87h22.44ZM585,582a12.15,12.15,0,0,1,0,2.87H561a12.16,12.16,0,0,1,0-2.87h24Zm-2.2-5.76a12,12,0,0,1,1.53,2.87H561.67a12,12,0,0,1,1.53-2.87h19.6Zm-9.8-5a12,12,0,0,1,6.86,2.14H566.14A12,12,0,0,1,573,571.22Zm0-4.23a16.31,16.31,0,1,1-16.3,16.31A16.31,16.31,0,0,1,573,567Zm-33.47-7.54h50.66a7.16,7.16,0,0,1,7.14,7.14V600a7.16,7.16,0,0,1-7.14,7.14H529.72a7.16,7.16,0,0,1-7.14-7.14V566.59a7.16,7.16,0,0,1,6.46-7.11v-0.27a5.08,5.08,0,0,1,5.07-5.07h0.35a5,5,0,0,1,1.08.12h0l50.61-14.07v0a3.92,3.92,0,1,1,.62,2.12h0l-47.87,14.49a5,5,0,0,1,.62,2.42v0.24Z" transform="translate(-498.51 -510.26)"/></svg>