<svg id="Layer_1" data-name="Layer 1" xmlns="http://www.w3.org/2000/svg" viewBox="0 0 122.88 122.88"><defs><style>.cls-1{fill:#bc8f8f;}.cls-1,.cls-2{fill-rule:evenodd;}.cls-2{fill:#fff;}</style></defs><title>80</title><path class="cls-1" d="M837.29,2803.12H960.17V2926H837.29V2803.12" transform="translate(-837.29 -2803.12)"/><path class="cls-2" d="M935.93,2891.5a16.84,16.84,0,0,0-32.92,0h32.92Zm-16.83-38a11,11,0,1,1-11,11A11,11,0,0,1,919.1,2853.51Zm-44,.11a11,11,0,1,1-11,11A11,11,0,0,1,875.12,2853.62Zm16.67-1-3.07,6.13,8-5.28q0.78,0,1.59.05c7.76,0,14-3.56,14-7.95s-6.29-7.95-14-7.95-14,3.56-14,7.95C884.27,2848.63,887.32,2851.28,891.8,2852.61Zm-5.42,38.89c-2.3-8-7-13.52-12.42-13.52s-10.12,5.5-12.42,13.52h24.85Z" transform="translate(-837.29 -2803.12)"/></svg>