<svg id="Layer_1" data-name="Layer 1" xmlns="http://www.w3.org/2000/svg" viewBox="0 0 122.88 122.88"><defs><style>.cls-1{fill:#90ee90;}.cls-1,.cls-2{fill-rule:evenodd;}.cls-2{fill:#fff;}</style></defs><title>33</title><path class="cls-1" d="M498.51,1215.75H621.39v122.88H498.51V1215.75" transform="translate(-498.51 -1215.75)"/><path class="cls-2" d="M560,1267.33c15.72,0,28.46,8.23,28.46,18.38s-12.74,18.38-28.46,18.38-28.46-8.23-28.46-18.38,12.74-18.38,28.46-18.38m-30.3,10.83a21.51,21.51,0,0,1,4.8-6A4.15,4.15,0,1,0,529.65,1278.16Zm55.8-6a21.51,21.51,0,0,1,4.8,6A4.15,4.15,0,1,0,585.46,1272.18Zm-13.92,5.38a4.34,4.34,0,1,1-4.34,4.34A4.34,4.34,0,0,1,571.53,1277.56Zm-23.15,0a4.34,4.34,0,1,1-4.34,4.34A4.34,4.34,0,0,1,548.38,1277.56ZM546,1296.23a1.75,1.75,0,1,1,1.41-3.2,31.32,31.32,0,0,0,12.7,2.85,30.64,30.64,0,0,0,12.7-2.84,1.74,1.74,0,0,1,1.42,3.19,34,34,0,0,1-14.12,3.14A34.75,34.75,0,0,1,546,1296.23Zm39-45.92a4.48,4.48,0,1,1-4.48,4.48A4.48,4.48,0,0,1,585.06,1250.32Zm-22.93,13.3a40.11,40.11,0,0,1,20.26,6.19,8,8,0,1,1,9.29,12,15.55,15.55,0,0,1,.51,3.94c0,12.23-14.43,22.14-32.22,22.14s-32.22-9.91-32.22-22.14a15.53,15.53,0,0,1,.51-3.95,8,8,0,1,1,9.29-12,40.38,40.38,0,0,1,21.06-6.22c0.14-.9.29-1.79,0.46-2.67a25.06,25.06,0,0,1,1.11-4.13,13.19,13.19,0,0,1,1.69-3.12,10.28,10.28,0,0,1,2.4-2.36,7.46,7.46,0,0,1,2.67-1.19,12.59,12.59,0,0,1,3.19-.24c2.1,0.06,4.92.41,7.79,0.79a8.26,8.26,0,1,1-1.1,4.12c0-.25,0-0.49,0-0.74-2.57-.34-5-0.63-6.82-0.68a9.31,9.31,0,0,0-2.32.16,4.09,4.09,0,0,0-1.47.65,6.8,6.8,0,0,0-1.58,1.57,9.67,9.67,0,0,0-1.23,2.29,21.66,21.66,0,0,0-.95,3.54C562.35,1262.23,562.23,1262.92,562.12,1263.62Z" transform="translate(-498.51 -1215.75)"/></svg>