<svg id="Layer_1" data-name="Layer 1" xmlns="http://www.w3.org/2000/svg" viewBox="0 0 122.88 122.88"><defs><style>.cls-1{fill:#008b8b;}.cls-1,.cls-2{fill-rule:evenodd;}.cls-2{fill:#fff;}</style></defs><title>83</title><path class="cls-1" d="M159.74,2979.5H282.62v122.88H159.74V2979.5" transform="translate(-159.74 -2979.5)"/><path class="cls-2" d="M220.52,3012.7a5.91,5.91,0,1,1-5.91,5.91,5.91,5.91,0,0,1,5.91-5.91m-24.9,34.8a5.42,5.42,0,1,1-5.42,5.42A5.42,5.42,0,0,1,195.62,3047.5Zm50.79,0a5.42,5.42,0,1,1-5.42,5.42A5.42,5.42,0,0,1,246.41,3047.5Zm10.49,21.67a10.73,10.73,0,0,0-21,0h21ZM221,3047.5a5.42,5.42,0,1,1-5.42,5.42A5.42,5.42,0,0,1,221,3047.5Zm10.49,21.67a10.73,10.73,0,0,0-21,0h21Zm-25.39,0a10.73,10.73,0,0,0-21,0h21Zm24.19-41h26.49a3.19,3.19,0,0,1,3.18,3.18v32.41A3.17,3.17,0,0,1,259,3066l-0.21.19a14.36,14.36,0,0,0-1.36-2.44v-32.41a0.68,0.68,0,0,0-.68-0.68H232.44A15.12,15.12,0,0,0,230.3,3028.2Zm-44.73,0h25.16a15.14,15.14,0,0,0-2.14,2.5h-23a0.68,0.68,0,0,0-.68.68v31.95a14.31,14.31,0,0,0-1.6,2.68,3.17,3.17,0,0,1-.9-2.22v-32.41A3.19,3.19,0,0,1,185.57,3028.2Zm46.37,8.11a11.69,11.69,0,0,0-22.86,0h22.86Z" transform="translate(-159.74 -2979.5)"/></svg>