<svg id="Layer_1" data-name="Layer 1" xmlns="http://www.w3.org/2000/svg" viewBox="0 0 122.88 122.88"><defs><style>.cls-1,.cls-2{fill-rule:evenodd;}.cls-2{fill:#fff;}</style></defs><title>40</title><path class="cls-1" d="M837.29,1392.13H960.17V1515H837.29V1392.13" transform="translate(-837.29 -1392.13)"/><path class="cls-2" d="M889.69,1424.61a8,8,0,1,0,.94,11.3,8,8,0,0,0-.94-11.3m25.36,2.18v10.3h10.3Zm19.91,63H878.9v-41.59l1.25-1.47a3.73,3.73,0,0,0,.73-1.34,15.07,15.07,0,0,0,3.94.44v38.06h44.24v-42.53H911v-18.12H897.63a15,15,0,0,0-6.14-5.91h22.3l4.79,4.79,1.13,1.13,9.34,9.35,5.91,5.91v51.3Zm-44.05-17h32v3.05h-32v-3.05Zm0-10.39h32v3.05h-32v-3.05Zm0-10.39h32v3.05h-32V1452Zm-15.7-13.95-1.86,2.2-0.67-.56a0.54,0.54,0,0,0-.76.06l-9,10.61a1.94,1.94,0,0,0,.23,2.73l2.78,2.35a1.94,1.94,0,0,0,2.73-.23l9-10.61a0.54,0.54,0,0,0-.06-0.76l-0.67-.56,1.86-2.2A11.86,11.86,0,1,0,875.21,1438.09Z" transform="translate(-837.29 -1392.13)"/></svg>