<svg id="Layer_1" data-name="Layer 1" xmlns="http://www.w3.org/2000/svg" viewBox="0 0 122.88 122.88"><defs><style>.cls-1{fill:#87cefa;}.cls-1,.cls-2{fill-rule:evenodd;}.cls-2{fill:#fff;}</style></defs><title>57</title><path class="cls-1" d="M329.13,2097.62H452V2220.5H329.13V2097.62" transform="translate(-329.13 -2097.62)"/><path class="cls-2" d="M357.66,2163.91l-3.86,26.62c13.28,1.74,21.84,2.84,29.14,3.3v-14a7.63,7.63,0,0,1,15.26,0v14c7.3-.46,15.86-1.56,29.14-3.3L423.48,2164a7.5,7.5,0,0,1-4.83-1.16,7.5,7.5,0,0,1-8.28.1,7.46,7.46,0,0,1-7.37.42,7.46,7.46,0,0,1-7.37-.42,7.46,7.46,0,0,1-8.11,0,7.46,7.46,0,0,1-8.11,0,7.46,7.46,0,0,1-8.11,0,7.5,7.5,0,0,1-8.28-.1,7.48,7.48,0,0,1-5.38,1.08m45.67-5.48a4.05,4.05,0,0,1-7.69-1.79,4.05,4.05,0,0,1-8.11,0,4.05,4.05,0,0,1-8.11,0,4.05,4.05,0,0,1-8.11,0,4.06,4.06,0,1,1-8.11-.2l-0.29,1.12a4.06,4.06,0,0,1-4.94,2.91h0a4.06,4.06,0,0,1-2.91-4.94l1.43-5.53a4.07,4.07,0,0,1,3.21-3l18.27-9.82h0l5.38-2.89,6.38-3.43v-5.38a1.23,1.23,0,0,1,1.22-1.22h0a1.23,1.23,0,0,1,1.22,1.22V2131l29.8,16a4.07,4.07,0,0,1,3.21,3l1.43,5.53a4.06,4.06,0,0,1-2.91,4.94h0a4.06,4.06,0,0,1-4.94-2.91l-0.29-1.12a4.06,4.06,0,1,1-8.11.2,4,4,0,0,1-6.46,3.26Z" transform="translate(-329.13 -2097.62)"/></svg>