<svg id="Layer_1" data-name="Layer 1" xmlns="http://www.w3.org/2000/svg" viewBox="0 0 122.88 122.88"><defs><style>.cls-1{fill:#f76bf7;}.cls-1,.cls-2{fill-rule:evenodd;}.cls-2{fill:#fff;}</style></defs><title>4</title><path class="cls-1" d="M667.9,157.51H790.78V280.39H667.9V157.51" transform="translate(-667.9 -157.51)"/><path class="cls-2" d="M750.39,219.38h16.45v21h-10l2.36-2a5.48,5.48,0,0,0,.69-0.7h2v-15.6h-9.22Zm-49.73,5.32h0a0.94,0.94,0,0,1,.94.94v8.48a0.94,0.94,0,0,1-.94.94h0a0.94,0.94,0,0,1-.94-0.94v-8.48A0.94,0.94,0,0,1,700.65,224.7Zm26.76-20.77a9,9,0,1,1-1.05,12.63A9,9,0,0,1,727.41,203.93ZM743.6,219l2.08,2.45,0.74-.63a0.6,0.6,0,0,1,.85.07l10,11.86a2.17,2.17,0,0,1-.25,3l-3.11,2.63a2.17,2.17,0,0,1-3-.25l-10-11.86a0.6,0.6,0,0,1,.07-0.85l0.74-.63-2.08-2.45A13.26,13.26,0,1,1,743.6,219Zm-51.76.37H719a16.51,16.51,0,0,0,1.53,2.13l0.5,0.57H696.79v15.6H746l2.27,2.68v0H691.84v-21Z" transform="translate(-667.9 -157.51)"/></svg>