<?xml version="1.0" encoding="utf-8"?>
<!-- Generator: Adobe Illustrator 19.0.0, SVG Export Plug-In . SVG Version: 6.00 Build 0)  -->
<svg version="1.1" id="Forma_1_1_" xmlns="http://www.w3.org/2000/svg" xmlns:xlink="http://www.w3.org/1999/xlink" x="0px" y="0px"
	 viewBox="0 0 55 57" style="enable-background:new 0 0 55 57;" xml:space="preserve">
<style type="text/css">
	.st0{fill-rule:evenodd;clip-rule:evenodd;}
</style>
<g id="Forma_1">
	<g>
		<path fill="#273142" class="st0" d="M53.9,51.9L40.4,37.8c3.5-4.1,5.4-9.4,5.4-14.8c0-12.7-10.3-23-22.9-23C10.3,0,0,10.3,0,23
			c0,12.7,10.3,23,22.9,23c4.7,0,9.2-1.4,13.1-4.2l13.6,14.2c0.6,0.6,1.3,0.9,2.2,0.9c0.8,0,1.5-0.3,2.1-0.8
			C55,55,55,53.1,53.9,51.9z M22.9,40C13.5,40,6,32.4,6,23c0-9.4,7.6-17,16.9-17c9.3,0,16.9,7.6,16.9,17C39.8,32.4,32.2,40,22.9,40z
			"/>
	</g>
</g>
</svg>
