<svg id="Layer_1" data-name="Layer 1" xmlns="http://www.w3.org/2000/svg" viewBox="0 0 122.88 122.88"><defs><style>.cls-1{fill:#ab18ab;}.cls-1,.cls-2{fill-rule:evenodd;}.cls-2{fill:#fff;}</style></defs><title>6</title><path class="cls-1" d="M159.74,333.88H282.62V456.76H159.74V333.88" transform="translate(-159.74 -333.88)"/><path class="cls-2" d="M221.18,378.05a9,9,0,0,1,7.64,13.81l-9.13-9.77,0,13.87a9,9,0,0,1,1.47-17.91m1.26,11,0,34.59,7.81-5.45L236,432.69l6-2.25-5.78-14.62,10.48-.8ZM221.18,358a29.11,29.11,0,0,1,21.5,48.75l-6.4-6.85a19.78,19.78,0,1,0-16.56,6.95v9.35A29.11,29.11,0,0,1,221.18,358Z" transform="translate(-159.74 -333.88)"/></svg>