<svg id="Layer_1" data-name="Layer 1" xmlns="http://www.w3.org/2000/svg" viewBox="0 0 122.88 122.88"><defs><style>.cls-1{fill:gold;}.cls-2{fill:#fff;fill-rule:evenodd;}</style></defs><title>5</title><rect class="cls-1" width="122.88" height="122.88"/><path class="cls-2" d="M924.8,209.07a3.5,3.5,0,1,1-2,4.54,3.5,3.5,0,0,1,2-4.54m-21.6,12.26c-1.32-3.34-.23-6.75,3-8s6.34,0.48,7.66,3.81,0.2,6.82-3,8.07S904.56,224.79,903.2,221.34Zm-3,1.18c2,5,6.89,7.16,11.64,5.28s6.94-6.79,4.94-11.84-6.85-7.07-11.67-5.16S898.16,217.33,900.21,222.52Zm-9.33,13.1,10.61-4.2-1-2.56L892.61,232l-1.81-4.57,7.08-2.8-1-2.42-7.08,2.8-1.63-4.11,7.47-3-1-2.51-10.22,4Zm-8.73-13.72a7,7,0,0,0-5.18,0c-2.79,1.1-5.06,3.7-3.76,7,1.19,3,3.6,3.17,5.72,3s4-.29,4.66,1.4-0.55,3-1.84,3.5a4.65,4.65,0,0,1-4.08-.45l-1.2,2.7a7.39,7.39,0,0,0,6.21.21c3-1.2,5-3.92,3.58-7.39-1.26-3.18-4.15-3.09-6.38-2.94-2,.12-3.34.16-3.93-1.33s0.58-2.79,1.85-3.29a4,4,0,0,1,3.38.27Zm-10.24-27.61h0a3.16,3.16,0,0,1,4.14-1.64l0.86,0.37a12.77,12.77,0,0,1,2.67-2.59l-0.35-.88a3.15,3.15,0,1,1,5.86-2.32l0.35,0.87a12.76,12.76,0,0,1,3.74.06l0.37-.86a3.15,3.15,0,0,1,5.78,2.5l-0.38.87a12.78,12.78,0,0,1,2.61,2.7l0.88-.34a3.15,3.15,0,0,1,3,5.46l-8.28,3.28a6.15,6.15,0,1,0-9.88,3.91l-7.53,3a3.15,3.15,0,0,1-2.29-5.87l0.87-.34a12.77,12.77,0,0,1,.07-3.65l-0.87-.37A3.16,3.16,0,0,1,871.91,194.29Zm-10.3,23.27,52.88-20.93,21.36,11.85-7.47,23.25h0L875.5,252.65Z" transform="translate(-837.29 -157.51)"/></svg>