<svg id="Layer_1" data-name="Layer 1" xmlns="http://www.w3.org/2000/svg" viewBox="0 0 122.88 122.88"><defs><style>.cls-1{fill:#60deb4;}.cls-1,.cls-2{fill-rule:evenodd;}.cls-2{fill:#fff;}</style></defs><title>56</title><path class="cls-1" d="M159.74,2097.62H282.62V2220.5H159.74V2097.62" transform="translate(-159.74 -2097.62)"/><path class="cls-2" d="M198.72,2131.7h45.09v37H198.72v-37Zm30.21,5.43a5.15,5.15,0,1,1-5.15,5.15A5.15,5.15,0,0,1,228.93,2137.12Zm7.94,21.56c0-.11,0-0.22,0-0.33v-1.18a7.76,7.76,0,0,0-13.86-4.79,11,11,0,0,1,3.45,6.3h10.41Zm-21.48-22.08a6.14,6.14,0,1,1-6.14,6.14A6.14,6.14,0,0,1,215.39,2136.61Zm9.47,25.7c0-.13,0-0.26,0-0.39v-1.4a9.25,9.25,0,0,0-18.51,0v1.4c0,0.13,0,.26,0,0.39h18.49Zm26.85-32.19v38.6h2a1.94,1.94,0,0,1,1.93,1.93v4.56a1.94,1.94,0,0,1-1.93,1.93h-1.58v17.37a1.94,1.94,0,0,1-1.93,1.93H192.14a1.94,1.94,0,0,1-1.93-1.93v-17.37h-1.58a1.94,1.94,0,0,1-1.93-1.93v-4.56a1.94,1.94,0,0,1,1.93-1.93h2.19v-38.6h-2.19a1.94,1.94,0,0,1-1.93-1.93v-4.56a1.94,1.94,0,0,1,1.93-1.93h65.09a1.94,1.94,0,0,1,1.93,1.93v4.56a1.94,1.94,0,0,1-1.93,1.93h-2Z" transform="translate(-159.74 -2097.62)"/></svg>