<svg id="Layer_1" data-name="Layer 1" xmlns="http://www.w3.org/2000/svg" viewBox="0 0 122.88 122.88"><defs><style>.cls-1{fill:#ebe07c;}.cls-1,.cls-2{fill-rule:evenodd;}.cls-2{fill:#fff;}</style></defs><title>16</title><path class="cls-1" d="M159.74,686.63H282.62V809.51H159.74V686.63" transform="translate(-159.74 -686.63)"/><path class="cls-2" d="M246.79,734.82a8,8,0,0,0-5.32-2c-3.3,0-6.68,1.65-6.68,5.37,0,3.41,2.4,4.49,4.62,5.19s4.21,1.26,4.21,3.17-1.78,2.71-3.3,2.71a5.2,5.2,0,0,1-4-2L234,749.46a8.32,8.32,0,0,0,6.27,2.61c3.59,0,6.66-1.91,6.66-5.83,0-3.59-3-4.62-5.34-5.34-2.06-.65-3.48-1.14-3.48-2.81s1.73-2.5,3.23-2.5a4.48,4.48,0,0,1,3.36,1.57ZM211.62,751.6h3.1V736.92h0.05l5.47,14.68h2.27l5.55-14.68h0.05V751.6h3.23V733.33h-5.11l-4.7,13h-0.08l-4.75-13h-5.08V751.6Zm-3.38-16.78a8,8,0,0,0-5.32-2c-3.3,0-6.68,1.65-6.68,5.37,0,3.41,2.4,4.49,4.62,5.19s4.21,1.26,4.21,3.17-1.78,2.71-3.3,2.71a5.2,5.2,0,0,1-4-2l-2.32,2.17a8.33,8.33,0,0,0,6.27,2.61c3.59,0,6.66-1.91,6.66-5.83,0-3.59-3-4.62-5.34-5.34-2.06-.65-3.48-1.14-3.48-2.81s1.73-2.5,3.23-2.5a4.48,4.48,0,0,1,3.35,1.57Zm12.94-22.39c20.64,0,37.37,13.45,37.37,30s-16.73,30-37.37,30c-5.42,7-13.22,11.26-24.91,11.21,4.07-4.55,6.51-9.6,4.67-16h0c-10.31-5.35-17.13-14.66-17.13-25.25C183.81,725.88,200.54,712.43,221.18,712.43Z" transform="translate(-159.74 -686.63)"/></svg>