<svg id="Layer_1" data-name="Layer 1" xmlns="http://www.w3.org/2000/svg" viewBox="0 0 122.88 122.88"><defs><style>.cls-1{fill:#a38456;}.cls-1,.cls-2{fill-rule:evenodd;}.cls-2{fill:#fff;}</style></defs><title>55</title><path class="cls-1" d="M837.29,1921.25H960.17v122.88H837.29V1921.25" transform="translate(-837.29 -1921.25)"/><path class="cls-2" d="M898.73,1944.82A11.22,11.22,0,1,1,887.51,1956a11.22,11.22,0,0,1,11.22-11.22m-33.6,53.76h67.2v7.4H911.49v14.58H886V2006H865.13v-7.4Zm8.66-3.08h9v-4.9a1.25,1.25,0,0,1,2.51,0v4.9H906v-7.08a3.37,3.37,0,0,1-2.11-3.12v-4.67a3.36,3.36,0,0,1,6.72,0v4.67a3.37,3.37,0,0,1-2.11,3.12v7.08h3.64v-4.9a1.25,1.25,0,0,1,2.51,0v4.9h9v-12.7a12.74,12.74,0,0,0-12.7-12.7H904.6l-5.69,14.69-6-14.69h-6.38a12.74,12.74,0,0,0-12.7,12.7v12.7Z" transform="translate(-837.29 -1921.25)"/></svg>