<svg id="Layer_1" data-name="Layer 1" xmlns="http://www.w3.org/2000/svg" viewBox="0 0 122.88 122.88"><defs><style>.cls-1{fill:#10489b;}.cls-1,.cls-2{fill-rule:evenodd;}.cls-2{fill:#fff;}</style></defs><title>31</title><path class="cls-1" d="M159.74,1215.75H282.62v122.88H159.74V1215.75" transform="translate(-159.74 -1215.75)"/><path class="cls-2" d="M204.45,1259.4h0a5.46,5.46,0,0,1,5.44,5.44v6.1a5.44,5.44,0,1,1-10.88,0v-6.1a5.46,5.46,0,0,1,5.44-5.44m33.47,0h0a5.46,5.46,0,0,1,5.44,5.44v6.1a5.44,5.44,0,0,1-10.88,0v-6.1A5.46,5.46,0,0,1,237.91,1259.4Zm-48.12,26.66v11.59q31.12,14.84,62.24,0v-11.33C231.28,1293.93,210.54,1293.71,189.79,1286.05Zm14.66-36.73a20.47,20.47,0,0,1,16.73,8.35,20.47,20.47,0,0,1,16.73-8.35c11.07,0,20,8.31,20,18.56s-9,18.56-20,18.56a20.47,20.47,0,0,1-16.73-8.35,20.47,20.47,0,0,1-16.73,8.35c-11.07,0-20-8.31-20-18.56S193.38,1249.32,204.45,1249.32Z" transform="translate(-159.74 -1215.75)"/></svg>