<svg id="Layer_1" data-name="Layer 1" xmlns="http://www.w3.org/2000/svg" viewBox="0 0 122.88 122.88"><defs><style>.cls-1{fill:#9400d3;}.cls-1,.cls-3{fill-rule:evenodd;}.cls-2,.cls-3{fill:#fff;}</style></defs><title>28</title><path class="cls-1" d="M498.51,1039.38H621.39v122.88H498.51V1039.38" transform="translate(-498.51 -1039.38)"/><path class="cls-2" d="M534.69,1112.8a2.13,2.13,0,0,1,0-4.25h17.55a23.87,23.87,0,0,0,1.11,4.25H534.69Zm0,10.1a2.13,2.13,0,0,1,0-4.25h21.76a24.17,24.17,0,0,0,3.92,4.25H534.69Zm0-30.3a2.13,2.13,0,0,1,0-4.25h23.57a24.16,24.16,0,0,0-3.12,4.25H534.69Zm0,10.1a2.13,2.13,0,0,1,0-4.25h18a23.93,23.93,0,0,0-.73,4.25H534.69Zm39.45,32.87H526.59a3.85,3.85,0,0,1-2.71-1.13h0a3.85,3.85,0,0,1-1.13-2.71v-53.3l0.62-.62,11.1-11.1,0.62-.62h39.05a3.85,3.85,0,0,1,2.71,1.13h0a3.84,3.84,0,0,1,1.13,2.71v3.37a7.61,7.61,0,0,0-4.25,0v-3H536.84l-9.85,9.85v51.14h46.75v-2.79c0.72,0.07,1.46.1,2.2,0.1s1.38,0,2.05-.09v3.18a3.85,3.85,0,0,1-1.13,2.71h0A3.84,3.84,0,0,1,574.14,1135.57Z" transform="translate(-498.51 -1039.38)"/><path class="cls-3" d="M575.94,1088.2a16.4,16.4,0,1,1-16.4,16.4,16.4,16.4,0,0,1,16.4-16.4m0,8a8.41,8.41,0,1,1-8.41,8.41A8.41,8.41,0,0,1,575.94,1096.2Zm0-4.66a13.07,13.07,0,1,1-13.07,13.07A13.07,13.07,0,0,1,575.94,1091.53Zm0,8.24a4.83,4.83,0,1,1-4.83,4.83A4.83,4.83,0,0,1,575.94,1099.77Zm4.83-15.85a21.23,21.23,0,1,1-9.66,0v-3.3a4.84,4.84,0,0,1,4.83-4.83h0a4.84,4.84,0,0,1,4.83,4.83v3.3Zm-3.83-.53q1,0,1.92.18v-2.95a2.91,2.91,0,1,0-5.83,0v2.95q0.95-.13,1.92-0.18v-2.77a1,1,0,0,1,2,0v2.77Z" transform="translate(-498.51 -1039.38)"/></svg>