<svg id="Layer_1" data-name="Layer 1" xmlns="http://www.w3.org/2000/svg" viewBox="0 0 122.88 122.88"><defs><style>.cls-1{fill:orchid;}.cls-1,.cls-2{fill-rule:evenodd;}.cls-2{fill:#fff;}</style></defs><title>Telemarketing</title><path class="cls-1" d="M498.51,2803.12H621.39V2926H498.51V2803.12" transform="translate(-498.51 -2803.12)"/><path class="cls-2" d="M534.36,2858.45h0q0-.33,0-0.66v0.66Zm57.32,7.56v-7.09q0-.85,0-1.68v0h0a31.73,31.73,0,0,0-63.36,0h0v17.66l8.4,4.15v1.58a1.53,1.53,0,0,0,1.53,1.53h4.14a1.53,1.53,0,0,0,1.53-1.53V2855a1.53,1.53,0,0,0-1.53-1.53h-4.14a1.53,1.53,0,0,0-1.53,1.53v2.75h-2.26a25.62,25.62,0,0,1,51.19,0,0,0,0,0,1,0,0h-2.26V2855a1.53,1.53,0,0,0-1.53-1.53h-4.14A1.53,1.53,0,0,0,576,2855v25.62a1.53,1.53,0,0,0,1.53,1.53h4.14a1.53,1.53,0,0,0,1.53-1.53V2879l2.43-1.2c-0.08,5-.92,9.19-2.71,12.44a13.58,13.58,0,0,1-8.13,6.57A4,4,0,0,0,571,2894H563.5a4,4,0,0,0-4,4h0a4,4,0,0,0,4,4H571a4,4,0,0,0,3.68-2.48,16.07,16.07,0,0,0,10.43-8c2.14-3.89,3.06-8.92,3-14.84l3.5-1.73Z" transform="translate(-498.51 -2803.12)"/></svg>