<svg id="Layer_1" data-name="Layer 1" xmlns="http://www.w3.org/2000/svg" viewBox="0 0 122.88 122.88"><defs><style>.cls-1{fill:#5f9ea0;}.cls-1,.cls-2{fill-rule:evenodd;}.cls-2{fill:#fff;}</style></defs><title>46</title><path class="cls-1" d="M159.74,1744.88H282.62v122.88H159.74V1744.88" transform="translate(-159.74 -1744.88)"/><path class="cls-2" d="M199.87,1806.31l7.72,6.28-21.82,19.77,35.41-22.65,35.41,22.65-21.82-19.77,8.54-7v-22.9H199.87v23.57Zm4.68-6.38h16.94V1803H204.55v-3.09Zm0-12.66h34.07v3.09H204.55v-3.09Zm0,6.33h34.07v3.09H204.55v-3.09Zm-20.74-1h9.78l-7,2.88,9,7.29v-22.73a1.65,1.65,0,0,1,1.65-1.65H246a1.65,1.65,0,0,1,1.65,1.65v22.06l8.13-6.62-7-2.88h9.78v41.59H183.81v-41.59Z" transform="translate(-159.74 -1744.88)"/></svg>