<?xml version="1.0" encoding="utf-8"?>
<!-- Generator: Adobe Illustrator 19.0.0, SVG Export Plug-In . SVG Version: 6.00 Build 0)  -->
<svg version="1.1" id="Layer_1" xmlns="http://www.w3.org/2000/svg" xmlns:xlink="http://www.w3.org/1999/xlink" x="0px" y="0px"
	 viewBox="68.6 0 416 416" style="enable-background:new 68.6 0 416 416;" xml:space="preserve">
<style type="text/css">
	.st0{fill:#1DA1F2;}
</style>
<path class="st0" d="M68.6,0v416h416V0H68.6z M380.6,156.5v6.6c0,69-54.7,148.9-153.3,148.9c-30.7,0-59.1-8.8-82.1-23
	c4.4,0,8.8,1.1,13.1,1.1c25.2,0,48.2-8.8,66.8-21.9c-24.1,0-43.8-15.3-50.4-36.1c3.3,1.1,6.6,1.1,9.9,1.1c4.4,0,9.9-1.1,14.2-2.2
	c-25.2-4.4-43.8-26.3-43.8-51.5v-1.1c7.7,4.4,15.3,6.6,24.1,6.6c-14.2-9.9-24.1-25.2-24.1-43.8c0-9.9,2.2-18.6,7.7-26.3
	c26.3,31.7,66.8,52.5,110.6,54.7c-1.1-3.3-1.1-7.7-1.1-12c0-28.5,24.1-52.5,53.6-52.5c15.3,0,29.6,6.6,39.4,16.4
	c12-2.2,24.1-6.6,33.9-13.1c-4.4,12-12,23-24.1,28.5c10.9-1.1,20.8-4.4,30.7-8.8C400.3,140.1,391.5,148.9,380.6,156.5z"/>
</svg>
