<svg id="Layer_1" data-name="Layer 1" xmlns="http://www.w3.org/2000/svg" viewBox="0 0 122.88 122.88"><defs><style>.cls-1{fill:brown;}.cls-1,.cls-2{fill-rule:evenodd;}.cls-2{fill:#fff;}</style></defs><title>65</title><path class="cls-1" d="M837.29,2274H960.17v122.88H837.29V2274" transform="translate(-837.29 -2274)"/><path class="cls-2" d="M878.17,2347.14h21.19a2.07,2.07,0,1,1,0,4.15H878.17a2.07,2.07,0,0,1,0-4.15m0-8.14h21.19a2.07,2.07,0,1,1,0,4.15H878.17A2.07,2.07,0,0,1,878.17,2339Zm0-8.14h21.19a2.07,2.07,0,1,1,0,4.15H878.17A2.07,2.07,0,0,1,878.17,2330.87ZM910,2309.08a21.42,21.42,0,0,1,18.5,18.28,1.64,1.64,0,0,1-1.22,1.82l-0.32.08a1.65,1.65,0,0,1-2-1.37,17.79,17.79,0,0,0-15.39-15.22,1.65,1.65,0,0,1-1.4-2l0.07-.32A1.64,1.64,0,0,1,910,2309.08Zm-1.67,7.07a14.21,14.21,0,0,1,13.14,13.16,1.64,1.64,0,0,1-1.23,1.71l-0.33.08a1.65,1.65,0,0,1-2.06-1.49,10.58,10.58,0,0,0-9.83-9.85,1.65,1.65,0,0,1-1.5-2l0.07-.33A1.64,1.64,0,0,1,908.29,2316.15Zm3.43-14.73a29.27,29.27,0,0,1,24.35,23.91,1.64,1.64,0,0,1-1.21,1.87l-0.32.08a1.65,1.65,0,0,1-2-1.32,25.63,25.63,0,0,0-21.35-21,1.65,1.65,0,0,1-1.36-2l0.07-.32A1.65,1.65,0,0,1,911.72,2301.41Zm-23,17.25c15.14,0,27.41,10,27.41,22.42,0,6.49-3.37,12.33-8.75,16.42v12l-9.15-7.37h0a32.84,32.84,0,0,1-9.5,1.39c-15.14,0-27.41-10-27.41-22.42S873.63,2318.66,888.77,2318.66Z" transform="translate(-837.29 -2274)"/></svg>