<svg id="Layer_1" data-name="Layer 1" xmlns="http://www.w3.org/2000/svg" viewBox="0 0 122.88 122.88"><defs><style>.cls-1{fill:#ff1493;}.cls-1,.cls-2{fill-rule:evenodd;}.cls-2{fill:#fff;}</style></defs><title>42</title><path class="cls-1" d="M329.13,1568.5H452v122.88H329.13V1568.5" transform="translate(-329.13 -1568.5)"/><path class="cls-2" d="M362.4,1608h56.34a1.84,1.84,0,0,1,1.84,1.84v40.24a1.84,1.84,0,0,1-1.84,1.84H362.4a1.84,1.84,0,0,1-1.84-1.84v-40.24a1.84,1.84,0,0,1,1.84-1.84m25.7,49.21H393V1662h-4.94v-4.83Zm12.52,0h4.94V1662h-4.94v-4.83Zm12.52,0h4.94V1662h-4.94v-4.83Zm-50.07,0H368V1662h-4.94v-4.83Zm25-59.33H393v4.83h-4.94v-4.83Zm12.52,0h4.94v4.83h-4.94v-4.83Zm12.52,0h4.94v4.83h-4.94v-4.83Zm-50.07,0H368v4.83h-4.94v-4.83Zm12.52,0h4.94v4.83h-4.94v-4.83Zm0,59.33h4.94V1662h-4.94v-4.83Zm30.37-27.25-13.31-7.88-13.31-7.88v31.51l13.31-7.88Zm-47-37.37h63.24a3.69,3.69,0,0,1,3.68,3.68v67.38a3.69,3.69,0,0,1-3.68,3.68H358.95a3.69,3.69,0,0,1-3.68-3.68v-67.38A3.69,3.69,0,0,1,358.95,1592.57Z" transform="translate(-329.13 -1568.5)"/></svg>