<svg id="Layer_1" data-name="Layer 1" xmlns="http://www.w3.org/2000/svg" viewBox="0 0 122.88 122.88"><defs><style>.cls-1{fill:#f4a460;}.cls-1,.cls-2{fill-rule:evenodd;}.cls-2{fill:#fff;}</style></defs><title>79</title><path class="cls-1" d="M667.9,2803.12H790.78V2926H667.9V2803.12" transform="translate(-667.9 -2803.12)"/><path class="cls-2" d="M731.16,2838.79v13.45a12.39,12.39,0,0,1,5.62,2.33l9.51-9.51a5.94,5.94,0,1,1,2.57,2.57l-9.51,9.51a12.4,12.4,0,0,1,2.33,5.62h13.45a5.94,5.94,0,1,1,0,3.63H741.67a12.39,12.39,0,0,1-2.33,5.62l9.51,9.51a5.94,5.94,0,1,1-2.57,2.57l-9.51-9.51a12.39,12.39,0,0,1-5.62,2.33v13.45a5.94,5.94,0,1,1-3.63,0v-13.45a12.4,12.4,0,0,1-5.62-2.33l-9.51,9.51a5.94,5.94,0,1,1-2.57-2.57l9.51-9.51a12.39,12.39,0,0,1-2.33-5.62H703.57a5.94,5.94,0,1,1,0-3.63H717a12.4,12.4,0,0,1,2.33-5.62l-9.51-9.51a5.94,5.94,0,1,1,2.57-2.57l9.51,9.51a12.4,12.4,0,0,1,5.62-2.33v-13.45a5.94,5.94,0,1,1,3.63,0" transform="translate(-667.9 -2803.12)"/></svg>