<svg id="Layer_1" data-name="Layer 1" xmlns="http://www.w3.org/2000/svg" viewBox="0 0 122.88 122.88"><defs><style>.cls-1{fill:green;}.cls-1,.cls-2{fill-rule:evenodd;}.cls-2{fill:#fff;}</style></defs><title>50</title><path class="cls-1" d="M837.29,1744.88H960.17v122.88H837.29V1744.88" transform="translate(-837.29 -1744.88)"/><path class="cls-2" d="M920,1816.91a5.74,5.74,0,1,1-5.74,5.74,5.74,5.74,0,0,1,5.74-5.74m-0.83-34.24h-49v39.06Zm-51.76-7.46h54.56a4.67,4.67,0,0,1,4.66,4.66v32.05l0.89-.89a1.25,1.25,0,0,1,1.76,0l2.34,2.34a1.25,1.25,0,0,1,0,1.76l-0.92.92a12.52,12.52,0,0,1,1.53,3.7h1.3a1.25,1.25,0,0,1,1.24,1.24v3.32a1.25,1.25,0,0,1-1.24,1.24h-1.3a12.52,12.52,0,0,1-1.53,3.7l0.92,0.92a1.25,1.25,0,0,1,0,1.76l-2.34,2.34a1.25,1.25,0,0,1-1.76,0l-0.92-.92a12.52,12.52,0,0,1-3.7,1.53v1.3a1.25,1.25,0,0,1-1.24,1.24h-3.31a1.25,1.25,0,0,1-1.24-1.24v-1.3a12.51,12.51,0,0,1-3.7-1.53l-0.92.92a1.25,1.25,0,0,1-1.76,0l-2.34-2.34a1.25,1.25,0,0,1,0-1.76l0.92-.92,0-.06H867.37a4.67,4.67,0,0,1-4.66-4.66v-44.66A4.67,4.67,0,0,1,867.37,1775.2Z" transform="translate(-837.29 -1744.88)"/></svg>