<svg id="Layer_1" data-name="Layer 1" xmlns="http://www.w3.org/2000/svg" viewBox="0 0 122.88 122.88"><defs><style>.cls-1{fill:#9acd32;}.cls-1,.cls-2{fill-rule:evenodd;}.cls-2{fill:#fff;}</style></defs><title>61</title><path class="cls-1" d="M159.74,2274H282.62v122.88H159.74V2274" transform="translate(-159.74 -2274)"/><path class="cls-2" d="M245.24,2317.36a7.89,7.89,0,1,1-7.89,7.89,7.89,7.89,0,0,1,7.89-7.89m-61.43-1.21H223.4v5H183.81v-5Zm22.83,11.61h5.66V2349h-5.66v-21.21Zm-7.47,3.84h5.66V2349h-5.66V2331.6Zm-7.47,4.24h5.66V2349h-5.66v-13.13Zm43.68,18.88h23.18v-9.09a9.12,9.12,0,0,0-9.09-9.09h-4.8c-0.91-.17-2-0.35-3.17-0.55a83.44,83.44,0,0,1-9.76-2.05,68.15,68.15,0,0,1-8.08-3.15l-1.1-.47V2323h-2.83v6c-0.33-.71-0.63-1.42-0.9-2a2.52,2.52,0,0,0-1.37-1.55,2.32,2.32,0,0,0-1.79.19c-0.5.31-.76,0.86-0.42,2.28a21,21,0,0,0,1.07,3.06,2.29,2.29,0,0,0-.82,2c0.06,0.86.48,1.92,2.34,3.54,0.52,0.46,1.16,1,1.9,1.48v13.83H187.5V2323h-2.83v31.71h37.88V2339.9c1.37,0.81,2.92,1.64,4.61,2.43a85,85,0,0,0,8.21,3.26v9.13Z" transform="translate(-159.74 -2274)"/></svg>