<?xml version="1.0" encoding="utf-8"?>
<!-- Generator: Adobe Illustrator 18.0.0, SVG Export Plug-In . SVG Version: 6.00 Build 0)  -->
<!DOCTYPE svg PUBLIC "-//W3C//DTD SVG 1.1//EN" "http://www.w3.org/Graphics/SVG/1.1/DTD/svg11.dtd">
<svg version="1.1" id="Capa_1" xmlns="http://www.w3.org/2000/svg" xmlns:xlink="http://www.w3.org/1999/xlink" x="0px" y="0px"
	 viewBox="0 0 512 512" enable-background="new 0 0 512 512" xml:space="preserve">
<g>
	<path fill="#176ECB" d="M484.2,43.1v-0.7h-2.5H30.1h-2.5v0.7c-14.8,1-25.8,12.8-27.6,27v2.5v297.6c0,5.8,1.5,10.6,4,15
		c5.8,10.2,14.3,15.3,26.1,15.3h164.8v41.6h-31.3c-7.8,0-13.8,6-13.8,13.8c0,7.7,6,13.8,13.8,13.8h184.6c7.8,0,14-6,14-13.8
		c0-7.7-6.3-13.8-14-13.8h-31.3v-41.6h164.8c11.8,0,20.4-5.1,26.1-15.3c2.6-4.6,4.3-9.5,4.3-15V72.6v-2.5
		C510.2,55.8,498.5,44.1,484.2,43.1z M484.2,72.6v297.6c0,1.8-0.7,2.5-2.5,2.5H30.1c-1.8,0-2.5-0.7-2.5-2.5V72.6v-2.5h456.6
		L484.2,72.6L484.2,72.6z"/>
</g>
<g>
	<g>
		<path fill="#176ECB" d="M302.6,156.1l25.4,16.1c2.2,1.4,4.9-0.3,4.9-3.1v-10.1h15.6c3.2,0,5.9,2.6,5.9,5.9v40.8c0,3.4,2.7,6,6,6
			s6-2.7,6-6v-40.8c0-9.9-8-18-18-18h-15.6v-10.1c0-2.8-2.7-4.5-4.9-3.1l-25.4,16.1C300.4,151.3,300.4,154.7,302.6,156.1z"/>
		<path fill="#176ECB" d="M146.8,210.8c1.4,2.2,4.8,2.2,6.2,0l16.1-25.4c1.4-2.2-0.3-4.9-3.1-4.9h-10.1v-15.6c0-3.2,2.6-5.9,5.9-5.9
			h31.4c3.4,0,6-2.7,6-6c0-3.4-2.7-6-6-6h-31.4c-9.9,0-18,8-18,18v15.6h-10.1c-2.8,0-4.5,2.7-3.1,4.9L146.8,210.8z"/>
		<path fill="#176ECB" d="M288.8,318l-25.4-16.1c-2.2-1.4-4.9,0.3-4.9,3.1V315h-32.4c-3.4,0-6,2.7-6,6c0,3.4,2.7,6,6,6h32.4v10.1
			c0,2.8,2.7,4.5,4.9,3.1l25.4-16.1C291,322.8,291,319.3,288.8,318z"/>
		<path fill="#176ECB" d="M249.5,211.2h2.9h55.5c-0.3-23.1,0.7-35.4-14.3-40.8c-13.6-5.2-21.7-10.5-21.7-10.5l-10.5,33.1l-1.4,4.5
			l-4.7-13.3c10.8-15.1-0.8-15.8-2.8-15.8l0,0c0,0,0,0-0.1,0l0,0l0,0c0,0,0,0-0.1,0l0,0c-2,0-13.6,0.7-2.8,15.8l-4.7,13.3l-1.4-4.5
			l-10.5-33.1c0,0-8.2,5.3-21.7,10.5c-15,5.5-14.1,17.8-14.3,40.8H249.5z"/>
		<path fill="#176ECB" d="M228.9,138.8c1.2,7.8,7.2,17.7,17.1,21.2c4,1.4,8.5,1.4,12.5,0c9.7-3.5,15.9-13.3,17.1-21.1
			c1.3-0.1,3-1.9,4.9-8.5c2.6-8.9-0.1-10.3-2.4-10.1c0.5-1.2,0.8-2.4,1-3.7c3.9-23.1-7.6-24-7.6-24s-1.9-3.6-6.9-6.4
			c-3.4-2-8-3.5-14.1-3c-2,0.1-3.9,0.5-5.7,1.1l0,0c-2.2,0.8-4.3,1.8-6.2,3.2c-2.3,1.4-4.5,3.2-6.4,5.3c-3,3.1-5.7,7.1-6.9,12
			c-1,3.7-0.8,7.6,0.1,11.8l0,0c0.2,1.2,0.5,2.4,1,3.7c-2.3-0.2-5,1.1-2.4,10.1C225.9,136.9,227.6,138.7,228.9,138.8z"/>
		<path fill="#176ECB" d="M402.6,318.1c-13.6-5.2-21.7-10.5-21.7-10.5l-10.5,33.1l-1.4,4.5l-4.7-13.3c10.8-15.1-0.8-15.8-2.8-15.8
			l0,0c0,0,0,0-0.1,0l0,0l0,0c0,0,0,0-0.1,0l0,0c-2,0-13.6,0.7-2.8,15.8l-4.7,13.3l-1.4-4.5l-10.5-33.1c0,0-8.2,5.3-21.7,10.5
			c-15,5.5-14.1,17.8-14.3,40.8h52.7h2.9h55.5C416.6,335.8,417.5,323.5,402.6,318.1z"/>
		<path fill="#176ECB" d="M359.6,231c-2,0.1-3.9,0.5-5.7,1.1l0,0c-2.2,0.8-4.3,1.8-6.2,3.2c-2.3,1.4-4.5,3.2-6.4,5.3
			c-3,3.1-5.7,7.1-6.9,12c-1,3.7-0.8,7.6,0.1,11.8l0,0c0.2,1.2,0.5,2.4,1,3.7c-2.3-0.2-5,1.1-2.4,10.1c1.8,6.5,3.6,8.4,4.9,8.5
			c1.2,7.8,7.2,17.7,17.1,21.2c4,1.4,8.5,1.4,12.5,0c9.7-3.5,15.9-13.3,17.1-21.1c1.3-0.1,3-1.9,4.9-8.5c2.6-8.9-0.1-10.3-2.4-10.1
			c0.5-1.2,0.8-2.4,1-3.7c3.9-23.1-7.6-24-7.6-24s-1.9-3.6-6.9-6.4C370.4,232,365.7,230.4,359.6,231z"/>
		<path fill="#176ECB" d="M191.8,318.1c-13.6-5.2-21.7-10.5-21.7-10.5l-10.5,33.1l-1.4,4.5l-4.7-13.3c10.8-15.1-0.8-15.8-2.8-15.8
			l0,0c0,0,0,0-0.1,0l0,0l0,0c0,0,0,0-0.1,0l0,0c-2,0-13.6,0.7-2.8,15.8l-4.7,13.3l-1.4-4.5l-10.5-33.1c0,0-8.2,5.3-21.7,10.5
			c-15,5.5-14.1,17.8-14.3,40.8h52.7h2.9h55.5C205.9,335.8,206.8,323.5,191.8,318.1z"/>
		<path fill="#176ECB" d="M127.2,286.6c1.2,7.8,7.2,17.7,17.1,21.2c4,1.4,8.5,1.4,12.5,0c9.7-3.5,15.9-13.3,17.1-21.1
			c1.3-0.1,3-1.9,4.9-8.5c2.6-8.9-0.1-10.3-2.4-10.1c0.5-1.2,0.8-2.4,1-3.7c3.9-23.1-7.6-24-7.6-24s-1.9-3.6-6.9-6.4
			c-3.4-2-8-3.5-14.1-3c-2,0.1-3.9,0.5-5.7,1.1l0,0c-2.2,0.8-4.3,1.8-6.2,3.2c-2.3,1.4-4.5,3.2-6.4,5.3c-3,3.1-5.7,7.1-6.9,12
			c-1,3.7-0.8,7.6,0.1,11.8l0,0c0.2,1.2,0.5,2.4,1,3.7c-2.3-0.2-5,1.1-2.4,10.1C124.2,284.6,125.9,286.5,127.2,286.6z"/>
	</g>
</g>
</svg>
