<?xml version="1.0" encoding="utf-8"?>
<!-- Generator: Adobe Illustrator 18.0.0, SVG Export Plug-In . SVG Version: 6.00 Build 0)  -->
<!DOCTYPE svg PUBLIC "-//W3C//DTD SVG 1.1//EN" "http://www.w3.org/Graphics/SVG/1.1/DTD/svg11.dtd">
<svg version="1.1" id="Capa_1" xmlns="http://www.w3.org/2000/svg" xmlns:xlink="http://www.w3.org/1999/xlink" x="0px" y="0px"
	 viewBox="0 0 512 512" enable-background="new 0 0 512 512" xml:space="preserve">
<g>
	<path fill="#176ECB" d="M484.2,43.1v-0.7h-2.5H30.1h-2.5v0.7c-14.8,1-25.8,12.8-27.6,27v2.5v297.6c0,5.8,1.5,10.6,4,15
		c5.8,10.2,14.3,15.3,26.1,15.3h164.8v41.6h-31.3c-7.8,0-13.8,6-13.8,13.8c0,7.7,6,13.8,13.8,13.8h184.6c7.8,0,14-6,14-13.8
		c0-7.7-6.3-13.8-14-13.8h-31.3v-41.6h164.8c11.8,0,20.4-5.1,26.1-15.3c2.6-4.6,4.3-9.5,4.3-15V72.6v-2.5
		C510.2,55.8,498.5,44.1,484.2,43.1z M484.2,72.6v297.6c0,1.8-0.7,2.5-2.5,2.5H30.1c-1.8,0-2.5-0.7-2.5-2.5V72.6v-2.5h456.6
		L484.2,72.6L484.2,72.6z"/>
</g>
<g>
	<g>
		<path fill="#176ECB" d="M379.1,318.3L324,263.3l-4,4l-6.1-6.1c31.3-41.9,27.9-101.5-10.2-139.6c-41.9-41.8-109.6-41.8-151.4,0
			s-41.8,109.6,0,151.4c38.1,38.1,97.7,41.5,139.6,10.2l6.1,6.1l-4,4l55.1,55.1c8.2,8.2,21.6,8.2,29.9,0
			C387.3,340,387.3,326.6,379.1,318.3z M280.5,249.6c-29,29-75.9,29-104.9,0s-29-75.9,0-104.9s75.9-29,104.9,0
			C309.5,173.7,309.5,220.7,280.5,249.6z"/>
		<path fill="#176ECB" d="M206.6,192.4c1.1,7.1,6.6,16.2,15.6,19.3c3.7,1.3,7.7,1.3,11.4,0c8.8-3.2,14.5-12.2,15.6-19.3
			c1.2-0.1,2.7-1.8,4.5-7.7c2.3-8.2-0.2-9.4-2.2-9.2c0.4-1.2,0.7-2.3,0.9-3.4c3.5-21.2-6.9-21.9-6.9-21.9s-1.7-3.3-6.3-5.8
			c-3-1.8-7.3-3.2-12.9-2.7c-1.8,0.1-3.5,0.4-5.1,1l0,0c-2,0.7-4,1.7-5.7,2.9c-2.1,1.3-4.1,3-5.8,4.8c-2.7,2.8-5.2,6.5-6.3,11
			c-0.9,3.4-0.7,6.9,0.1,10.8l0,0c0.2,1.1,0.5,2.3,0.9,3.4c-2.1-0.2-4.6,1-2.2,9.2C203.8,190.7,205.4,192.4,206.6,192.4z"/>
		<path fill="#176ECB" d="M210.2,211.6c0,0-7.4,4.8-19.8,9.6c-6.7,2.4-9.9,6.4-11.5,12.2c1.8,2.4,3.7,4.7,5.9,6.9
			c23.8,23.8,62.5,23.8,86.3,0c2.2-2.2,4.2-4.5,5.9-6.9c-1.4-5.8-4.7-9.8-11.3-12.2c-12.4-4.7-19.8-9.6-19.8-9.6l-18,8"/>
	</g>
</g>
</svg>
