<?xml version="1.0" encoding="utf-8"?>
<!-- Generator: Adobe Illustrator 18.0.0, SVG Export Plug-In . SVG Version: 6.00 Build 0)  -->
<!DOCTYPE svg PUBLIC "-//W3C//DTD SVG 1.1//EN" "http://www.w3.org/Graphics/SVG/1.1/DTD/svg11.dtd">
<svg version="1.1" id="Layer_1" xmlns="http://www.w3.org/2000/svg" xmlns:xlink="http://www.w3.org/1999/xlink" x="0px" y="0px"
	 viewBox="0 0 612 792" enable-background="new 0 0 612 792" xml:space="preserve">
<g>
	<path fill="#176ECB" d="M306,347.4c64.4,0,114.4-71.8,114.4-133.6c0-63.1-51.3-114.4-114.4-114.4s-114.4,51.3-114.4,114.4
		C191.6,275.5,241.6,347.4,306,347.4z M306,140.2c40.5,0,73.4,32.9,73.4,73.4c0,41.7-33.8,92.6-73.4,92.6s-73.4-50.9-73.4-92.6
		C232.6,173.2,265.5,140.2,306,140.2z"/>
	<path fill="#176ECB" d="M483.6,481.7V407c0-48.6-26.7-91-66-113.6c0.1,1.9,0.4,3.7,0.4,5.6c0,34.4-50.6,112-83.7,159.3l-13.6-66.7
		l14.5-14.5c1.7-1.7,1.7-4.5,0-6.2l-5.6-5.6c-3.5-3.5-8.1-5.4-13-5.4h-20.9c-4.9,0-9.6,1.9-13,5.4L277,371c-1.7,1.7-1.7,4.5,0,6.2
		l14.5,14.5l-13.6,66.7c-33.1-47.3-83.7-124.9-83.7-159.3c0-1.9,0.2-3.7,0.4-5.6c-39.4,22.6-66,64.9-66,113.6v74.7
		c-29.5,1.1-53.2,25.1-53.2,54.9v101.1c0,30.4,24.6,55,55,55h351.3c30.4,0,55.1-24.7,55.1-55V536.6
		C536.7,506.9,513,482.8,483.6,481.7z M495.7,637.7c0,7.8-6.3,14-14.1,14H130.4c-7.8,0-14-6.3-14-14V536.6c0-7.8,6.3-14,14-14h351.3
		c7.8,0,14.1,6.3,14.1,14v101.1H495.7z"/>
</g>
<g enable-background="new    ">
	<path fill="#176ECB" d="M206,591.2c0-6.8,1-12.8,3.1-18.1c2.1-5.3,4.9-9.8,8.4-13.4c3.5-3.7,7.7-6.5,12.4-8.4
		c4.7-1.9,9.7-2.9,14.9-2.9c5.1,0,9.7,1.1,13.8,3.2s7.6,4.6,10.3,7.4l-10.1,11.4c-2.1-1.9-4.2-3.4-6.3-4.5c-2.1-1.1-4.6-1.6-7.4-1.6
		c-2.8,0-5.5,0.6-7.9,1.8c-2.5,1.2-4.6,2.9-6.4,5.2c-1.8,2.2-3.3,5-4.3,8.2c-1,3.2-1.6,6.9-1.6,11c0,8.4,1.8,14.9,5.4,19.6
		c3.6,4.6,8.4,6.9,14.4,6.9c3.3,0,6.2-0.7,8.8-2c2.5-1.3,4.8-3.1,6.8-5.2l10.1,11.1c-3.4,4-7.3,7-11.7,9s-9.1,3-14.2,3
		c-5.2,0-10.2-0.9-14.9-2.7c-4.7-1.8-8.8-4.4-12.2-7.9s-6.2-7.9-8.2-13.1C207,604.1,206,598.1,206,591.2z"/>
	<path fill="#176ECB" d="M296,589.6L274.7,550h20.5l7.1,15.4c0.9,1.9,1.8,3.9,2.7,6.1c0.9,2.1,2,4.5,3.1,7.1h0.5
		c0.9-2.6,1.8-4.9,2.7-7.1s1.7-4.1,2.6-6.1l6.5-15.4h19.6L319,590.5l22.5,41H321l-8.1-16.6c-1-2.2-2-4.3-2.9-6.4
		c-1-2.1-2-4.4-3.2-6.9h-0.5c-0.9,2.5-1.8,4.8-2.8,6.9c-0.9,2.1-1.8,4.3-2.7,6.4l-7.6,16.6h-19.8L296,589.6z"/>
	<path fill="#176ECB" d="M382.3,633c-5.5,0-10.5-1-15.1-2.9c-4.5-2-8.4-4.8-11.7-8.4c-3.2-3.7-5.8-8.1-7.6-13.4
		c-1.8-5.2-2.7-11.2-2.7-17.9c0-6.7,0.9-12.6,2.7-17.8c1.8-5.2,4.3-9.6,7.6-13.1c3.2-3.5,7.1-6.2,11.7-8.1c4.5-1.9,9.6-2.8,15.1-2.8
		s10.5,0.9,15.1,2.8c4.5,1.9,8.4,4.6,11.7,8.2c3.2,3.6,5.8,8,7.6,13.2c1.8,5.2,2.7,11.1,2.7,17.7c0,6.7-0.9,12.6-2.7,17.9
		c-1.8,5.2-4.3,9.7-7.6,13.4c-3.2,3.7-7.1,6.5-11.7,8.4C392.8,632,387.8,633,382.3,633z M382.3,617.1c5.6,0,10-2.4,13.2-7.2
		c3.2-4.8,4.9-11.3,4.9-19.6c0-8.2-1.6-14.5-4.9-19.1c-3.2-4.6-7.7-6.9-13.2-6.9c-5.6,0-10,2.3-13.2,6.9c-3.2,4.6-4.9,11-4.9,19.1
		c0,8.2,1.6,14.8,4.9,19.6C372.3,614.7,376.7,617.1,382.3,617.1z"/>
</g>
</svg>
