<?xml version="1.0" encoding="iso-8859-1"?>
<!-- Generator: Adobe Illustrator 16.0.0, SVG Export Plug-In . SVG Version: 6.00 Build 0)  -->
<!DOCTYPE svg PUBLIC "-//W3C//DTD SVG 1.1//EN" "http://www.w3.org/Graphics/SVG/1.1/DTD/svg11.dtd">
<svg xmlns="http://www.w3.org/2000/svg" xmlns:xlink="http://www.w3.org/1999/xlink" version="1.1" id="Capa_1" x="0px" y="0px" width="512px" height="512px" viewBox="0 0 229.147 229.146" style="enable-background:new 0 0 229.147 229.146;" xml:space="preserve">
<g>
	<g>
		<polygon points="114.561,96.928 114.58,96.945 114.598,96.928   " fill="#176ecb"/>
		<path d="M99.141,92.245c0,1.16-0.088,2.326-0.237,3.492c4.545,0.791,10.096,1.19,15.658,1.19l-7.233-7.229l6.104-14.751h-0.061    l-2.378-2.719c1.154,0.411,2.344,0.661,3.586,0.661s2.433-0.244,3.581-0.655l-2.378,2.712h-0.062l6.104,14.751l-7.228,7.229    c5.553,0,11.101-0.399,15.649-1.19c-0.146-1.167-0.231-2.333-0.231-3.492c0-5.112,1.57-9.853,4.256-13.786    c-3.428-3.416-8.014-6.312-13.305-7.651c4.677-3.147,7.903-9.358,7.903-14.945c0-7.895-6.394-14.292-14.285-14.292    c-7.894,0-14.291,6.397-14.291,14.292c0,5.587,3.23,11.798,7.907,14.945c-5.289,1.34-9.883,4.235-13.308,7.657    C97.563,82.393,99.141,87.133,99.141,92.245z" fill="#176ecb"/>
		<path d="M90.854,142.961c-0.055-0.152-0.137-0.304-0.192-0.469l-2.326-2.667l1.671,0.597c-0.725-2.594-1.117-5.236-1.117-7.873    c0-6.021,2.171-11.496,5.651-15.887c-3.492-2.457-7.478-4.487-11.898-5.604c5.885-3.968,9.947-11.773,9.947-18.807    c0-9.932-8.044-17.976-17.972-17.976c-9.932,0-17.981,8.05-17.981,17.976c0,7.033,4.059,14.839,9.944,18.807    c-4.412,1.123-8.403,3.147-11.889,5.604c3.492,4.391,5.654,9.865,5.654,15.887c0,2.648-0.393,5.328-1.133,7.94l1.781-0.64    l-2.494,2.85c-0.03,0.098-0.079,0.177-0.119,0.269c4.966,0.646,10.601,0.962,16.237,0.962l-9.122-9.109l7.669-18.557h-0.073    l-2.987-3.416c1.44,0.518,2.941,0.828,4.506,0.828c1.559,0,3.051-0.305,4.503-0.822l-2.987,3.41h-0.076l7.675,18.557l-9.116,9.109    C80.255,143.93,85.885,143.607,90.854,142.961z" fill="#176ecb"/>
		<path d="M74.617,143.93L74.617,143.93L74.617,143.93z" fill="#176ecb"/>
		<path d="M154.542,143.93L154.542,143.93L154.542,143.93z" fill="#176ecb"/>
		<path d="M153.106,116.264h-0.085l-2.984-3.416c1.443,0.518,2.947,0.828,4.506,0.828c1.565,0,3.058-0.305,4.5-0.822l-2.989,3.41    h-0.062l7.667,18.557l-9.116,9.109c5.627,0,11.277-0.322,16.234-0.969c-0.055-0.134-0.128-0.273-0.183-0.407l-2.388-2.747    l1.712,0.615c-0.725-2.582-1.115-5.236-1.115-7.873c0-6.021,2.168-11.496,5.651-15.887c-3.489-2.457-7.478-4.481-11.886-5.604    c5.882-3.968,9.943-11.773,9.943-18.807c0-9.932-8.05-17.976-17.976-17.976c-9.932,0-17.981,8.05-17.981,17.976    c0,7.033,4.056,14.839,9.95,18.807c-4.421,1.123-8.415,3.147-11.898,5.604c3.483,4.391,5.65,9.865,5.65,15.887    c0,2.648-0.39,5.328-1.132,7.94l1.79-0.64l-2.497,2.844c-0.036,0.092-0.085,0.183-0.121,0.274    c4.969,0.646,10.601,0.968,16.239,0.968l-9.128-9.109L153.106,116.264z" fill="#176ecb"/>
		<path d="M43.206,152.564c6.266-4.221,10.58-12.532,10.58-20.021c0-10.57-8.562-19.135-19.123-19.135    c-10.571,0-19.138,8.565-19.138,19.135c0,7.489,4.317,15.801,10.577,20.021C11.119,156.369,0,169.383,0,179.027    c0,11.398,69.298,11.398,69.298,0C69.298,169.389,58.2,156.369,43.206,152.564z M34.663,187.576l-9.721-9.705l8.174-19.754h-0.082    l-3.172-3.629c1.541,0.548,3.124,0.883,4.801,0.883c1.659,0,3.249-0.329,4.789-0.883l-3.182,3.629h-0.079l8.181,19.754    L34.663,187.576z" fill="#176ecb"/>
		<path d="M123.135,152.564c6.26-4.221,10.57-12.532,10.57-20.021c0-10.57-8.562-19.135-19.126-19.135    c-10.567,0-19.135,8.565-19.135,19.135c0,7.489,4.314,15.801,10.574,20.021c-14.977,3.805-26.089,16.818-26.089,26.463    c0,11.398,69.292,11.398,69.292,0C149.221,169.389,138.115,156.369,123.135,152.564z M114.58,187.576l-9.715-9.705l8.174-19.754    h-0.088l-3.172-3.629c1.541,0.548,3.136,0.883,4.801,0.883c1.659,0,3.249-0.329,4.792-0.883l-3.185,3.629h-0.073l8.178,19.754    L114.58,187.576z" fill="#176ecb"/>
		<path d="M203.049,152.564c6.26-4.221,10.576-12.532,10.576-20.021c0-10.57-8.567-19.135-19.126-19.135    c-10.57,0-19.132,8.565-19.132,19.135c0,7.489,4.312,15.801,10.583,20.021c-14.991,3.805-26.104,16.818-26.104,26.463    c0,11.398,69.301,11.398,69.301,0C229.153,169.389,218.053,156.369,203.049,152.564z M194.5,187.576l-9.718-9.705l8.172-19.754    h-0.073l-3.179-3.629c1.534,0.548,3.13,0.883,4.798,0.883c1.669,0,3.252-0.329,4.793-0.883l-3.185,3.629h-0.073l8.178,19.754    L194.5,187.576z" fill="#176ecb"/>
	</g>
</g>
<g>
</g>
<g>
</g>
<g>
</g>
<g>
</g>
<g>
</g>
<g>
</g>
<g>
</g>
<g>
</g>
<g>
</g>
<g>
</g>
<g>
</g>
<g>
</g>
<g>
</g>
<g>
</g>
<g>
</g>
</svg>
