<?xml version="1.0" encoding="utf-8"?>
<!-- Generator: Adobe Illustrator 18.0.0, SVG Export Plug-In . SVG Version: 6.00 Build 0)  -->
<!DOCTYPE svg PUBLIC "-//W3C//DTD SVG 1.1//EN" "http://www.w3.org/Graphics/SVG/1.1/DTD/svg11.dtd">
<svg version="1.1" id="Capa_1" xmlns="http://www.w3.org/2000/svg" xmlns:xlink="http://www.w3.org/1999/xlink" x="0px" y="0px"
	 viewBox="0 0 512 512" enable-background="new 0 0 512 512" xml:space="preserve">
<g>
	<g>
		<path fill="#176ECB" d="M464.6,346.1v-19V213.3V99.6c0-10.4-8.5-19-19-19H66.4c-10.4,0-19,8.5-19,19v113.8v113.8v19L0,403
			c0,15.7,12.7,28.4,28.4,28.4h455.2c15.7,0,28.4-12.8,28.4-28.4L464.6,346.1z M294,422h-75.9c-2.6,0-4.7-2.1-4.7-4.7
			s2.1-4.7,4.7-4.7H294c2.6,0,4.7,2.1,4.7,4.7C298.6,419.9,296.6,422,294,422z M177.8,403l14.5-17.4h127.4l14.5,17.4H177.8z
			 M437.9,312.6c0,9.1-7.5,16.6-16.5,16.6H90.6c-9.1,0-16.5-7.5-16.5-16.6V114.2c0-9.1,7.5-16.6,16.5-16.6h330.8
			c9.1,0,16.5,7.5,16.5,16.6V312.6z"/>
	</g>
</g>
<g>
	<path fill="#176ECB" d="M172.2,185.1c1,3.5,2.4,6.8,4.2,10l-5.1,6.4c-1.7,2.1-1.5,5.1,0.4,7l8.7,8.7c1.9,1.9,4.9,2,7,0.4l6.4-5
		c3.3,1.9,6.7,3.4,10.4,4.4l1,8.2c0.3,2.7,2.5,4.6,5.2,4.6h12.4c2.7,0,4.9-2,5.2-4.6l0.9-7.9c3.9-1,7.6-2.5,11.1-4.5l6.1,4.9
		c2.1,1.7,5.1,1.5,7-0.4l8.7-8.7c1.9-1.9,2-4.9,0.4-7l-4.8-6.1c2-3.4,3.5-7.1,4.6-10.9l7.4-0.8c2.7-0.3,4.6-2.5,4.6-5.2v-12.4
		c0-2.7-2-4.9-4.6-5.2L262,160c-1-3.8-2.5-7.4-4.4-10.8l4.5-5.7c1.7-2.1,1.5-5.1-0.4-7l-8.7-8.7c-1.9-1.9-4.9-2-7-0.4l-5.5,4.3
		c-3.6-2.1-7.4-3.7-11.4-4.8l-0.8-7.1c-0.3-2.7-2.5-4.6-5.2-4.6h-12.4c-2.7,0-4.9,2-5.2,4.6l-0.8,7.1c-4.1,1.1-8,2.8-11.7,4.9
		l-5.7-4.5c-2.1-1.7-5.1-1.5-7,0.4l-8.7,8.7c-1.9,1.9-2,4.9-0.4,7l4.8,6c-1.9,3.4-3.4,7.1-4.3,10.9l-7.6,0.9
		c-2.7,0.3-4.6,2.5-4.6,5.2V179c0,2.7,2,4.9,4.6,5.2L172.2,185.1z M217,151.7c11.3,0,20.4,9.2,20.4,20.4c0,11.3-9.2,20.4-20.4,20.4
		c-11.3,0-20.4-9.2-20.4-20.4C196.5,160.8,205.7,151.7,217,151.7z"/>
	<path fill="#176ECB" d="M339.1,188.1l-6.5-5.5c-2-1.7-5-1.6-6.9,0.2l-3.6,3.4c-3-1.5-6.3-2.5-9.6-3.1l-1-5
		c-0.5-2.6-2.9-4.3-5.5-4.1l-8.5,0.7c-2.6,0.2-4.7,2.4-4.7,5l-0.2,5.1c-3.3,1.2-6.4,2.8-9.2,4.8l-4.3-2.9c-2.2-1.4-5.1-1-6.8,1
		l-5.5,6.6c-1.7,2-1.6,5,0.2,6.9l3.8,4c-1.3,2.9-2.2,6-2.8,9.2l-5.4,1.1c-2.6,0.5-4.3,2.9-4.1,5.5l0.7,8.5c0.2,2.6,2.4,4.7,5,4.7
		l5.8,0.2c1.1,2.8,2.4,5.4,4.1,7.9l-3.3,4.9c-1.4,2.2-1,5.1,1,6.8l6.5,5.5c2,1.7,5,1.6,6.9-0.2l4.3-4c2.8,1.3,5.7,2.3,8.8,2.9
		l1.2,5.8c0.5,2.6,2.9,4.3,5.5,4.1l8.5-0.7c2.6-0.2,4.7-2.4,4.7-5l0.2-5.7c3.1-1.1,6-2.6,8.8-4.4l4.7,3.1c2.2,1.4,5.1,1,6.8-1
		l5.5-6.5c1.7-2,1.6-5-0.2-6.9l-3.8-4c1.4-2.9,2.4-6,3-9.2l5.2-1.1c2.6-0.5,4.3-2.9,4.1-5.5l-0.7-8.5c-0.2-2.6-2.4-4.7-5-4.7
		l-5.2-0.2c-1.1-3-2.5-5.9-4.3-8.5l2.8-4.3C341.6,192.8,341.2,189.8,339.1,188.1z M307.1,237.3c-9.2,0.8-17.3-6.1-18.1-15.3
		c-0.8-9.2,6.1-17.3,15.3-18.1c9.2-0.8,17.3,6.1,18.1,15.3C323.1,228.4,316.3,236.6,307.1,237.3z"/>
	<path fill="#176ECB" d="M201.9,260.2c-2.6,0.3-4.6,2.5-4.6,5.1l-0.1,5.2c0,2.6,1.9,4.9,4.5,5.2l3.9,0.5c0.6,2.3,1.6,4.6,2.7,6.7
		l-2.5,3.1c-1.7,2-1.5,5,0.3,6.9l3.7,3.7c1.8,1.9,4.8,2.1,6.9,0.5l3.1-2.4c2.2,1.3,4.5,2.3,6.9,3l0.4,4c0.3,2.6,2.5,4.6,5.1,4.6
		l5.2,0.1c2.6,0,4.9-1.9,5.2-4.5l0.5-3.8c2.6-0.6,5.1-1.6,7.5-2.9l2.9,2.3c2,1.7,5,1.5,6.9-0.3l3.7-3.7c1.9-1.8,2.1-4.8,0.5-6.9
		l-2.2-2.9c1.4-2.3,2.4-4.7,3.1-7.2l3.4-0.4c2.6-0.3,4.6-2.5,4.6-5.1l0.1-5.2c0-2.6-1.9-4.9-4.5-5.2l-3.4-0.4
		c-0.6-2.5-1.6-5-2.8-7.2l2.1-2.6c1.7-2,1.5-5-0.3-6.9l-3.7-3.7c-1.8-1.9-4.8-2.1-6.9-0.5l-2.5,1.9c-2.4-1.4-4.9-2.5-7.5-3.3
		l-0.3-3.3c-0.3-2.6-2.5-4.6-5.1-4.6l-5.2-0.1c-2.6,0-4.9,1.9-5.2,4.5l-0.4,3.2c-2.7,0.7-5.4,1.8-7.8,3.2l-2.6-2.1
		c-2-1.7-5-1.5-6.9,0.3l-3.8,3.7c-1.9,1.8-2.1,4.8-0.5,6.9l2.2,2.9c-1.3,2.3-2.3,4.7-3,7.2L201.9,260.2z M235.8,254.3
		c7.5,0.1,13.5,6.3,13.5,13.8c-0.1,7.5-6.3,13.5-13.8,13.5c-7.5-0.1-13.5-6.3-13.5-13.8C222,260.2,228.2,254.2,235.8,254.3z"/>
</g>
</svg>
