<?xml version="1.0" encoding="utf-8"?>
<!-- Generator: Adobe Illustrator 18.0.0, SVG Export Plug-In . SVG Version: 6.00 Build 0)  -->
<!DOCTYPE svg PUBLIC "-//W3C//DTD SVG 1.1//EN" "http://www.w3.org/Graphics/SVG/1.1/DTD/svg11.dtd">
<svg version="1.1" id="Capa_1" xmlns="http://www.w3.org/2000/svg" xmlns:xlink="http://www.w3.org/1999/xlink" x="0px" y="0px"
	 viewBox="0 0 512 512" enable-background="new 0 0 512 512" xml:space="preserve">
<g>
	<g>
		<path fill="#2F6EB5" d="M256,349.8c-12,0-21.8,9.8-21.8,21.8c0,12,9.8,21.8,21.8,21.8c12,0,21.8-9.8,21.8-21.8
			C277.8,359.5,268,349.8,256,349.8z M256,384.5c-7.1,0-13-5.8-13-13c0-7.1,5.8-13,13-13s13,5.8,13,13
			C269,378.7,263.1,384.5,256,384.5z"/>
		<g>
			<path fill="#316EB5" d="M256,345.8c-14.3,0.4-25.3,11.4-25.8,25.8c-0.4,14.3,12.1,25.3,25.8,25.8c14.3,0.4,25.3-12.1,25.8-25.8
				C282.2,357.2,269.7,346.2,256,345.8c-5.2-0.2-5.1,7.8,0,8c9.9,0.3,17.5,7.9,17.8,17.8c0.3,9.9-8.3,17.5-17.8,17.8
				c-9.9,0.3-17.5-8.3-17.8-17.8c-0.3-9.9,8.3-17.5,17.8-17.8C261.1,353.6,261.2,345.6,256,345.8z"/>
			<path fill="#316EB5" d="M256,380.5c-11.5-0.6-11.5-17.3,0-17.9C267.6,362,267.5,379.9,256,380.5c-5.1,0.3-5.2,8.3,0,8
				c9.6-0.5,16.5-7.4,17-17c0.5-9.5-8.1-16.5-17-17c-9.5-0.5-16.5,8.1-17,17c-0.5,9.5,8.1,16.5,17,17
				C261.2,388.7,261.1,380.7,256,380.5z"/>
		</g>
	</g>
	<g>
		<path fill="#2F6EB5" d="M442.6,95.4h-131C300.4,51,281.5,17.2,258.2,4.1c-1.3-0.8-3-0.8-4.3,0c-23.3,13.1-42.3,46.9-53.4,91.3
			h-131c-16.8,0-30.4,13.7-30.4,30.4V394c0,16.8,13.7,30.4,30.4,30.4h129.9l-14.7,42.1h-1.4c-13,0-23.6,10.6-23.6,23.6v17.4
			c0,2.4,2,4.4,4.4,4.4H348c2.4,0,4.4-2,4.4-4.4v-17.4c0-13-10.6-23.6-23.6-23.6h-1.4l-14.7-42.1h129.9c16.8,0,30.4-13.7,30.4-30.4
			V125.9C473.1,109.1,459.4,95.4,442.6,95.4z M442.6,104.2c11.9,0,21.6,9.7,21.6,21.6v32.5h-78.1c-2.4,0-4.4,2-4.4,4.4
			c0,2.4,2,4.4,4.4,4.4h78.1v158.4h-19.1c-1-9.8-5.3-19-12.3-26c-0.8-16.1-11-30.2-26-36c-7-13.4-20.9-22-36.1-22
			c-4.1,0-8.2,0.6-12.1,1.8c-6.8-22.4-19.1-42.8-36.2-59.8c-0.3-28.3-3.4-55.2-8.8-79.4L442.6,104.2L442.6,104.2z M189.6,196.4
			c0.4,23.3,2.7,45.9,6.8,67.3c-5.9,8.4-10.1,18-12,28.5h-28.3c-0.1-2.3-0.2-4.3-0.2-6.4C155.9,252.5,167.8,221.2,189.6,196.4z
			 M322.4,196.4c21.8,24.7,33.7,56.1,33.7,89.4c0,2-0.1,4.1-0.2,6.4h-28.3c-2-10.5-6.1-20.1-12-28.5
			C319.7,242.3,322,219.8,322.4,196.4z M320.1,305.6c0,0.3,0,0.6,0,0.9H191.9c0-0.3,0-0.6,0-0.9c0-35.4,28.8-64.1,64.1-64.1
			S320.1,270.3,320.1,305.6z M147.5,297c0.2,2.3,2.1,4.1,4.4,4.1h31.3c-0.1,1.5-0.2,3.1-0.2,4.6c0,1.7,0.1,3.5,0.2,5.6
			c0.2,2.3,2.1,4.1,4.4,4.1h136.6c2.3,0,4.2-1.8,4.4-4.1c0.2-2.1,0.2-3.9,0.2-5.6c0-1.6-0.1-3.1-0.2-4.6h31.3c2.3,0,4.2-1.8,4.4-4.1
			c0.3-4.1,0.5-7.7,0.5-11.1c0-11.6-1.4-23-4-33.9c3.1-1,6.4-1.5,9.8-1.5c12.4,0,23.8,7.3,28.9,18.5c0.5,1.1,1.5,2,2.6,2.3
			c13,4.3,21.8,16.5,21.8,30.2c0,1.2,0.5,2.4,1.4,3.2c6,5.5,9.7,12.9,10.8,20.8H73.5c1-7.9,4.8-15.4,10.8-20.8
			c0.9-0.8,1.4-2,1.4-3.2c0-13.7,8.8-25.9,21.8-30.2c1.2-0.4,2.1-1.2,2.6-2.3c5.2-11.3,16.6-18.5,28.9-18.5c4.1,0,8,0.8,11.8,2.3
			c-2.5,10.7-3.8,21.9-3.8,33.2C147.1,289.2,147.2,292.8,147.5,297z M256,13c15.6,9.9,29.9,31.6,40.2,61.5
			c11.4,32.7,17.4,72.2,17.4,114.2c0,22.9-1.8,45.1-5.4,66.2c-13.3-13.7-31.8-22.2-52.3-22.2s-39,8.5-52.3,22.2
			c-3.6-21.1-5.4-43.3-5.4-66.2c0-42,6-81.5,17.4-114.2C226.1,44.7,240.4,23,256,13z M69.4,104.2h128.9c-5.3,24.2-8.4,51.2-8.8,79.4
			c-17.2,17.1-29.6,37.8-36.4,60.5c-4.5-1.7-9.2-2.5-14.1-2.5c-15.2,0-29.2,8.6-36.1,22c-15.1,5.8-25.3,19.9-26,36
			c-7,7-11.3,16.2-12.3,26H47.7v-177h92.8c2.4,0,4.4-2,4.4-4.4c0-2.4-2-4.4-4.4-4.4H47.7v-13.9C47.7,113.9,57.5,104.2,69.4,104.2z
			 M343.6,490.1v13H168.4v-13c0-8.2,6.6-14.8,14.8-14.8h145.7C337,475.4,343.6,482,343.6,490.1z M318.1,466.5H193.9l14.7-42.1h94.7
			L318.1,466.5z M442.6,415.6H69.4c-11.9,0-21.6-9.7-21.6-21.6v-26.4h66c2.4,0,4.4-2,4.4-4.4s-2-4.4-4.4-4.4h-66v-24.4h416.5V394
			C464.3,405.9,454.6,415.6,442.6,415.6z"/>
		<g>
			<path fill="#316EB5" d="M442.6,91.4c-43.7,0-87.3,0-131,0c1.3,1,2.6,2,3.9,2.9c-5.4-21.1-12.8-42-24-60.8
				c-4.4-7.4-9.6-14.3-15.5-20.5c-2.6-2.8-5.5-5.3-8.5-7.6c-2.8-2.1-6.9-5.9-10.6-5.9c-7.1,0-14.2,7.2-19,11.8
				c-6.4,6.2-11.8,13.5-16.5,21c-11.8,18.9-19.3,40.5-24.7,62c1.3-1,2.6-2,3.9-2.9c-22.3,0-44.7,0-67,0c-15.1,0-30.1,0-45.2,0
				c-7.6,0-15.4-0.6-22.9,0.3c-17.5,2-30.3,17.4-30.3,34.8c0,5.3,0,10.7,0,16c0,25.9,0,51.7,0,77.6c0,55.3,0,110.5,0,165.8
				c0,6.3-0.2,12.4,1.6,18.6c4.7,15.7,19.7,24,35.3,24c26.9,0,53.8,0,80.8,0c15.6,0,31.1,0,46.7,0c-1.3-1.7-2.6-3.4-3.9-5.1
				c-4.9,14-9.8,28.1-14.7,42.1c1.3-1,2.6-2,3.9-2.9c-10.3,0-19,4.4-24.8,12.9c-4.7,6.9-4.2,15-4.2,22.9c0,6.4-1.5,16.3,7.3,17.5
				c1.6,0.2,3.3,0.1,5,0.1c24.6,0,49.1,0,73.7,0c29.6,0,59.2,0,88.8,0c5.9,0,11.7,0,17.6,0c8.1,0,8.5-7.8,8.5-13.8
				c0-7.4,0.8-15.2-2-22.3c-4.4-11.2-15.3-17.4-27-17.4c1.3,1,2.6,2,3.9,2.9c-4.9-14-9.8-28.1-14.7-42.1c-1.3,1.7-2.6,3.4-3.9,5.1
				c22.5,0,45,0,67.5,0c15,0,29.9,0,44.9,0c7.9,0,16.2,0.6,24.1-0.6c16.6-2.6,27.9-18.4,27.9-34.6c0-5.6,0-11.2,0-16.8
				c0-26.2,0-52.3,0-78.5c0-54.9,0-109.7,0-164.6c0-2.9,0-5.9,0-8.8C476.6,106,460.6,91.8,442.6,91.4c-5.2-0.1-5.2,7.9,0,8
				c15.9,0.4,26.4,13,26.4,28.4c0,6.5,0,13,0,19.5c0,27.1,0,54.3,0,81.4c0,53.4,0,106.8,0,160.1c0,9.8-1.8,18.6-9.7,25.5
				c-8.1,7.2-19.1,6-29,6c-30,0-60,0-90,0c-9.2,0-18.4,0-27.6,0c-2.5,0-4.7,2.6-3.9,5.1c4.9,14,9.8,28.1,14.7,42.1
				c0.6,1.7,2,2.9,3.9,2.9c11.4,0,20.7,7.8,21,19.6c0.2,5.7,0,11.5,0,17.2c0,1.5-13.7,0.7-15.1,0.7c-28.9,0-57.9,0-86.8,0
				c-24.2,0-48.4,0-72.7,0c-2.6,0-5.3,0-7.9,0c-2.3,0-2.4,0-2.4-2.6c0-6-0.7-12.3,0.2-18.3c1.5-10.4,10.8-16.6,20.8-16.6
				c1.9,0,3.3-1.2,3.9-2.9c4.9-14,9.8-28.1,14.7-42.1c0.9-2.5-1.4-5.1-3.9-5.1c-22.5,0-45,0-67.5,0c-15,0-29.9,0-44.9,0
				c-7.9,0-16.8,1-24.6-0.9c-13.3-3.4-19.4-15.8-19.4-28.5c0-7.1,0-14.3,0-21.4c0-27.8,0-55.6,0-83.4c0-52.2,0-104.4,0-156.6
				c0-11.8,4.2-22.1,15.4-27.8c7.5-3.8,18.2-2.4,26.3-2.4c30.3,0,60.5,0,90.8,0c8.3,0,16.6,0,24.9,0c1.8,0,3.4-1.2,3.9-2.9
				c4.9-19.2,11.4-37.9,21-55.2c7.3-13,16.7-25.4,29.6-33.2c2.4-1.4,7.7,3.7,9.4,5.1c2.7,2.2,5.2,4.7,7.6,7.3
				c5.5,5.9,10,12.6,14,19.6c10.2,17.5,16.8,36.9,21.8,56.5c0.4,1.7,2.1,2.9,3.9,2.9c43.7,0,87.3,0,131,0
				C447.8,99.4,447.8,91.4,442.6,91.4z"/>
			<path fill="#316EB5" d="M442.6,108.2c8.3,0.3,14.8,5.5,17.1,13.4c0.9,3.3,0.5,7.3,0.5,10.7c0,8.7,0,17.4,0,26.1
				c1.3-1.3,2.7-2.7,4-4c-24.4,0-48.8,0-73.2,0c-4.2,0-8.6-0.5-11.5,3.4c-4.8,6.2,0.7,13.5,7.7,13.5c12.3,0,24.7,0,37,0
				c13.4,0,26.7,0,40.1,0c-1.3-1.3-2.7-2.7-4-4c0,49.2,0,98.4,0,147.5c0,3.6,0,7.2,0,10.8c1.3-1.3,2.7-2.7,4-4c-6.4,0-12.7,0-19.1,0
				c1.3,1.3,2.7,2.7,4,4c-1.3-11-5.8-20.8-13.5-28.8c0.4,0.9,0.8,1.9,1.2,2.8c-1.2-18.1-12.2-33.1-29-39.9c0.8,0.6,1.6,1.2,2.4,1.8
				c-10.3-18.9-32-27.9-52.7-22c1.6,0.9,3.3,1.9,4.9,2.8c-7.3-23.3-20-44.2-37.2-61.5c0.4,0.9,0.8,1.9,1.2,2.8
				c-0.4-27-3.1-54.1-8.9-80.5c-1.3,1.7-2.6,3.4-3.9,5.1C356.7,108.2,399.6,108.2,442.6,108.2c-1.3-1.3-2.7-2.7-4-4c0,0,0,0,0,0
				c0,5.2,8,5.2,8,0c0,0,0,0,0,0c0-2.2-1.8-4-4-4c-43,0-86,0-128.9,0c-2.7,0-4.4,2.5-3.9,5.1c5.6,25.8,8.3,52,8.6,78.4
				c0,2.3,2.1,3.7,3.5,5.2c2.3,2.4,4.5,4.9,6.7,7.4c4,4.8,7.6,9.9,11,15.1c6.5,10.3,11.5,21.4,15.1,33c0.6,2.1,2.8,3.4,4.9,2.8
				c10.6-3.1,21.3-1.7,30.7,4.1c4.3,2.6,7.9,6.3,10.7,10.4c1.1,1.6,1.8,4.1,3.6,5.2c2.4,1.4,5.1,2.3,7.5,3.8
				c8.6,5.3,14,14.5,16.1,24.2c0.4,2,0,4.7,1.1,6.6c1.3,2.3,3.7,4.1,5.2,6.3c3.6,5.2,5.8,11.4,6.6,17.7c0.3,2.2,1.6,4,4,4
				c6.4,0,12.7,0,19.1,0c2.2,0,4-1.8,4-4c0-49.2,0-98.4,0-147.5c0-3.6,0-7.2,0-10.8c0-2.2-1.8-4-4-4c-24.4,0-48.8,0-73.2,0
				c-1.4,0-2.9,0-4.3,0c-1.1,0-1.1-0.8,0-0.8c4.3,0,8.5,0,12.8,0c15.5,0,31,0,46.6,0c6.1,0,12.2,0,18.2,0c2.2,0,4-1.8,4-4
				c0-9.9,0-19.8,0-29.6c0-15.3-9.5-28-25.6-28.5C437.5,100.1,437.5,108.1,442.6,108.2z"/>
			<path fill="#316EB5" d="M185.6,196.4c0.5,22.9,2.7,45.8,6.9,68.3c0.1-1,0.3-2.1,0.4-3.1c-6.1,8.9-10.3,18.8-12.5,29.5
				c1.3-1,2.6-2,3.9-2.9c-9.4,0-18.8,0-28.3,0c1.3,1.3,2.7,2.7,4,4c-1.6-34,10-67.3,32.4-92.9c3.4-3.9-2.3-9.6-5.7-5.7
				c-23.7,27.2-36.4,62.4-34.7,98.6c0.1,2.2,1.7,4,4,4c9.4,0,18.8,0,28.3,0c1.7,0,3.5-1.2,3.9-2.9c1.6-7.8,4.2-15.1,8.1-22.1
				c1.5-2.6,4.5-5.3,3.9-8.5c-0.8-4.2-1.5-8.4-2.2-12.6c-2.8-17.7-4.1-35.7-4.4-53.6C193.5,191.3,185.5,191.3,185.6,196.4z"/>
			<path fill="#316EB5" d="M319.6,199.3c22.4,25.7,34,58.9,32.4,92.9c1.3-1.3,2.7-2.7,4-4c-9.4,0-18.8,0-28.3,0c1.3,1,2.6,2,3.9,2.9
				c-2.1-10.6-6.3-20.5-12.5-29.5c0.1,1,0.3,2.1,0.4,3.1c4.2-22.5,6.4-45.4,6.9-68.3c0.1-5.2-7.9-5.2-8,0
				c-0.4,17.9-1.7,35.9-4.4,53.6c-0.6,4.2-1.4,8.4-2.2,12.6c-0.6,3.2,2.4,6,3.9,8.5c4.1,6.8,6.6,14.3,8.1,22.1
				c0.3,1.7,2.2,2.9,3.9,2.9c9.4,0,18.8,0,28.3,0c2.3,0,3.9-1.8,4-4c1.7-36.2-11-71.4-34.7-98.6
				C321.8,189.7,316.2,195.4,319.6,199.3z"/>
			<path fill="#316EB5" d="M316.1,305.6c0,0.3,0,0.6,0,0.9c1.3-1.3,2.7-2.7,4-4c-42.7,0-85.5,0-128.2,0c1.3,1.3,2.7,2.7,4,4
				c-0.3-32.8,26.1-59.9,58.7-61C288.1,244.4,315.8,272.6,316.1,305.6c0.1,5.2,8.1,5.2,8,0c-0.4-37.4-30.8-67.7-68.1-68.1
				c-37.5-0.4-68.4,31.9-68.1,69c0,2.2,1.8,4,4,4c42.7,0,85.5,0,128.2,0c2.2,0,4-1.8,4-4c0-0.3,0-0.6,0-0.9
				C324.2,300.5,316.2,300.5,316.1,305.6z"/>
			<path fill="#316EB5" d="M143.7,298c2,8.7,11.7,7,18.5,7c7,0,14,0,21,0c-1.3-1.3-2.7-2.7-4-4c-0.4,7.1-1.1,18.3,8.9,18.3
				c2.8,0,5.7,0,8.5,0c13,0,26.1,0,39.1,0c27.9,0,55.8,0,83.8,0c1.6,0,3.1,0,4.7,0c9.7,0,8.9-11.6,8.6-18.3c-1.3,1.3-2.7,2.7-4,4
				c10.1,0,20.2,0,30.3,0c9.6,0,9.6-8.8,9.8-16.2c0.4-12.7-1.2-25.6-4.1-37.9c-0.9,1.6-1.9,3.3-2.8,4.9c9.8-2.9,19.7-0.9,27.4,5.9
				c3.4,3,5.1,6.7,7.4,10.3c2.2,3.4,7.6,4.3,10.9,6.4c7.9,4.9,12.1,14.1,12.3,23.1c0.1,4.3,3.3,6.6,5.9,9.6c3.7,4.3,5.6,10,6.4,15.6
				c1.3-1.7,2.6-3.4,3.9-5.1c-36.9,0-73.8,0-110.7,0c-62.9,0-125.8,0-188.7,0c-21.1,0-42.2,0-63.4,0c1.3,1.7,2.6,3.4,3.9,5.1
				c0.8-5,2.4-9.5,5.1-13.8c2.5-3.9,7.1-6.3,7.2-11.3c0.2-9.4,4.6-17.8,12.3-23.1c3.3-2.3,7.3-2.9,10.3-5.6c1.5-1.4,2.3-3.8,3.3-5.6
				c1.3-2.1,3-3.9,4.7-5.6c7.9-7.6,19.5-8.8,29.4-5.1c-0.9-1.6-1.9-3.3-2.8-4.9c-3.4,14.9-4.6,30.1-3.5,45.3c0.4,5.1,8.4,5.2,8,0
				c-1-14.6,0-29,3.2-43.2c0.5-2.3-0.7-4.1-2.8-4.9c-10.3-3.8-21.3-2.8-30.8,2.5c-4.2,2.3-7.9,5.8-10.7,9.6c-1.4,1.9-2.6,3.9-3.6,6
				c-0.7,1.5-6.1,3-7.5,3.8c-8.5,4.8-14.3,13.4-16.6,22.8c-0.5,2.1-0.7,4.4-0.9,6.6c-0.2,2.9-3.5,5.1-5.2,7.4
				c-3.6,5.1-5.9,10.8-6.9,17c-0.4,2.5,1,5.1,3.9,5.1c36.9,0,73.8,0,110.7,0c62.9,0,125.8,0,188.7,0c21.1,0,42.2,0,63.4,0
				c2.8,0,4.2-2.5,3.9-5.1c-0.9-5.7-2.9-10.9-6-15.7c-1.3-2.1-3-4-4.7-5.8c-2-2.1-1.6-5.3-2.1-8.2c-1.5-9.7-7.8-18-15.7-23.4
				c-1.8-1.2-3.8-2.2-5.8-3c-3.2-1.3-3.8-3.7-5.7-6.4c-2.7-4.1-6.4-7.3-10.4-10c-8.7-5.9-20.1-6.8-30-3.9c-2.2,0.6-3.3,2.8-2.8,4.9
				c2.5,10.8,3.8,21.7,3.8,32.9c0,1.5,0.3,11.2-1.2,11.2c-1.6,0-3.1,0-4.7,0c-8.7,0-17.5,0-26.2,0c-2.1,0-4.1,1.8-4,4
				c0.1,1.3,0.9,10.3-0.8,10.3c-1,0-2,0-3,0c-4.3,0-8.6,0-12.9,0c-14.6,0-29.1,0-43.7,0c-25.2,0-50.4,0-75.7,0
				c-3.3,0-1.7-8.1-1.6-10.3c0.1-2.2-1.9-4-4-4c-5,0-10.1,0-15.1,0c-2.4,0-16.1,1.6-16.7-1.1C150.2,290.9,142.5,293,143.7,298z"/>
			<path fill="#316EB5" d="M254,16.5c13.9,9.1,23.1,24.2,30.2,38.9c9.2,18.9,14.8,39.5,18.9,60.1c8.9,45.2,9,93,1.4,138.4
				c2.2-0.6,4.5-1.2,6.7-1.8c-30.3-30.6-79.9-30.6-110.2,0c2.2,0.6,4.5,1.2,6.7,1.8c-7.5-45-7.2-91.8,1.1-136.7
				c3.8-20.6,9.6-41.2,18.5-60.3c7-15.2,16.6-31,30.9-40.4c4.3-2.8,0.3-9.7-4-6.9c-14.7,9.6-24.6,24.8-32.3,40.2
				c-9.7,19.4-15.8,40.6-20,61.8c-9.6,47.2-9.7,96.9-1.8,144.3c0.5,3.1,4.7,3.7,6.7,1.8c27.3-27.5,71.6-27.5,98.9,0
				c2,2,6.2,1.3,6.7-1.8c7.8-47,7.5-95.8-1.4-142.6C306.6,92,300.3,71,291,51.3c-7.6-16-18-31.9-33-41.7
				C253.7,6.8,249.7,13.7,254,16.5z"/>
			<path fill="#316EB5" d="M69.4,108.2c43,0,86,0,128.9,0c-1.3-1.7-2.6-3.4-3.9-5.1c-5.8,26.4-8.5,53.4-8.9,80.5
				c0.4-0.9,0.8-1.9,1.2-2.8c-17.4,17.5-30.2,38.7-37.4,62.2c1.6-0.9,3.3-1.9,4.9-2.8c-21.1-7.3-44.1,1.7-54.7,21.3
				c0.8-0.6,1.6-1.2,2.4-1.8c-16.8,6.8-27.8,21.7-29,39.9c0.4-0.9,0.8-1.9,1.2-2.8c-7.7,8.1-12.1,17.8-13.5,28.8
				c1.3-1.3,2.7-2.7,4-4c-5.6,0-11.3,0-16.9,0c1.3,1.3,2.7,2.7,4,4c0-49.9,0-99.8,0-149.7c0-9.1,0-18.2,0-27.3c-1.3,1.3-2.7,2.7-4,4
				c24.8,0,49.6,0,74.4,0c5.1,0,10.3,0,15.4,0c4.3,0,10.3-0.7,11.1-6.2c1.8-13.5-14.9-10.6-23.4-10.6c-25.9,0-51.7,0-77.6,0
				c1.3,1.3,2.7,2.7,4,4c0-4.6,0-9.2,0-13.8C51.7,116.1,59.7,108.5,69.4,108.2c5.1-0.2,5.2-8.2,0-8c-11.4,0.4-20.7,7.3-24.5,18
				c-2.3,6.5-1.2,14.7-1.2,21.5c0,2.2,1.8,4,4,4c24.8,0,49.6,0,74.4,0c5.1,0,10.3,0,15.4,0c0.9,0,1.9,0,2.8,0c1.2,0-0.3,0.8-1,0.8
				c-11.5,0-23,0-34.5,0c-19.1,0-38.2,0-57.3,0c-2.2,0-4,1.8-4,4c0,49.9,0,99.8,0,149.7c0,9.1,0,18.2,0,27.3c0,2.2,1.8,4,4,4
				c5.6,0,11.3,0,16.9,0c2.4,0,3.7-1.8,4-4c0.7-5.8,2.7-11.2,5.7-16.3c1.5-2.5,3.4-4.7,5.4-6.9c1.7-1.8,1.3-5,1.7-7.4
				c1.7-9.9,7.7-18.7,16-24.2c2-1.4,4.3-2.5,6.5-3.4c2.1-0.8,2.7-2.5,3.8-4.4c2.8-4.8,6.9-8.7,11.5-11.7c9.8-6.4,21.8-7.2,32.7-3.4
				c2.1,0.7,4.3-0.8,4.9-2.8c3.5-11.3,8.2-21.9,14.3-32c3.2-5.4,6.9-10.5,10.9-15.4c1.8-2.2,3.6-4.3,5.5-6.3c1.7-1.9,5-4.1,5.7-6.6
				c0.7-2.6,0.2-6,0.3-8.7c0.1-3.8,0.3-7.6,0.5-11.4c0.4-6.8,1-13.6,1.7-20.4c1.4-13.1,3.5-26.1,6.3-38.9c0.6-2.5-1.2-5.1-3.9-5.1
				c-43,0-86,0-128.9,0C64.2,100.2,64.2,108.2,69.4,108.2z"/>
			<path fill="#316EB5" d="M339.6,490.1c0,4.3,0,8.7,0,13c1.3-1.3,2.7-2.7,4-4c-50,0-99.9,0-149.9,0c-8.5,0-16.9,0-25.4,0
				c1.3,1.3,2.7,2.7,4,4c0-6-1.6-14.7,2.3-19.7c2.9-3.7,7-4.1,11.3-4.1c10.2,0,20.4,0,30.6,0c30.7,0,61.5,0,92.2,0
				c5.5,0,11.1,0,16.6,0C332.4,479.4,339.2,481.7,339.6,490.1c0.2,5.1,8.2,5.2,8,0c-0.5-10.2-8.3-18.8-18.8-18.8c-1.9,0-3.8,0-5.7,0
				c-11.6,0-23.2,0-34.8,0c-30.2,0-60.4,0-90.6,0c-4.9,0-9.8,0-14.6,0c-9.4,0-17.3,7.2-18.6,16.4c-0.7,5-0.2,10.4-0.2,15.5
				c0,2.2,1.8,4,4,4c50,0,99.9,0,149.9,0c8.5,0,16.9,0,25.4,0c2.2,0,4-1.8,4-4c0-4.3,0-8.7,0-13C347.6,485,339.6,485,339.6,490.1z"
				/>
			<path fill="#316EB5" d="M318.1,462.5c-41.4,0-82.8,0-124.2,0c1.3,1.7,2.6,3.4,3.9,5.1c4.9-14,9.8-28.1,14.7-42.1
				c-1.3,1-2.6,2-3.9,2.9c31.6,0,63.1,0,94.7,0c-1.3-1-2.6-2-3.9-2.9c4.9,14,9.8,28.1,14.7,42.1c1.7,4.8,9.4,2.8,7.7-2.1
				c-4.9-14-9.8-28.1-14.7-42.1c-0.6-1.7-2-2.9-3.9-2.9c-31.6,0-63.1,0-94.7,0c-1.9,0-3.3,1.2-3.9,2.9c-4.9,14-9.8,28.1-14.7,42.1
				c-0.9,2.5,1.4,5.1,3.9,5.1c41.4,0,82.8,0,124.2,0C323.2,470.5,323.2,462.5,318.1,462.5z"/>
			<path fill="#316EB5" d="M442.6,411.6c-36.3,0-72.5,0-108.8,0c-63.5,0-127,0-190.4,0c-20.7,0-41.4,0-62.1,0c-3.9,0-7.7,0-11.6,0
				c-7.4,0-13.3-4.1-16.6-10.6c-2.8-5.6-1.4-14.2-1.4-20.2c0-4.4,0-8.8,0-13.2c-1.3,1.3-2.7,2.7-4,4c22,0,44,0,66,0
				c10.8,0,10.8-16.8,0-16.8c-3.7,0-7.4,0-11.1,0c-15.1,0-30.3,0-45.4,0c-3.2,0-6.4,0-9.6,0c1.3,1.3,2.7,2.7,4,4
				c0-8.1,0-16.3,0-24.4c-1.3,1.3-2.7,2.7-4,4c33.6,0,67.1,0,100.7,0c64.3,0,128.5,0,192.8,0c40.4,0,80.8,0,121.1,0
				c0.6,0,1.3,0,1.9,0c-1.3-1.3-2.7-2.7-4-4c0,13.2,0,26.4,0,39.6c0,6.2,0,12.5,0,18.7C460.3,403,453.3,411.3,442.6,411.6
				c-5.1,0.2-5.2,8.2,0,8c12.8-0.4,24.2-9.8,25.5-22.9c0.5-5.7,0.2-11.6,0.2-17.3c0-15,0-30,0-45c0-2.2-1.8-4-4-4
				c-33.6,0-67.1,0-100.7,0c-64.3,0-128.5,0-192.8,0c-40.4,0-80.8,0-121.1,0c-0.6,0-1.3,0-1.9,0c-2.2,0-4,1.8-4,4
				c0,8.1,0,16.3,0,24.4c0,2.2,1.8,4,4,4c11,0,22,0,33,0c7.6,0,15.1,0,22.7,0c2.4,0,4.8,0,7.3,0c0.7,0,2.7-0.4,3.3,0.1
				c0.9,0.7-2.5,0.7-2.5,0.7c-2.5,0-4.9,0-7.4,0c-7.5,0-15,0-22.4,0c-11.3,0-22.7,0-34,0c0,0,0,0,0,0c-2.2,0-4,1.8-4,4
				c0,6,0,12,0,18.1c0,7.2-0.2,13.9,3.1,20.5c4.8,9.7,15.1,13.5,25.3,13.5c15.6,0,31.3,0,46.9,0c61.5,0,123,0,184.6,0
				c45.2,0,90.4,0,135.6,0c1.2,0,2.3,0,3.5,0C447.8,419.6,447.8,411.6,442.6,411.6z"/>
		</g>
	</g>
	<g>
		<path fill="#2F6EB5" d="M256,120.3c13.8,0,24.9-11.2,24.9-24.9S269.8,70.4,256,70.4c-13.8,0-24.9,11.2-24.9,24.9
			C231.1,109.1,242.2,120.3,256,120.3z M256,79.2c8.9,0,16.1,7.2,16.1,16.1s-7.2,16.1-16.1,16.1c-8.9,0-16.1-7.2-16.1-16.1
			S247.1,79.2,256,79.2z"/>
		<g>
			<path fill="#316EB5" d="M256,124.3c16.1-0.4,28.5-12.9,28.9-28.9c0.4-16-13.5-28.5-28.9-28.9C240,66,227.5,80,227.1,95.4
				C226.6,111.4,240.6,123.9,256,124.3c5.2,0.1,5.1-7.9,0-8c-11.6-0.3-20.6-9.3-20.9-20.9c-0.3-11.6,9.8-20.6,20.9-20.9
				c11.6-0.3,20.6,9.8,20.9,20.9c0.3,11.6-9.8,20.6-20.9,20.9C250.9,116.5,250.8,124.5,256,124.3z"/>
			<path fill="#316EB5" d="M256,83.2c15.7,0.7,15.7,23.6,0,24.3c-6.8,0.3-11.9-5.8-12.1-12.1C243.6,88.6,249.6,83.5,256,83.2
				c5.1-0.2,5.2-8.2,0-8c-11.3,0.5-19.7,8.8-20.1,20.1c-0.5,11.3,9.6,19.7,20.1,20.1c11.3,0.5,19.7-9.6,20.1-20.1
				c0.5-11.3-9.6-19.7-20.1-20.1C250.8,75,250.9,83,256,83.2z"/>
		</g>
	</g>
</g>
</svg>
