<?xml version="1.0" encoding="iso-8859-1"?>
<!-- Generator: Adobe Illustrator 19.0.0, SVG Export Plug-In . SVG Version: 6.00 Build 0)  -->
<svg xmlns="http://www.w3.org/2000/svg" xmlns:xlink="http://www.w3.org/1999/xlink" version="1.1" id="Layer_1" x="0px" y="0px" viewBox="0 0 490.388 490.388" style="enable-background:new 0 0 490.388 490.388;" xml:space="preserve" width="512px" height="512px">
<g>
	<g>
		<g>
			<path d="M36.619,202.938c0-86.7,70.5-157.2,157.2-157.2v16.1c0,1.8,2,2.8,3.4,1.8l43.3-29.9c1.2-0.8,1.2-2.6,0-3.5l-43.3-29.9     c-1.5-0.9-3.4,0.1-3.4,1.8v16.1c-101.9,0-184.8,82.9-184.8,184.8c0,58.9,28.6,114.9,76.4,149.5l16.2-22.3     C60.919,300.738,36.619,253.138,36.619,202.938z" fill="#176ecb"/>
			<path d="M470.419,426.638l-74.4-74.4c-10.7-10.7-26.1-13.4-39.4-8.5l-21.8-21.8c27.2-32.2,43.7-73.7,43.7-119     c0.1-58.9-28.5-114.9-76.3-149.6l-16.2,22.3c40.7,29.5,65,77.1,65,127.3c0,86.7-70.5,157.2-157.2,157.2v-16.1     c0-1.7-1.9-2.7-3.4-1.8l-43.4,30c-1.2,0.9-1.2,2.7,0,3.5l43.4,29.8c1.4,1,3.4,0,3.4-1.8v-16.1c45.4,0,86.9-16.5,119.1-43.8     l21.8,21.8c-4.9,13.3-2.1,28.7,8.5,39.4l74.4,74.4c14.6,14.6,38.2,14.6,52.8,0C485.019,464.838,485.019,441.238,470.419,426.638z     " fill="#176ecb"/>
			<path d="M172.119,290.538l3.6,21.4c0.7,4,4.1,6.9,8.1,6.9h10.7h10.7c4,0,7.4-2.9,8.1-6.9l3.6-21.7c7.9-2.1,15.6-5.3,22.7-9.5     l17.8,12.7c3.3,2.3,7.8,2,10.7-0.9l7.6-7.7l7.6-7.7c2.8-2.8,3.2-7.4,0.9-10.7l-12.7-17.8c4.3-7.4,7.5-15.2,9.6-23.3l21.6-3.7     c4-0.7,6.9-4.1,6.9-8.1v-10.7v-10.7c0-4-2.9-7.4-6.9-8.1l-21.6-3.6c-2.1-8.2-5.4-15.9-9.7-23.3l12.7-17.8c2.3-3.3,2-7.8-0.9-10.7     l-7.7-7.6l-7.7-7.6c-2.9-2.6-7.4-3-10.6-0.7l-17.8,12.7c-7.4-4.3-15.2-7.5-23.3-9.6l-3.7-21.6c-0.7-4-4.1-6.9-8.1-6.9h-10.7     h-10.7c-4,0-7.4,2.9-8.1,6.9l-3.6,21.6c-8.3,2.1-16.3,5.4-23.8,10l-17.6-12.5c-3.3-2.3-7.8-2-10.7,0.9l-7.6,7.7l-7.6,7.7     c-2.8,2.8-3.2,7.4-0.9,10.7l12.8,18c-4.3,7.4-7.4,15.3-9.5,23.3l-21.4,3.4c-4,0.7-6.9,4.1-6.9,8.1v10.7v10.7c0,4,2.9,7.4,6.9,8.1     l21.7,3.6c2.1,8,5.4,15.8,9.8,23.1l-12.5,17.6c-2.4,3.3-2,7.8,0.8,10.8l7.7,7.6l7.7,7.6c2.8,2.8,7.4,3.2,10.7,0.9l18-12.8     C156.219,285.338,164.119,288.438,172.119,290.538z M165.219,173.138c16.2-16.2,42.4-16.2,58.6,0c16.2,16.2,16.2,42.4,0,58.6     c-16.2,16.2-42.4,16.2-58.6,0C149.019,215.638,148.919,189.338,165.219,173.138z" fill="#176ecb"/>
		</g>
	</g>
</g>
<g>
</g>
<g>
</g>
<g>
</g>
<g>
</g>
<g>
</g>
<g>
</g>
<g>
</g>
<g>
</g>
<g>
</g>
<g>
</g>
<g>
</g>
<g>
</g>
<g>
</g>
<g>
</g>
<g>
</g>
</svg>
