<?xml version="1.0" encoding="utf-8"?>
<!-- Generator: Adobe Illustrator 18.0.0, SVG Export Plug-In . SVG Version: 6.00 Build 0)  -->
<!DOCTYPE svg PUBLIC "-//W3C//DTD SVG 1.1//EN" "http://www.w3.org/Graphics/SVG/1.1/DTD/svg11.dtd">
<svg version="1.1" id="Capa_1" xmlns="http://www.w3.org/2000/svg" xmlns:xlink="http://www.w3.org/1999/xlink" x="0px" y="0px"
	 viewBox="0 0 512 512" enable-background="new 0 0 512 512" xml:space="preserve">
<g>
	<path fill="#176ECB" d="M484.2,43.1v-0.7h-2.5H30.1h-2.5v0.7c-14.8,1-25.8,12.8-27.6,27v2.5v297.6c0,5.8,1.5,10.6,4,15
		c5.8,10.2,14.3,15.3,26.1,15.3h164.8v41.6h-31.3c-7.8,0-13.8,6-13.8,13.8c0,7.7,6,13.8,13.8,13.8h184.6c7.8,0,14-6,14-13.8
		c0-7.7-6.3-13.8-14-13.8h-31.3v-41.6h164.8c11.8,0,20.4-5.1,26.1-15.3c2.6-4.6,4.3-9.5,4.3-15V72.6v-2.5
		C510.2,55.8,498.5,44.1,484.2,43.1z M484.2,72.6v297.6c0,1.8-0.7,2.5-2.5,2.5H30.1c-1.8,0-2.5-0.7-2.5-2.5V72.6v-2.5h456.6
		L484.2,72.6L484.2,72.6z"/>
</g>
<g>
	<g>
		<path fill="#176ECB" d="M316.1,236.8c2.8-2.4,6-4.5,9.6-6.1v-1c0-7,5.7-12.7,12.7-12.7h3.2v-3.4c0-5.1-4.2-9.3-9.3-9.3H288
			c-5.1,0-9.3,4.2-9.3,9.3v52c0,5.1,4.2,9.3,9.3,9.3h15.4c-0.5-2.5-0.7-5.2-0.7-7.9c0-6,1.1-11.7,3.4-16.7
			C308.3,245.2,311.7,240.6,316.1,236.8z"/>
		<path fill="#176ECB" d="M213.6,102.3c-5.1,0-9.3,4.2-9.3,9.3v154.2c0,5.1,4.2,9.3,9.3,9.3h44.3c5.1,0,9.3-4.2,9.3-9.3V111.6
			c0-5.1-4.2-9.3-9.3-9.3C257.9,102.3,213.6,102.3,213.6,102.3z"/>
		<path fill="#176ECB" d="M192.7,265.7V160.4c0-5.1-4.2-9.3-9.3-9.3h-44.3c-5.1,0-9.3,4.2-9.3,9.3v105.3c0,5.1,4.2,9.3,9.3,9.3h44.3
			C188.5,275,192.7,270.9,192.7,265.7z"/>
		<path fill="#176ECB" d="M373.4,288.9c-2.7-2.7-6.2-5.1-10.4-6.9c-3.9-1.7-8.1-2.6-12.2-3.4c-5.3-1.1-10.4-2.1-13.7-4.9
			c-0.5-0.4-0.9-0.8-1.3-1.3c-1.3-1.6-2-3.7-2-6.2c0-2.6,0.8-4.7,2.4-6.5c1.3-1.5,3.3-2.6,5.5-3.2c1.2-0.3,2.6-0.5,3.9-0.5
			c3.4,0,6.5,1.2,8.4,3.3c1.4,1.5,2.4,4.1,2.9,7.4c0.3,2.2,2.2,3.8,4.4,3.8c0.2,0,0.5,0,0.7-0.1l14.2-2.1c2.4-0.4,4.1-2.6,3.7-5l0,0
			c-1.2-8.7-4.9-15.6-11-20.7c-3.1-2.6-7-4.6-11.4-5.9v-6.9c0-2.4-2-4.4-4.4-4.4h-11.3h-3.2c-2.4,0-4.4,2-4.4,4.4v6.8
			c-4.8,1.4-9.1,3.5-12.4,6.5c-7,6.1-10.6,14.2-10.6,24c0,2.8,0.3,5.4,0.9,7.9c0.6,2.5,1.5,4.8,2.7,7.1c2.5,4.5,6.1,8.1,10.6,10.7
			c6.5,3.6,12.8,5.2,19.7,6.8c4.6,1,9.6,2.5,12.2,5.7c1.2,1.5,1.8,3.7,1.8,6.5c0,3.5-1,6.3-3,8.6c-1.9,2.1-4.6,3.5-7.7,4
			c-0.7,0.1-1.5,0.2-2.3,0.2c-4.4,0-8.4-1.9-10.9-5c-1.1-1.4-2.6-4.5-3.6-10.9c-0.3-2.2-2.2-3.8-4.4-3.8c-0.3,0-0.5,0-0.8,0.1
			l-13.9,2.4c-2.2,0.4-3.8,2.4-3.7,4.7c0.5,6.9,2.3,12.8,5.4,17.7c3.2,5,7,8.6,11.5,10.9c2.5,1.3,5.2,2.4,8.1,3.1v5.7
			c0,2.4,2,4.4,4.4,4.4h14.4c2.4,0,4.4-2,4.4-4.4V344c6.2-1.7,11.5-4.8,15.7-9.2c6.1-6.4,9.1-14.3,9.1-23.7c0-4.3-0.7-8.4-2.2-12.1
			C378.4,295,376.2,291.7,373.4,288.9z"/>
	</g>
</g>
</svg>
