<?xml version="1.0" encoding="utf-8"?>
<!-- Generator: Adobe Illustrator 19.0.0, SVG Export Plug-In . SVG Version: 6.00 Build 0)  -->
<svg version="1.1" id="Layer_1" xmlns="http://www.w3.org/2000/svg" xmlns:xlink="http://www.w3.org/1999/xlink" x="0px" y="0px"
	 viewBox="0 0 200 200" style="enable-background:new 0 0 200 200;" xml:space="preserve">
<style type="text/css">
	.st0{fill:#3C92CA;}
</style>
<g>
	<path class="st0" d="M109.4,89.2c-1-0.5-1.7-1.6-1.7-2.8v-12c0-0.8,0.4-1.6,1.1-2.1c0.9-0.6,1.4-1.5,1.4-2.6V57.3
		c0-4.8-3.9-8.7-8.7-8.7h-2.7c-4.8,0-8.7,3.9-8.7,8.7v12.4c0,1,0.5,2,1.4,2.6c0.7,0.5,1.1,1.3,1.1,2.1v12c0,1.1-0.7,2.2-1.7,2.8
		c-1.6,0.8-9.7,4.9-17.2,11c-0.8,0.7-1.3,1.7-1.3,2.7v6h55.4v-6c0-1-0.5-2-1.3-2.7C119,94.1,110.9,89.9,109.4,89.2z"/>
	<path class="st0" d="M100,0C44.8,0,0,44.8,0,100s44.8,100,100,100s100-44.8,100-100S155.2,0,100,0z M57,80.7
		c0.7,0.5,1.1,1.2,1.1,2.1v9.3c0,1.1-0.6,2.2-1.7,2.7c-1.2,0.6-7.5,3.7-13.2,8.4c-0.5,0.4-0.8,1-0.8,1.7v4.1h18
		c1.4,0,2.5,1.1,2.5,2.5s-1.1,2.5-2.5,2.5H40c-1.4,0-2.5-1.1-2.5-2.5v-6.6c0-2.2,1-4.2,2.6-5.6c5.1-4.2,10.5-7.2,13-8.5V84
		c-1.2-1.3-1.9-3-1.9-4.8v-9.6c0-6.1,5-11.2,11.2-11.2h2.1c6.1,0,11.2,5,11.2,11.2v9.6c0,1.8-0.7,3.5-1.9,4.8v3.5
		c0,1.4-1.1,2.5-2.5,2.5s-2.5-1.1-2.5-2.5v-4.6c0-0.8,0.4-1.6,1.1-2.1c0.5-0.3,0.8-0.9,0.8-1.5v-9.6c0-3.4-2.8-6.1-6.1-6.1h-2.1
		c-3.4,0-6.1,2.8-6.1,6.1v9.6C56.2,79.8,56.5,80.4,57,80.7z M91.4,166.9l-3.2-3.2l5.7-5.7l3.2,3.2L91.4,166.9z M84.6,155.1v-4.5h8.1
		v4.5H84.6z M93.9,147.6l-5.7-5.7l3.2-3.2l5.7,5.7L93.9,147.6z M104.6,170.5h-4.5v-8.1h4.5V170.5z M104.6,143.2h-4.5v-8.1h4.5V143.2
		z M113.2,166.9l-5.7-5.7l3.2-3.2l5.7,5.7L113.2,166.9z M120,155.1h-8.1v-4.5h8.1V155.1z M132.9,111.4c0,1.4-1.1,2.5-2.5,2.5H69.9
		c-1.4,0-2.5-1.1-2.5-2.5v-8.5c0-2.6,1.1-5,3.1-6.6c6.8-5.6,14.1-9.6,17.1-11.1v-9.6C86,74.1,85,72,85,69.7V57.3
		c0-7.6,6.1-13.7,13.7-13.7h2.7c7.6,0,13.7,6.1,13.7,13.7v12.4c0,2.2-0.9,4.4-2.5,5.9v9.6c3,1.5,10.3,5.5,17.1,11.1
		c2,1.6,3.1,4,3.1,6.6L132.9,111.4L132.9,111.4z M162.5,111.4c0,1.4-1.1,2.5-2.5,2.5h-20.2c-1.4,0-2.5-1.1-2.5-2.5s1.1-2.5,2.5-2.5
		h17.7v-4.1c0-0.7-0.3-1.2-0.8-1.7c-5.8-4.7-12-7.9-13.2-8.4c-1-0.5-1.7-1.5-1.7-2.7v-9.3c0-0.8,0.4-1.6,1.1-2.1
		c0.5-0.3,0.8-0.9,0.8-1.5v-9.6c0-3.4-2.8-6.1-6.1-6.1h-2.1c-3.4,0-6.1,2.8-6.1,6.1v9.6c0,0.6,0.3,1.2,0.8,1.5
		c0.7,0.5,1.1,1.2,1.1,2.1v4.4c0,1.4-1.1,2.5-2.5,2.5c-1.4,0-2.5-1.1-2.5-2.5V84c-1.2-1.3-1.9-3-1.9-4.8v-9.6
		c0-6.2,5-11.2,11.2-11.2h2.1c6.1,0,11.2,5,11.2,11.2v9.6c0,1.8-0.7,3.5-1.9,4.8v6.8c2.5,1.3,7.9,4.3,13,8.5
		c1.7,1.4,2.6,3.4,2.6,5.6v6.5H162.5z"/>
</g>
</svg>
