<?xml version="1.0" encoding="utf-8"?>
<!-- Generator: Adobe Illustrator 19.0.0, SVG Export Plug-In . SVG Version: 6.00 Build 0)  -->
<svg version="1.1" id="Layer_1" xmlns="http://www.w3.org/2000/svg" xmlns:xlink="http://www.w3.org/1999/xlink" x="0px" y="0px"
	 viewBox="0 0 200 200" style="enable-background:new 0 0 200 200;" xml:space="preserve">
<style type="text/css">
	.st0{fill:#0B4EBC;}
</style>
<g id="XMLID_3_">
	<path id="XMLID_6_" class="st0" d="M100,38.2c-34.1,0-61.8,27.7-61.8,61.8c0,34.1,27.7,61.8,61.8,61.8c34.1,0,61.8-27.7,61.8-61.8
		C161.8,65.9,134.1,38.2,100,38.2z M127.2,121.2c-0.2,1.9-1,3.4-2.3,4.6c-1.6,1.4-3.9,2.1-6.9,2.1c-3,0-5.6-0.9-7.8-2.8
		c-2.1-1.9-3.3-4.7-3.4-8.5c-1.8,3.6-4.4,6.4-7.8,8.3c-3.4,2-7.2,3-11.6,3c-4.3,0-7.9-1.2-10.6-3.5c-2.8-2.3-4.1-5.5-4.1-9.5
		c0-4,0.8-7.3,2.5-9.6c4.7-6.2,14-9.3,27.8-9.3h3.7V85.9c0-7.6-3.5-11.5-10.5-11.5c-3.1,0-5.7,0.7-7.7,2.2c-2,1.5-3.3,3.9-3,5.1
		c3.1,1.9,3.7,5.9,1,8.8c-1.9,2-6.5,2.2-9.3-0.5c-1.3-1.3-1.9-2.9-1.9-4.8c0-3.6,2-6.7,6.1-9.3c4-2.6,9-3.9,14.8-3.9
		c14.1,0,21,5.3,20.9,16V120c0,3.1,1.3,4.7,3.9,4.7c2.3,0,3.5-1.2,3.8-3.5c0-0.3,0.1-8.2,0.1-8.6h2.2
		C127.2,113,127.2,120.9,127.2,121.2z"/>
	<path id="XMLID_13_" class="st0" d="M89.5,102.4c-3.7,2.6-5.5,6.5-5.5,11.6c0,2.8,0.8,5,2.3,6.6c1.5,1.6,3.8,2.4,6.8,2.4
		c3,0,6-1.2,8.8-3.7c2.8-2.5,4.4-5.8,4.9-10.1V98.6h-3.7C97.7,98.6,93.2,99.9,89.5,102.4z"/>
	<path id="XMLID_16_" class="st0" d="M100,0C44.8,0,0,44.8,0,100c0,55.2,44.8,100,100,100s100-44.8,100-100C200,44.8,155.2,0,100,0z
		 M100,171.7c-39.6,0-71.7-32.1-71.7-71.7c0-39.6,32.1-71.7,71.7-71.7c39.6,0,71.7,32.1,71.7,71.7
		C171.7,139.6,139.6,171.7,100,171.7z"/>
</g>
</svg>
