<?xml version="1.0" encoding="utf-8"?>
<!-- Generator: Adobe Illustrator 18.0.0, SVG Export Plug-In . SVG Version: 6.00 Build 0)  -->
<!DOCTYPE svg PUBLIC "-//W3C//DTD SVG 1.1//EN" "http://www.w3.org/Graphics/SVG/1.1/DTD/svg11.dtd">
<svg version="1.1" id="Layer_1" xmlns="http://www.w3.org/2000/svg" xmlns:xlink="http://www.w3.org/1999/xlink" x="0px" y="0px"
	 viewBox="0 0 256 256" enable-background="new 0 0 256 256" xml:space="preserve">
<path id="XMLID_9_" fill="#9B59B6" d="M128,0C57.3,0,0,57.3,0,128s57.3,128,128,128s128-57.3,128-128S198.7,0,128,0z"/>
<g>
	<path fill="#FFFFFF" d="M130.9,128.2c-1.9-1-3.9-1.8-5.8-2.6c-1.2-0.5-2.2-1-3.2-1.8c-1.9-1.5-1.5-4,0.7-5c0.6-0.2,1.3-0.4,2-0.4
		c2.6-0.1,5,0.3,7.3,1.5c1.2,0.6,1.5,0.4,2-0.8c0.4-1.3,0.7-2.6,1.2-3.9c0.2-0.9-0.1-1.4-0.9-1.8c-1.5-0.7-3-1.1-4.6-1.4
		c-2.1-0.3-2.1-0.3-2.1-2.4c0-3,0-3-3-3c-0.4,0-0.9,0-1.3,0c-1.4,0.1-1.7,0.3-1.7,1.7c0,0.6,0,1.3,0,1.9c0,1.9,0,1.8-1.8,2.5
		c-4.3,1.6-7,4.5-7.3,9.2c-0.2,4.2,1.9,7,5.4,9.1c2.1,1.3,4.5,2,6.7,3c0.9,0.4,1.7,0.8,2.4,1.4c2.1,1.8,1.8,4.7-0.8,5.9
		c-1.3,0.6-2.8,0.7-4.3,0.6c-2.3-0.3-4.5-0.9-6.5-2c-1.2-0.6-1.6-0.5-2,0.9c-0.4,1.1-0.7,2.3-1,3.4c-0.4,1.5-0.2,1.9,1.2,2.6
		c1.9,0.9,3.9,1.3,5.9,1.7c1.6,0.2,1.7,0.3,1.7,2c0,0.7,0,1.5,0,2.3c0,0.9,0.5,1.5,1.4,1.5c1.1,0,2.2,0,3.3,0c0.9,0,1.3-0.5,1.3-1.4
		c0-1,0.1-2.1,0-3.1c-0.1-1,0.4-1.6,1.4-1.8c2.3-0.6,4.3-1.9,5.8-3.7C138.5,139,136.8,131.4,130.9,128.2z"/>
</g>
<g>
	<g>
		<path fill="#FFFFFF" d="M182.7,80.1c-2.3,1.8-2.6,5.2-0.8,7.4c10.4,12.9,15.9,28.4,15.9,45c0,39.6-32.2,71.7-71.7,71.7
			s-71.7-32.2-71.7-71.7c0-27.5,16-52.1,39.6-64.1c8.7-4.4,14.7,1.7,12.4,11.2l-4.5,18.1c-0.7,2.8,1,5.7,3.9,6.4
			c0.4,0.1,0.9,0.2,1.3,0.2c2.4,0,4.5-1.6,5.1-4l11.7-47.6c0.7-2.7-0.8-5.4-3.4-6.3L70.9,29.4c-1.4-0.5-2.8-0.4-4,0.2
			c-2.1,1-3.4,5-2.4,7.1c0.6,1.2,1.7,2.2,3,2.7l21.8,7.5c9.2,3.2,8.9,7.5,0.2,11.9c-27.3,13.6-45.8,42-45.8,73.7
			c0,45.4,36.9,82.3,82.3,82.3c45.4,0,82.3-36.9,82.3-82.3c0-18.7-6.5-37.1-18.2-51.7C188.3,78.6,185,78.3,182.7,80.1z"/>
	</g>
</g>
</svg>
