<?xml version="1.0" encoding="utf-8"?>
<!-- Generator: Adobe Illustrator 19.0.0, SVG Export Plug-In . SVG Version: 6.00 Build 0)  -->
<svg version="1.1" id="Layer_1" xmlns="http://www.w3.org/2000/svg" xmlns:xlink="http://www.w3.org/1999/xlink" x="0px" y="0px"
	 viewBox="0 0 200 200" style="enable-background:new 0 0 200 200;" xml:space="preserve">
<style type="text/css">
	.st0{fill:#2ECC71;}
</style>
<g id="XMLID_2_">
	<path id="XMLID_11_" class="st0" d="M100,56.6c-23.6,0-42.9,19.4-42.9,42.9c0,23.6,19.4,42.9,42.9,42.9c23.6,0,42.9-19.4,42.9-42.9
		C142.9,75.9,123.6,56.6,100,56.6z M109.4,132.5H90.6c-2.6,0-4.7-2.1-4.7-4.7c0-2.6,2.1-4.7,4.7-4.7h18.9c2.6,0,4.7,2.1,4.7,4.7
		C114.1,130.4,112,132.5,109.4,132.5z M121.5,94.3l-18.3,18.3c-1,1-2.1,1.6-3.1,1.6s-2.6-0.5-3.1-1.6L78.6,94.3
		c-2.1-2.1-2.1-4.7,0-6.8c2.1-2.1,4.7-2.1,6.8,0l9.9,9.9V70.7c0-2.6,2.1-4.7,4.7-4.7c2.6,0,4.7,2.1,4.7,4.7v26.7l9.9-9.9
		c2.1-2.1,4.7-2.1,6.8,0C123.6,89,123.6,92.2,121.5,94.3z"/>
	<path id="XMLID_18_" class="st0" d="M100,0C44.8,0,0,44.8,0,100c0,55.2,44.8,100,100,100s100-44.8,100-100C200,44.8,155.2,0,100,0z
		 M100,151.9c-28.8,0-52.4-23.6-52.4-52.4c0-28.8,23.6-52.4,52.4-52.4s52.4,23.6,52.4,52.4C152.4,128.3,128.8,151.9,100,151.9z"/>
</g>
</svg>
