<?xml version="1.0" encoding="utf-8"?>
<!-- Generator: Adobe Illustrator 19.0.0, SVG Export Plug-In . SVG Version: 6.00 Build 0)  -->
<svg version="1.1" id="Layer_1" xmlns="http://www.w3.org/2000/svg" xmlns:xlink="http://www.w3.org/1999/xlink" x="0px" y="0px"
	 viewBox="0 0 200 200" style="enable-background:new 0 0 200 200;" xml:space="preserve">
<style type="text/css">
	.st0{fill:#4ECDC4;}
</style>
<g>
	<path class="st0" d="M70.9,102h2.3c0.7,0,1.2-0.6,1.2-1.2V87.6c0-0.5-0.5-0.8-1-0.8h-2.8c-0.4,0-0.7,0.6-0.7,1v13.4
		C70.1,101.6,70.5,102,70.9,102z"/>
	<path class="st0" d="M125.1,109.4V71.2c0-4.2-3.4-7.7-7.7-7.7H55c-4.2,0-7.7,3.4-7.7,7.7v38.1c0,4.2,3.4,7.7,7.7,7.7h8
		c1.4,0,2.6,1.2,2.6,2.6v12.1l14.6-13.9c0.5-0.5,1.1-0.7,1.8-0.7h35.3C121.6,117,125.1,113.6,125.1,109.4z M102.8,87.7l-2,12.8
		c-0.4,3-2.5,4.8-5.8,4.8H80c-1.3,0-2.5-1.3-3.4-2.2c-0.4,1.1-1.4,1.6-2.4,1.6h-3.9c-1.5,0-2.7-0.7-2.7-2.7V87
		c0-1.3,0.7-2.4,2.2-2.4h4.7c0.9,0,1.7,0.4,1.9,1.6c0.1-0.1,0.2-1.1,0.3-1.1c0.2-0.1,5.8-1.7,5.8-6.6v-6.1c0-0.4,0.2-0.7,0.6-0.8
		c0.1,0,3-0.9,5.1,0.6c1.3,1,2,2.6,2,4.9v5.5h8.3C101.3,82.6,103.3,85,102.8,87.7L102.8,87.7z"/>
	<path class="st0" d="M99.8,0C44.6,0-0.2,44.8-0.2,100s44.8,100,100,100s100-44.8,100-100S155,0,99.8,0z M63,140.5
		c-0.3,0-0.7-0.1-1-0.2c-1-0.4-1.6-1.4-1.6-2.4v-15.6H55c-7.1,0-12.9-5.8-12.9-12.9V71.2c0-7.1,5.8-12.9,12.9-12.9h62.5
		c7.1,0,12.9,5.8,12.9,12.9v38.1c0,7.1-5.8,12.9-12.9,12.9H83.1l-18.3,17.5C64.3,140.2,63.7,140.5,63,140.5z M159.8,120.8
		c0,7.1-5.7,12.8-12.8,12.8h-5.4V149c0,1-0.6,2-1.6,2.4c-0.3,0.1-0.7,0.2-1,0.2c-0.7,0-1.3-0.3-1.8-0.7l-18.1-17.3H85
		c-3.7,0-4-5.3,0-5.3h35.1c0.7,0,1.3,0.3,1.8,0.7l14.4,13.8V131c0-1.4,1.2-2.6,2.6-2.6h8c4.2,0,7.6-3.4,7.6-7.6V83
		c0-4.2-3.4-7.6-7.6-7.6h-8.6c-1.4,0-2.6-1.2-2.6-2.6s1.2-2.6,2.6-2.6h8.6c7.1,0,12.8,5.7,12.8,12.8L159.8,120.8L159.8,120.8z"/>
</g>
<path d="M-137.9,92.7"/>
</svg>
