<?xml version="1.0" encoding="utf-8"?>
<!-- Generator: Adobe Illustrator 19.0.0, SVG Export Plug-In . SVG Version: 6.00 Build 0)  -->
<svg version="1.1" id="Layer_1" xmlns="http://www.w3.org/2000/svg" xmlns:xlink="http://www.w3.org/1999/xlink" x="0px" y="0px"
	 viewBox="0 0 200 200" style="enable-background:new 0 0 200 200;" xml:space="preserve">
<style type="text/css">
	.st0{fill:#DD4B39;}
</style>
<path id="XMLID_6_" class="st0" d="M100,0C44.8,0,0,44.8,0,100c0,55.2,44.8,100,100,100s100-44.8,100-100C200,44.8,155.2,0,100,0z
	 M148.8,100.2c0,26.8-21.8,48.7-48.7,48.7S51.5,127,51.5,100.2s21.8-48.7,48.7-48.7c10.8,0,21.1,3.5,29.7,10.1l-11.3,14.7
	c-5.3-4.1-11.7-6.2-18.3-6.2C83.5,70,70,83.6,70,100.2c0,16.6,13.5,30.1,30.1,30.1c13.4,0,24.7-8.8,28.7-20.8h-28.7V90.9h48.7V100.2
	z"/>
</svg>
