<?xml version="1.0" encoding="utf-8"?>
<!-- Generator: Adobe Illustrator 18.0.0, SVG Export Plug-In . SVG Version: 6.00 Build 0)  -->
<!DOCTYPE svg PUBLIC "-//W3C//DTD SVG 1.1//EN" "http://www.w3.org/Graphics/SVG/1.1/DTD/svg11.dtd">
<svg version="1.1" id="Layer_1" xmlns="http://www.w3.org/2000/svg" xmlns:xlink="http://www.w3.org/1999/xlink" x="0px" y="0px"
	 viewBox="0 0 612 792" enable-background="new 0 0 612 792" xml:space="preserve">
<g>
	<g>
		<g>
			<g>
				<defs>
					<path id="SVGID_1_" d="M306,113.6C136.7,113.6-0.6,250.9-0.6,420.2c0,169.4,137.3,306.6,306.6,306.6
						c169.4,0,306.6-137.3,306.6-306.6C612.7,250.9,475.4,113.6,306,113.6z"/>
				</defs>
				<clipPath id="SVGID_2_">
					<use xlink:href="#SVGID_1_"  overflow="visible"/>
				</clipPath>
				
					<radialGradient id="SVGID_3_" cx="339.6743" cy="-260.5343" r="0.7951" gradientTransform="matrix(256.9204 -748.8289 748.8289 256.9204 108001.5 322020.2812)" gradientUnits="userSpaceOnUse">
					<stop  offset="0" style="stop-color:#FFD676"/>
					<stop  offset="0.2463" style="stop-color:#F2A454"/>
					<stop  offset="0.3793" style="stop-color:#F05C3C"/>
					<stop  offset="0.6995" style="stop-color:#C22F86"/>
					<stop  offset="0.9568" style="stop-color:#6666AD"/>
					<stop  offset="0.9852" style="stop-color:#5C6CB2"/>
					<stop  offset="1" style="stop-color:#5C6CB2"/>
				</radialGradient>
				<polygon clip-path="url(#SVGID_2_)" fill="url(#SVGID_3_)" points="-197.4,661.8 59.6,-87.5 809.8,169.9 552.6,919.2 				"/>
			</g>
		</g>
	</g>
</g>
<g>
	<path fill="#FFFFFF" d="M376,594.4H236c-54.8,0-99.5-44.7-99.5-99.5V345.5c0-54.8,44.7-99.5,99.5-99.5h139.9
		c54.8,0,99.5,44.7,99.5,99.5v149.3C475.5,549.7,430.8,594.4,376,594.4z M236,271.5c-40.8,0-74.1,33.2-74.1,74.1v149.3
		c0,40.8,33.2,74.1,74.1,74.1h139.9c40.8,0,73.9-33.2,73.9-74.1V345.5c0-40.8-33.2-74.1-73.9-74.1H236V271.5z"/>
	<path fill="#FFFFFF" d="M306,512.2c-51,0-92.5-41.5-92.5-92.5c0-25.2,10.3-49.7,28.4-67.2c17.6-17.1,40.5-26.1,64.6-25.3
		c28.8,0.9,52.8,10.5,69.2,28c15.5,16.6,23.5,39,22.9,64.7l0,0c-0.5,24.7-10.3,47.7-27.4,65C353.7,502.6,330.6,512.2,306,512.2z
		 M303.9,358.2c-14.9,0-29.3,5.9-40.3,16.6c-12,11.6-19,28-19,44.8c0,33.8,27.5,61.3,61.3,61.3c33.7,0,60.6-27.1,61.3-61.7
		c0.4-17.5-4.7-32.2-14.6-42.8c-10.6-11.4-26.9-17.6-47.2-18.2C305,358.4,304.4,358.2,303.9,358.2z"/>
	<path fill="#FFFFFF" d="M422.4,324.6c0,11.9-9.7,21.5-21.5,21.5s-21.5-9.7-21.5-21.5S389,303,400.9,303
		C412.7,302.9,422.4,312.6,422.4,324.6"/>
</g>
</svg>
