<?xml version="1.0" encoding="utf-8"?>
<!-- Generator: Adobe Illustrator 18.0.0, SVG Export Plug-In . SVG Version: 6.00 Build 0)  -->
<!DOCTYPE svg PUBLIC "-//W3C//DTD SVG 1.1//EN" "http://www.w3.org/Graphics/SVG/1.1/DTD/svg11.dtd">
<svg version="1.1" id="Layer_1" xmlns="http://www.w3.org/2000/svg" xmlns:xlink="http://www.w3.org/1999/xlink" x="0px" y="0px"
	 viewBox="0 0 256 256" enable-background="new 0 0 256 256" xml:space="preserve">
<path id="XMLID_9_" fill="#9B59B6" d="M128,0C57.3,0,0,57.3,0,128s57.3,128,128,128s128-57.3,128-128S198.7,0,128,0z M94.3,184.4
	h-8.7v-18.3c0-12.2-9.5-21.8-21.8-21.8c-12.2,0-21.8,9.5-21.8,21.8v18.3h-8.7v-18.3c0-15.2,11.3-27.8,26.1-30V96.5l-15.7,15.7
	l-6.1-6.1L63.9,80L90,106l-6.1,6.1L68.3,96.5V136c14.8,2.2,26.1,14.8,26.1,30V184.4z"/>
<polygon fill="#FFFFFF" points="171.8,81.1 194,58.9 216.2,81.1 211,86.3 194,70.5 177,86.3 "/>
<g>
	<path fill="#FFFFFF" d="M224.3,184.4h-8.7v-18.3c0-12.2-9.5-21.8-21.8-21.8c-12.2,0-21.8,9.5-21.8,21.8v18.3h-8.7v-18.3
		c0-15.2,11.3-27.8,26.1-30V96.5l-15.7,15.7l-6.1-6.1L193.9,80L220,106l-6.1,6.1l-15.6-15.7V136c14.8,2.2,26.1,14.8,26.1,30V184.4z"
		/>
</g>
<path fill="#FFFFFF" d="M131.4,112.6c-0.5-0.6-1.4-0.6-2,0c-0.5,0.5-0.5,1.4,0,2l10.1,10.1h-33.3c-0.8,0-1.4,0.6-1.4,1.4
	c0,0.8,0.6,1.4,1.4,1.4h33.3l-10.1,10.1c-0.5,0.6-0.5,1.5,0,2c0.6,0.6,1.5,0.6,2,0l12.5-12.5c0.6-0.5,0.6-1.4,0-2L131.4,112.6z"/>
</svg>
