<?xml version="1.0" encoding="utf-8"?>
<!-- Generator: Adobe Illustrator 18.0.0, SVG Export Plug-In . SVG Version: 6.00 Build 0)  -->
<!DOCTYPE svg PUBLIC "-//W3C//DTD SVG 1.1//EN" "http://www.w3.org/Graphics/SVG/1.1/DTD/svg11.dtd">
<svg version="1.1" id="Layer_1" xmlns="http://www.w3.org/2000/svg" xmlns:xlink="http://www.w3.org/1999/xlink" x="0px" y="0px"
	 viewBox="0 0 256 256" enable-background="new 0 0 256 256" xml:space="preserve">
<path id="XMLID_9_" fill="#9B59B6" d="M128,0C57.3,0,0,57.3,0,128s57.3,128,128,128s128-57.3,128-128S198.7,0,128,0z M94.3,184.4
	h-8.7v-18.3c0-12.2-9.5-21.8-21.8-21.8c-12.2,0-21.8,9.5-21.8,21.8v18.3h-8.7v-18.3c0-15.2,11.3-27.8,26.1-30V96.5l-15.7,15.7
	l-6.1-6.1L63.9,80L90,106l-6.1,6.1L68.3,96.5V136c14.8,2.2,26.1,14.8,26.1,30V184.4z"/>
<path fill="#FFFFFF" d="M131.4,112.6c-0.5-0.6-1.4-0.6-2,0c-0.5,0.5-0.5,1.4,0,2l10.1,10.1h-33.3c-0.8,0-1.4,0.6-1.4,1.4
	c0,0.8,0.6,1.4,1.4,1.4h33.3l-10.1,10.1c-0.5,0.6-0.5,1.5,0,2c0.6,0.6,1.5,0.6,2,0l12.5-12.5c0.6-0.5,0.6-1.4,0-2L131.4,112.6z"/>
<g>
	<path fill="none" stroke="#FFFFFF" stroke-width="6" stroke-miterlimit="10" d="M205.3,148c-1.5-0.6-2.5-2.1-2.5-3.7v-15.7
		c0-1,0.6-2.1,1.6-2.7c1.3-0.8,2-2,2-3.4v-16.1c0-6.3-5.6-11.4-12.6-11.4H190c-7,0-12.6,5.1-12.6,11.4v16.2c0,1.3,0.7,2.6,2,3.4
		c1,0.6,1.6,1.7,1.6,2.7v15.7c0,1.5-1,2.9-2.5,3.7c-2.3,1-14,6.4-24.9,14.4c-1.1,0.9-1.9,2.2-1.9,3.6v7.9H232v-7.9
		c0-1.3-0.7-2.6-1.9-3.6C219.2,154.4,207.5,149,205.3,148z"/>
</g>
<g>
	<path fill="#FFFFFF" d="M196,55.7c-1.3-0.7-2.6-1.3-4-1.8c-0.8-0.3-1.5-0.7-2.2-1.2c-1.3-1-1-2.7,0.5-3.4c0.4-0.2,0.9-0.3,1.3-0.3
		c1.8-0.1,3.4,0.2,5,1c0.8,0.4,1,0.3,1.3-0.5c0.3-0.9,0.5-1.8,0.8-2.6c0.2-0.6,0-1-0.6-1.2c-1-0.5-2-0.8-3.2-1
		c-1.4-0.2-1.4-0.2-1.5-1.7c0-2,0-2-2-2c-0.3,0-0.6,0-0.9,0c-1,0-1.1,0.2-1.1,1.2c0,0.4,0,0.9,0,1.3c0,1.3,0,1.3-1.3,1.7
		c-3,1.1-4.8,3.1-5,6.3c-0.2,2.8,1.3,4.8,3.7,6.2c1.5,0.9,3.1,1.4,4.6,2c0.6,0.3,1.2,0.5,1.7,1c1.5,1.2,1.2,3.2-0.5,4
		c-0.9,0.4-1.9,0.5-2.9,0.4c-1.5-0.2-3.1-0.6-4.5-1.3c-0.8-0.4-1.1-0.3-1.3,0.6c-0.3,0.8-0.5,1.5-0.7,2.3c-0.3,1-0.2,1.3,0.8,1.8
		c1.3,0.6,2.6,0.9,4,1.2c1.1,0.2,1.1,0.2,1.1,1.3c0,0.5,0,1,0,1.5c0,0.6,0.3,1,1,1c0.8,0,1.5,0,2.3,0c0.6,0,0.9-0.3,0.9-1
		c0-0.7,0-1.4,0-2.1c0-0.7,0.3-1.1,1-1.3c1.6-0.4,2.9-1.3,4-2.6C201.2,63,200.1,57.9,196,55.7z"/>
</g>
</svg>
