<?xml version="1.0" encoding="utf-8"?>
<!-- Generator: Adobe Illustrator 19.0.0, SVG Export Plug-In . SVG Version: 6.00 Build 0)  -->
<svg version="1.1" id="Layer_1" xmlns="http://www.w3.org/2000/svg" xmlns:xlink="http://www.w3.org/1999/xlink" x="0px" y="0px"
	 viewBox="0 0 200 200" style="enable-background:new 0 0 200 200;" xml:space="preserve">
<style type="text/css">
	.st0{fill:#9B59B6;}
</style>
<path id="XMLID_9_" class="st0" d="M100,0C44.8,0,0,44.8,0,100c0,55.2,44.8,100,100,100s100-44.8,100-100C200,44.8,155.2,0,100,0z
	 M134.8,159.7h-9.9v-20.9c0-13.9-10.9-24.9-24.9-24.9c-13.9,0-24.9,10.9-24.9,24.9v20.9h-9.9v-20.9c0-17.4,12.9-31.8,29.8-34.3V59.2
	L77.1,77.1l-7-7L100,40.3l29.8,29.8l-7,7L105,59.2v45.2c16.9,2.5,29.8,16.9,29.8,34.3V159.7z"/>
</svg>
