<?xml version="1.0" encoding="utf-8"?>
<!-- Generator: Adobe Illustrator 19.0.0, SVG Export Plug-In . SVG Version: 6.00 Build 0)  -->
<svg version="1.1" id="Layer_1" xmlns="http://www.w3.org/2000/svg" xmlns:xlink="http://www.w3.org/1999/xlink" x="0px" y="0px"
	 viewBox="0 0 500 500" style="enable-background:new 0 0 500 500;" xml:space="preserve">
<style type="text/css">
	.st0{fill:#0E76A8;}
</style>
<path class="st0" d="M249.5,0.1C111.2,0.1-0.9,112.2-0.9,250.5C-0.9,388.8,111.2,501,249.5,501C387.9,501,500,388.8,500,250.5
	C500,112.2,387.9,0.1,249.5,0.1z M163.4,125.3c13,0,23.5,10.5,23.5,23.5c0,13-10.5,23.5-23.5,23.5c-13,0-23.5-10.5-23.5-23.5
	C139.9,135.8,150.5,125.3,163.4,125.3z M187.1,344.2h-46.9V187.9h46.9V344.2z M374.9,344.2H328v-85.2c0-17.5-5.1-35-25.6-35
	c-20.6,0-37,17.5-37,35.4v84.8h-47.1V187.4h47.1v21.8c14.4-18.3,34.8-26.7,57.6-26.7c22.8,0,52,11.4,52,73V344.2z"/>
</svg>
