<?xml version="1.0" encoding="utf-8"?>
<!-- Generator: Adobe Illustrator 19.0.0, SVG Export Plug-In . SVG Version: 6.00 Build 0)  -->
<svg version="1.1" id="Layer_1" xmlns="http://www.w3.org/2000/svg" xmlns:xlink="http://www.w3.org/1999/xlink" x="0px" y="0px"
	 viewBox="0 0 200 200" style="enable-background:new 0 0 200 200;" xml:space="preserve">
<style type="text/css">
	.st0{fill:#34495E;}
</style>
<path id="XMLID_12_" class="st0" d="M100,0C44.8,0,0,44.8,0,100c0,55.2,44.8,100,100,100s100-44.8,100-100C200,44.8,155.2,0,100,0z
	 M86.2,124.2c0,0.7-0.3,1-1,1H62.6c-0.6,0-1-0.3-1-1V75.8c0-0.6,0.4-1,1-1h6.6c0.7,0,1,0.4,1,1v41.1h15c0.7,0,1,0.4,1,1V124.2z
	 M110.2,82.1c0,0.6-0.3,1-1,1h-7.3v41.1c0,0.7-0.3,1-1,1h-6.6c-0.6,0-1-0.3-1-1V83.1h-7.3c-0.6,0-1-0.4-1-1v-6.3c0-0.6,0.4-1,1-1
	h23.2c0.7,0,1,0.4,1,1V82.1z M144.4,76.1l-10.7,48c-0.2,0.8-0.6,1.1-1.4,1.1H126c-0.8,0-1.2-0.4-1.4-1.1l-10.6-48
	c-0.2-0.9,0.2-1.4,1.1-1.4h6c0.8,0,1.2,0.4,1.4,1.1l6.6,33.8l6.7-33.8c0.2-0.8,0.6-1.1,1.4-1.1h6C144.2,74.8,144.6,75.3,144.4,76.1z
	"/>
</svg>
