<?xml version="1.0" encoding="utf-8"?>
<!-- Generator: Adobe Illustrator 19.0.0, SVG Export Plug-In . SVG Version: 6.00 Build 0)  -->
<svg version="1.1" id="Layer_1" xmlns="http://www.w3.org/2000/svg" xmlns:xlink="http://www.w3.org/1999/xlink" x="0px" y="0px"
	 viewBox="0 0 200 200" style="enable-background:new 0 0 200 200;" xml:space="preserve">
<style type="text/css">
	.st0{fill:#EB644B;}
</style>
<path d="M-121.1,111.2"/>
<path class="st0" d="M100,53.1c-27.6,0-49.9,19.1-49.9,42.7c0,14.5,8.4,27.3,21.3,35l-0.2,16.5l16.8-10c3.9,0.8,7.9,1.3,12,1.3
	c27.5,0,49.9-19.2,49.9-42.8C149.9,72.3,127.5,53.1,100,53.1z M77.7,81.6c-1.4,1.2-2.5,2.2-3.4,3.3c-0.9,1-1.5,2.4-1.9,4.1
	c0.9,0,1.9,0.6,3,1.8c1,1.2,1.6,2.6,1.6,4.1c0,1.4-0.6,2.8-1.7,4.1c-1.2,1.3-2.6,2-4.3,2c-1.7,0-3.2-0.7-4.4-2.1
	c-1.2-1.4-1.8-3.2-1.8-5.3c0-3.1,1-6.3,3.1-9.7c2.1-3.4,4.7-5.9,7.8-7.6l2.4,5L77.7,81.6z M93,81.6c-1.4,1.2-2.5,2.2-3.4,3.3
	c-0.9,1-1.5,2.4-1.9,4.1c0.9,0,1.9,0.6,3,1.8c1.1,1.2,1.7,2.6,1.7,4.1c0,1.4-0.6,2.8-1.8,4.1c-1.2,1.3-2.6,2-4.3,2
	c-1.7,0-3.2-0.7-4.4-2.1c-1.2-1.4-1.8-3.2-1.8-5.3c0-3.1,1-6.3,3.1-9.7c2.1-3.4,4.6-5.9,7.7-7.6l2.5,5L93,81.6z M115,112.1
	c-2.1,3.4-4.6,5.9-7.7,7.6l-2.5-5l0.3-0.3c1.4-1.2,2.5-2.2,3.4-3.3c0.9-1,1.5-2.4,1.9-4.1c-0.9,0-1.9-0.6-3-1.8
	c-1.1-1.2-1.7-2.6-1.7-4.1c0-1.4,0.6-2.8,1.8-4.1c1.2-1.3,2.6-2,4.3-2c1.7,0,3.2,0.7,4.4,2.1c1.2,1.4,1.8,3.2,1.8,5.3
	C118.1,105.5,117,108.7,115,112.1z M130.2,112.1c-2.1,3.4-4.7,5.9-7.8,7.6l-2.4-5l0.3-0.3c1.4-1.2,2.5-2.2,3.4-3.3
	c0.9-1,1.5-2.4,1.9-4.1c-0.9,0-1.9-0.6-3-1.8c-1-1.2-1.6-2.6-1.6-4.1c0-1.4,0.6-2.8,1.7-4.1c1.2-1.3,2.6-2,4.3-2
	c1.7,0,3.2,0.7,4.4,2.1s1.8,3.2,1.8,5.3C133.3,105.5,132.3,108.7,130.2,112.1z"/>
<path class="st0" d="M100,0C44.8,0,0,44.8,0,100s44.8,100,100,100s100-44.8,100-100S155.2,0,100,0z M100,145.7
	c-3.7,0-7.2-0.3-10.7-0.9l-25,15.2v-25.2c-13-9.1-21.4-23.2-21.4-38.9C43,68.3,68.5,46,100,46s57,22.3,57,49.9
	C157,123.4,131.5,145.7,100,145.7z"/>
</svg>
