<?xml version="1.0" encoding="utf-8"?>
<!-- Generator: Adobe Illustrator 19.0.0, SVG Export Plug-In . SVG Version: 6.00 Build 0)  -->
<svg version="1.1" id="Layer_1" xmlns="http://www.w3.org/2000/svg" xmlns:xlink="http://www.w3.org/1999/xlink" x="0px" y="0px"
	 viewBox="0 0 200 200" style="enable-background:new 0 0 200 200;" xml:space="preserve">
<style type="text/css">
	.st0{fill:#3C92CA;}
</style>
<g>
	<path class="st0" d="M100.2,0C45,0,0.2,44.8,0.2,100s44.8,100,100,100s100-44.8,100-100S155.3,0,100.2,0z M57,80.7
		c0.7,0.5,1.1,1.2,1.1,2.1v9.3c0,1.1-0.6,2.2-1.7,2.7c-1.2,0.6-7.5,3.7-13.2,8.4c-0.5,0.4-0.8,1-0.8,1.7v4.1h18
		c1.4,0,2.5,1.1,2.5,2.5s-1.1,2.5-2.5,2.5H40c-1.4,0-2.5-1.1-2.5-2.5v-6.6c0-2.2,1-4.2,2.6-5.6c5.1-4.2,10.5-7.2,13-8.5V84
		c-1.2-1.3-1.9-3-1.9-4.8v-9.6c0-6.1,5-11.2,11.2-11.2h2.1c6.1,0,11.2,5,11.2,11.2v9.6c0,1.8-0.7,3.5-1.9,4.8v3.5
		c0,1.4-1.1,2.5-2.5,2.5s-2.5-1.1-2.5-2.5v-4.6c0-0.8,0.4-1.6,1.1-2.1c0.5-0.3,0.8-0.9,0.8-1.5v-9.6c0-3.4-2.8-6.1-6.1-6.1h-2.1
		c-3.4,0-6.1,2.8-6.1,6.1v9.6C56.2,79.8,56.5,80.4,57,80.7z M100,166.3c-11.3,0-20.5-9.2-20.5-20.5s9.2-20.5,20.5-20.5
		s20.5,9.2,20.5,20.5S111.3,166.3,100,166.3z M130.4,113.9H69.9c-1.4,0-2.5-1.1-2.5-2.5v-8.5c0-2.6,1.1-5,3.1-6.6
		c6.8-5.6,14.1-9.6,17.1-11.1v-9.6C86,74.1,85,72,85,69.7V57.3c0-7.6,6.1-13.7,13.7-13.7h2.7c7.6,0,13.7,6.1,13.7,13.7v12.4
		c0,2.2-0.9,4.4-2.5,5.9v9.6c3,1.5,10.3,5.5,17.1,11.1c2,1.6,3.1,4,3.1,6.6v8.5h0.1C132.9,112.8,131.8,113.9,130.4,113.9z
		 M162.6,111.4h-0.1c0,1.4-1.1,2.5-2.5,2.5h-20.2c-1.4,0-2.5-1.1-2.5-2.5s1.1-2.5,2.5-2.5h17.7v-4.1c0-0.7-0.3-1.2-0.8-1.7
		c-5.8-4.7-12-7.9-13.2-8.4c-1-0.5-1.7-1.5-1.7-2.7v-9.3c0-0.8,0.4-1.6,1.1-2.1c0.5-0.3,0.8-0.9,0.8-1.5v-9.6c0-3.4-2.8-6.1-6.1-6.1
		h-2.1c-3.4,0-6.1,2.8-6.1,6.1v9.6c0,0.6,0.3,1.2,0.8,1.5c0.7,0.5,1.1,1.2,1.1,2.1v4.4c0,1.4-1.1,2.5-2.5,2.5
		c-1.4,0-2.5-1.1-2.5-2.5V84c-1.2-1.3-1.9-3-1.9-4.8v-9.6c0-6.2,5-11.2,11.2-11.2h2.1c6.1,0,11.2,5,11.2,11.2v9.6
		c0,1.8-0.7,3.5-1.9,4.8v6.8c2.5,1.3,7.9,4.3,13,8.5c1.7,1.4,2.6,3.4,2.6,5.6L162.6,111.4L162.6,111.4z"/>
	<polygon class="st0" points="103.6,141 100,133.7 96.4,141 88.4,142.2 94.2,147.8 92.8,155.8 100,152 107.2,155.8 105.8,147.8 
		111.6,142.2 	"/>
	<path class="st0" d="M109.4,89.2c-1-0.5-1.7-1.6-1.7-2.8v-12c0-0.8,0.4-1.6,1.1-2.1c0.9-0.6,1.4-1.5,1.4-2.6V57.3
		c0-4.8-3.9-8.7-8.7-8.7h-2.7c-4.8,0-8.7,3.9-8.7,8.7v12.4c0,1,0.5,2,1.4,2.6c0.7,0.5,1.1,1.3,1.1,2.1v12c0,1.1-0.7,2.2-1.7,2.8
		c-1.6,0.8-9.7,4.9-17.2,11c-0.8,0.7-1.3,1.7-1.3,2.7v6h55.4v-6c0-1-0.5-2-1.3-2.7C119,94.1,110.9,89.9,109.4,89.2z"/>
</g>
</svg>
