<?xml version="1.0" encoding="utf-8"?>
<!-- Generator: Adobe Illustrator 18.0.0, SVG Export Plug-In . SVG Version: 6.00 Build 0)  -->
<!DOCTYPE svg PUBLIC "-//W3C//DTD SVG 1.1//EN" "http://www.w3.org/Graphics/SVG/1.1/DTD/svg11.dtd">
<svg version="1.1" id="Layer_1" xmlns="http://www.w3.org/2000/svg" xmlns:xlink="http://www.w3.org/1999/xlink" x="0px" y="0px"
	 viewBox="0 180 612 612" enable-background="new 0 180 612 612" xml:space="preserve">
<path id="XMLID_9_" fill="#9B59B6" d="M306,180C137.1,180,0,317.1,0,486s137.1,306,306,306s306-137.1,306-306S474.9,180,306,180z
	 M412.5,640.7h-30.3v-64c0-42.5-33.4-76.2-76.2-76.2c-42.5,0-76.2,33.4-76.2,76.2v64h-30.3v-64c0-53.2,39.5-97.3,91.2-105V333.2
	L235.9,388l-21.4-21.4l91.5-91.2l91.2,91.2L375.8,388l-54.5-54.8v138.3c51.7,7.7,91.2,51.7,91.2,105V640.7z"/>
<text transform="matrix(1 0 0 1 192.0657 741.9219)" fill="#FFFFFF" font-family="'Lato-Black'" font-size="94.6859">Opps</text>
<g>
	<path fill="#FFFFFF" d="M316.8,224.6c-3.1-1.7-6.3-3-9.5-4.3c-1.9-0.8-3.6-1.7-5.2-2.9c-3.1-2.5-2.5-6.5,1.1-8.1
		c1-0.4,2.1-0.6,3.2-0.7c4.2-0.2,8.2,0.5,12,2.4c1.9,0.9,2.5,0.6,3.2-1.3c0.7-2.1,1.2-4.2,1.9-6.3c0.4-1.4-0.1-2.3-1.4-2.9
		c-2.4-1.1-4.9-1.8-7.6-2.3c-3.4-0.5-3.4-0.5-3.5-4c0-4.9,0-4.9-4.9-4.9c-0.7,0-1.4,0-2.1,0c-2.3,0.1-2.7,0.5-2.7,2.8
		c0,1,0,2.1,0,3.1c0,3.1,0,3-3,4.1c-7.1,2.6-11.4,7.4-11.9,15.1c-0.4,6.8,3.1,11.4,8.8,14.8c3.5,2.1,7.3,3.3,10.9,4.9
		c1.4,0.6,2.8,1.3,4,2.3c3.5,2.9,2.9,7.7-1.3,9.6c-2.2,1-4.6,1.2-7,0.9c-3.7-0.5-7.3-1.4-10.7-3.2c-2-1-2.6-0.8-3.2,1.4
		c-0.6,1.8-1.1,3.7-1.6,5.6c-0.7,2.5-0.4,3.1,2,4.3c3.1,1.5,6.3,2.2,9.6,2.8c2.6,0.4,2.7,0.5,2.7,3.2c0,1.2,0,2.5,0,3.7
		c0,1.5,0.8,2.4,2.3,2.5c1.8,0,3.6,0,5.4,0c1.5,0,2.2-0.8,2.2-2.3c0-1.7,0.1-3.4,0-5c-0.1-1.7,0.7-2.6,2.3-3c3.8-1,7-3.1,9.5-6.1
		C329.2,242.2,326.5,229.9,316.8,224.6z"/>
</g>
</svg>
