<?xml version="1.0" encoding="utf-8"?>
<!-- Generator: Adobe Illustrator 19.0.0, SVG Export Plug-In . SVG Version: 6.00 Build 0)  -->
<svg version="1.1" id="Layer_1" xmlns="http://www.w3.org/2000/svg" xmlns:xlink="http://www.w3.org/1999/xlink" x="0px" y="0px"
	 viewBox="0 0 500 500" style="enable-background:new 0 0 500 500;" xml:space="preserve">
<style type="text/css">
	.st0{fill:#C8232C;}
</style>
<path class="st0" d="M249.5-0.5C111.2-0.5-0.9,111.7-0.9,250c0,138.3,112.1,250.5,250.5,250.5C387.9,500.5,500,388.3,500,250
	C500,111.7,387.9-0.5,249.5-0.5z M274.5,335.5c-20.1,0-38.9-10.5-45.4-22.4c0,0-10.8,41.4-13.1,49.4c-8,28.3-31.7,56.6-33.5,58.9
	c-1.3,1.6-4.1,1.1-4.4-1c-0.5-3.6-6.5-39.3,0.5-68.3l23.9-98c0,0-5.9-11.5-5.9-28.5c0-26.7,15.9-46.6,35.8-46.6
	c16.9,0,25.1,12.3,25.1,27c0,16.5-10.8,41.1-16.4,63.8c-4.7,19.1,9.9,34.7,29.3,34.7c35.2,0,58.9-43.8,58.9-95.6
	c0-39.4-27.4-68.9-77.3-68.9c-56.3,0-91.4,40.7-91.4,86.1c0,15.7,4.8,26.7,12.3,35.3c3.4,3.9,3.9,5.5,2.7,10l-3.8,14.5
	c-1.2,4.6-5.1,6.2-9.3,4.5c-26-10.3-38-37.8-38-68.7c0-51.1,44.5-112.4,132.7-112.4c70.9,0,117.6,49.7,117.6,103
	C374.7,282.8,334.2,335.5,274.5,335.5z"/>
</svg>
