<?xml version="1.0" encoding="utf-8"?>
<!-- Generator: Adobe Illustrator 18.0.0, SVG Export Plug-In . SVG Version: 6.00 Build 0)  -->
<!DOCTYPE svg PUBLIC "-//W3C//DTD SVG 1.1//EN" "http://www.w3.org/Graphics/SVG/1.1/DTD/svg11.dtd">
<svg version="1.1" id="Layer_1" xmlns="http://www.w3.org/2000/svg" xmlns:xlink="http://www.w3.org/1999/xlink" x="0px" y="0px"
	 viewBox="0 90 612 612" enable-background="new 0 90 612 612" xml:space="preserve">
<path id="XMLID_9_" fill="#9B59B6" d="M306,90C137.1,90,0,227.1,0,396s137.1,306,306,306s306-137.1,306-306S474.9,90,306,90z
	 M412.5,550.7h-30.3v-64c0-42.5-33.4-76.2-76.2-76.2c-42.5,0-76.2,33.4-76.2,76.2v64h-30.3v-64c0-53.2,39.5-97.3,91.2-105V243.2
	L235.9,298l-21.4-21.4l91.5-91.2l91.2,91.2L375.8,298l-54.5-54.8v138.3c51.7,7.7,91.2,51.7,91.2,105V550.7z"/>
<text transform="matrix(1 0 0 1 217.0657 651.9219)" fill="#FFFFFF" font-family="'Lato-Black'" font-size="94.6859">SQL</text>
<polygon fill="#FFFFFF" points="252.9,197.7 306,144.7 359.1,197.7 346.6,210.2 306,172.4 265.4,210.2 "/>
<polygon fill="#FFFFFF" points="277.6,146.5 306,118.2 334.4,146.5 327.7,153.1 306,133 284.3,153.1 "/>
</svg>
