<?xml version="1.0" encoding="utf-8"?>
<!-- Generator: Adobe Illustrator 18.0.0, SVG Export Plug-In . SVG Version: 6.00 Build 0)  -->
<!DOCTYPE svg PUBLIC "-//W3C//DTD SVG 1.1//EN" "http://www.w3.org/Graphics/SVG/1.1/DTD/svg11.dtd">
<svg version="1.1" id="Layer_1" xmlns="http://www.w3.org/2000/svg" xmlns:xlink="http://www.w3.org/1999/xlink" x="0px" y="0px"
	 viewBox="0 0 256 256" enable-background="new 0 0 256 256" xml:space="preserve">
<path id="XMLID_9_" fill="#9B59B6" d="M128,0C57.3,0,0,57.3,0,128s57.3,128,128,128s128-57.3,128-128S198.7,0,128,0z M94.3,184.4
	h-8.7v-18.3c0-12.2-9.5-21.8-21.8-21.8c-12.2,0-21.8,9.5-21.8,21.8v18.3h-8.7v-18.3c0-15.2,11.3-27.8,26.1-30V96.5l-15.7,15.7
	l-6.1-6.1L63.9,80L90,106l-6.1,6.1L68.3,96.5V136c14.8,2.2,26.1,14.8,26.1,30V184.4z"/>
<g>
	<path fill="#FFFFFF" d="M224.3,184.4h-8.7v-18.3c0-12.2-9.5-21.8-21.8-21.8c-12.2,0-21.8,9.5-21.8,21.8v18.3h-8.7v-18.3
		c0-15.2,11.3-27.8,26.1-30V96.5l-15.7,15.7l-6.1-6.1L193.9,80L220,106l-6.1,6.1l-15.6-15.7V136c14.8,2.2,26.1,14.8,26.1,30V184.4z"
		/>
</g>
<path fill="#FFFFFF" d="M131.4,112.6c-0.5-0.6-1.4-0.6-2,0c-0.5,0.5-0.5,1.4,0,2l10.1,10.1h-33.3c-0.8,0-1.4,0.6-1.4,1.4
	c0,0.8,0.6,1.4,1.4,1.4h33.3l-10.1,10.1c-0.5,0.6-0.5,1.5,0,2c0.6,0.6,1.5,0.6,2,0l12.5-12.5c0.6-0.5,0.6-1.4,0-2L131.4,112.6z"/>
<polygon fill="#FFFFFF" points="41.8,81.1 64,58.9 86.2,81.1 81,86.3 64,70.5 47,86.3 "/>
<polygon fill="#FFFFFF" points="52.1,57.6 64,45.8 75.9,57.6 73.1,60.4 64,52 54.9,60.4 "/>
<g>
	<path fill="#FFFFFF" d="M198.5,55.7c-1.3-0.7-2.6-1.3-4-1.8c-0.8-0.3-1.5-0.7-2.2-1.2c-1.3-1-1-2.7,0.5-3.4
		c0.4-0.2,0.9-0.3,1.3-0.3c1.8-0.1,3.4,0.2,5,1c0.8,0.4,1,0.3,1.3-0.5c0.3-0.9,0.5-1.8,0.8-2.6c0.2-0.6,0-1-0.6-1.2
		c-1-0.5-2-0.8-3.2-1c-1.4-0.2-1.4-0.2-1.5-1.7c0-2,0-2-2-2c-0.3,0-0.6,0-0.9,0c-1,0-1.1,0.2-1.1,1.2c0,0.4,0,0.9,0,1.3
		c0,1.3,0,1.3-1.3,1.7c-3,1.1-4.8,3.1-5,6.3c-0.2,2.8,1.3,4.8,3.7,6.2c1.5,0.9,3.1,1.4,4.6,2c0.6,0.3,1.2,0.5,1.7,1
		c1.5,1.2,1.2,3.2-0.5,4c-0.9,0.4-1.9,0.5-2.9,0.4c-1.5-0.2-3.1-0.6-4.5-1.3c-0.8-0.4-1.1-0.3-1.3,0.6c-0.3,0.8-0.5,1.5-0.7,2.3
		c-0.3,1-0.2,1.3,0.8,1.8c1.3,0.6,2.6,0.9,4,1.2c1.1,0.2,1.1,0.2,1.1,1.3c0,0.5,0,1,0,1.5c0,0.6,0.3,1,1,1c0.8,0,1.5,0,2.3,0
		c0.6,0,0.9-0.3,0.9-1c0-0.7,0-1.4,0-2.1c0-0.7,0.3-1.1,1-1.3c1.6-0.4,2.9-1.3,4-2.6C203.7,63,202.6,57.9,198.5,55.7z"/>
</g>
</svg>
