<?xml version="1.0" encoding="utf-8"?>
<!-- Generator: Adobe Illustrator 19.0.0, SVG Export Plug-In . SVG Version: 6.00 Build 0)  -->
<svg version="1.1" id="Layer_1_2_" xmlns="http://www.w3.org/2000/svg" xmlns:xlink="http://www.w3.org/1999/xlink" x="0px" y="0px"
	 viewBox="0 0 291.4 291.4" style="enable-background:new 0 0 291.4 291.4;" xml:space="preserve">
<style type="text/css">
	.st0{fill:#1DA1F2;}
</style>
<g id="_x3C_Group_x3E__xA0_Image_1_">
</g>
<path class="st0" d="M145.7,0C65.2,0,0,65.2,0,145.7s65.2,145.7,145.7,145.7s145.7-65.2,145.7-145.7S226.1,0,145.7,0z M209.3,114.2
	v4c0,42.3-33.5,91.2-93.9,91.2c-18.8,0-36.2-5.4-50.3-14.1c2.7,0,5.4,0.7,8,0.7c15.4,0,29.5-5.4,40.9-13.4
	c-14.8,0-26.8-9.4-30.9-22.1c2,0.7,4,0.7,6.1,0.7c2.7,0,6.1-0.7,8.7-1.3c-15.4-2.7-26.8-16.1-26.8-31.6v-0.7c4.7,2.7,9.4,4,14.8,4
	c-8.7-6.1-14.8-15.4-14.8-26.8c0-6.1,1.3-11.4,4.7-16.1c16.1,19.4,40.9,32.2,67.8,33.5c-0.7-2-0.7-4.7-0.7-7.4
	c0-17.5,14.8-32.2,32.8-32.2c9.4,0,18.1,4,24.1,10c7.4-1.3,14.8-4,20.8-8c-2.7,7.4-7.4,14.1-14.8,17.5c6.7-0.7,12.7-2.7,18.8-5.4
	C221.4,104.1,216,109.5,209.3,114.2z"/>
</svg>
