<?xml version="1.0" encoding="utf-8"?>
<!-- Generator: Adobe Illustrator 18.0.0, SVG Export Plug-In . SVG Version: 6.00 Build 0)  -->
<!DOCTYPE svg PUBLIC "-//W3C//DTD SVG 1.1//EN" "http://www.w3.org/Graphics/SVG/1.1/DTD/svg11.dtd">
<svg version="1.1" id="Layer_1" xmlns="http://www.w3.org/2000/svg" xmlns:xlink="http://www.w3.org/1999/xlink" x="0px" y="0px"
	 viewBox="0 90 612 612" enable-background="new 0 90 612 612" xml:space="preserve">
<g>
	<path fill="#3C92CA" d="M334.8,418.6c-3.1-1.5-5.2-4.9-5.2-8.6v-36.7c0-2.4,1.2-4.9,3.4-6.4c2.8-1.8,4.3-4.6,4.3-8v-37.6
		c0-14.7-11.9-26.6-26.6-26.6h-8.3c-14.7,0-26.6,11.9-26.6,26.6v37.9c0,3.1,1.5,6.1,4.3,8c2.1,1.5,3.4,4,3.4,6.4v36.7
		c0,3.4-2.1,6.7-5.2,8.6c-4.9,2.4-29.7,15-52.6,33.7c-2.4,2.1-4,5.2-4,8.3v18.4h169.5v-18.4c0-3.1-1.5-6.1-4-8.3
		C364.1,433.6,339.4,421.1,334.8,418.6z"/>
	<path fill="#3C92CA" d="M306,90C137.1,90,0,227.1,0,396s137.1,306,306,306s306-137.1,306-306S474.9,90,306,90z M174.4,392.9
		c2.1,1.5,3.4,3.7,3.4,6.4v28.5c0,3.4-1.8,6.7-5.2,8.3c-3.7,1.8-22.9,11.3-40.4,25.7c-1.5,1.2-2.4,3.1-2.4,5.2v12.5h55.1
		c4.3,0,7.6,3.4,7.6,7.6c0,4.3-3.4,7.6-7.6,7.6h-62.4c-4.3,0-7.6-3.4-7.6-7.6V467c0-6.7,3.1-12.9,8-17.1c15.6-12.9,32.1-22,39.8-26
		V403c-3.7-4-5.8-9.2-5.8-14.7V359c0-18.7,15.3-34.3,34.3-34.3h6.4c18.7,0,34.3,15.3,34.3,34.3v29.4c0,5.5-2.1,10.7-5.8,14.7v10.7
		c0,4.3-3.4,7.6-7.7,7.6s-7.6-3.4-7.6-7.6v-14.1c0-2.4,1.2-4.9,3.4-6.4c1.5-0.9,2.4-2.8,2.4-4.6v-29.4c0-10.4-8.6-18.7-18.7-18.7
		h-6.4c-10.4,0-18.7,8.6-18.7,18.7v29.4C172,390.2,172.9,391.7,174.4,392.9z M406.7,486.9c0,4.3-3.4,7.6-7.6,7.6H213.9
		c-4.3,0-7.6-3.4-7.6-7.6v-26c0-8,3.4-15.3,9.5-20.2c20.8-17.1,43.1-29.4,52.3-34v-29.4c-4.9-4.9-8-11.3-8-18.1V321
		c0-23.3,18.7-41.9,41.9-41.9h8.3c23.3,0,41.9,18.7,41.9,41.9v38.2c0,6.7-2.8,13.5-7.6,18.1v29.4c9.2,4.6,31.5,16.8,52.3,34
		c6.1,4.9,9.5,12.2,9.5,20.2L406.7,486.9L406.7,486.9z M497.2,486.9c0,4.3-3.4,7.6-7.7,7.6h-61.8c-4.3,0-7.6-3.4-7.6-7.6
		c0-4.3,3.4-7.6,7.6-7.6h54.2v-12.5c0-2.1-0.9-3.7-2.4-5.2c-17.7-14.4-36.7-24.2-40.4-25.7c-3.1-1.5-5.2-4.6-5.2-8.3v-28.5
		c0-2.4,1.2-4.9,3.4-6.4c1.5-0.9,2.4-2.8,2.4-4.6v-29.4c0-10.4-8.6-18.7-18.7-18.7h-6.4c-10.4,0-18.7,8.6-18.7,18.7V388
		c0,1.8,0.9,3.7,2.4,4.6c2.1,1.5,3.4,3.7,3.4,6.4v13.5c0,4.3-3.4,7.7-7.7,7.7s-7.6-3.4-7.6-7.7v-10.1c-3.7-4-5.8-9.2-5.8-14.7v-29.4
		c0-19,15.3-34.3,34.3-34.3h6.4c18.7,0,34.3,15.3,34.3,34.3v29.4c0,5.5-2.1,10.7-5.8,14.7v20.8c7.6,4,24.2,13.2,39.8,26
		c5.2,4.3,8,10.4,8,17.1v20.5h-0.4V486.9z"/>
</g>
</svg>
