<svg xmlns="http://www.w3.org/2000/svg" width="36" height="36" viewBox="0 0 36 36">
    <g fill="none" fill-rule="evenodd">
        <rect width="36" height="36" fill="#3CB97D" rx="3"/>
        <path fill="#FFF" fill-rule="nonzero" d="M11.5 9a.5.5 0 1 0 0 1 .5.5 0 0 0 0-1zm5 0a.5.5 0 1 0 0 1 .5.5 0 0 0 0-1zm-7 1a.5.5 0 1 0 0 1 .5.5 0 0 0 0-1zm9 0a.5.5 0 1 0 0 1 .5.5 0 0 0 0-1zM14 11a4 4 0 0 0-4 4 4 4 0 0 0 3 3.87V20a1 1 0 0 0 2 0v-1.133A4 4 0 0 0 18 15a4 4 0 0 0-4-4zm7.5 0a.5.5 0 1 0 0 1 .5.5 0 0 0 0-1zm3 0a.5.5 0 1 0 0 1 .5.5 0 0 0 0-1zm-16 1a.5.5 0 1 0 0 1 .5.5 0 0 0 0-1zm11 0a.5.5 0 1 0 0 1 .5.5 0 0 0 0-1zm7 0a.5.5 0 1 0 0 1 .5.5 0 0 0 0-1zM23 13a3 3 0 0 0-1 5.826V20a1 1 0 0 0 2 0v-1.176A3 3 0 0 0 26 16a3 3 0 0 0-3-3zm4.5 1a.5.5 0 1 0 0 1 .5.5 0 0 0 0-1zM14 22c-4.121 0-7 1.55-7 3.771V28h14v-2.229C21 23.551 18.121 22 14 22zm9 0c-.617 0-1.208.047-1.768.127 1.13.961 1.768 2.201 1.768 3.644V28h6v-2.783C29 23.323 26.532 22 23 22z"/>
    </g>
</svg>
