<?xml version="1.0" encoding="iso-8859-1"?>
<!-- Generator: Adobe Illustrator 19.0.0, SVG Export Plug-In . SVG Version: 6.00 Build 0)  -->
<svg xmlns="http://www.w3.org/2000/svg" xmlns:xlink="http://www.w3.org/1999/xlink" version="1.1" id="Capa_1" x="0px" y="0px" viewBox="0 0 469.333 469.333" style="enable-background:new 0 0 469.333 469.333;" xml:space="preserve" width="512px" height="512px">
<g>
	<g>
		<path d="M234.667,42.667C105.064,42.667,0,147.73,0,277.333c0,14.625,2.96,40.45,8.88,77.474    c6.62,41.401,42.336,71.859,84.263,71.859h282.622c42.025,0,77.794-30.597,84.303-72.115c6.177-39.393,9.265-65.133,9.265-77.218    C469.333,147.73,364.27,42.667,234.667,42.667z M417.917,347.943C414.662,368.701,396.777,384,375.765,384H93.143    c-20.964,0-38.821-15.229-42.131-35.93c-5.581-34.903-8.345-59.017-8.345-70.737c0-106.039,85.961-192,192-192s192,85.961,192,192    C426.667,286.404,423.737,310.823,417.917,347.943z" fill="#FFFFFF"/>
	</g>
</g>
<g>
	<g>
		<circle cx="234.667" cy="298.667" r="42.667" fill="#FFFFFF"/>
	</g>
</g>
<g>
	<g>
		
			<rect x="202.526" y="229.339" transform="matrix(0.6968 -0.7172 0.7172 0.6968 -93.5912 279.9231)" width="163.607" height="42.667" fill="#FFFFFF"/>
	</g>
</g>
<g>
</g>
<g>
</g>
<g>
</g>
<g>
</g>
<g>
</g>
<g>
</g>
<g>
</g>
<g>
</g>
<g>
</g>
<g>
</g>
<g>
</g>
<g>
</g>
<g>
</g>
<g>
</g>
<g>
</g>
</svg>
