<svg xmlns="http://www.w3.org/2000/svg" width="10.469" height="5.969" viewBox="0 0 10.469 5.969">
  <defs>
    <style>
      .cls-1 {
        fill: #a8aab7;
        fill-rule: evenodd;
      }
    </style>
  </defs>
  <path id="dropdown-icon" class="cls-1" d="M552.487,333.241a0.843,0.843,0,0,1,1.18,0l4.4,4.312a0.814,0.814,0,0,1,0,1.162,0.843,0.843,0,0,1-1.18,0l-4.4-4.312A0.813,0.813,0,0,1,552.487,333.241Zm4.4,4.312,4.4-4.312a0.843,0.843,0,0,1,1.18,0,0.814,0.814,0,0,1,0,1.162l-4.4,4.312a0.843,0.843,0,0,1-1.18,0A0.814,0.814,0,0,1,556.884,337.553Z" transform="translate(-552.25 -333)"/>
</svg>
